<svg width="25.512268" height="18.126221" viewBox="0 0 25.5123 18.1262" fill="none" xmlns="http://www.w3.org/2000/svg" xmlns:xlink="http://www.w3.org/1999/xlink">
	<desc>
			Created with Pixso.
	</desc>
	<defs>
		<linearGradient x1="12.756142" y1="18.126102" x2="12.756142" y2="-0.000001" id="paint_linear_19_113_0" gradientUnits="userSpaceOnUse">
			<stop stop-color="#FF0845"/>
			<stop offset="1.000000" stop-color="#FF4040"/>
		</linearGradient>
	</defs>
	<path id="Combined-Shape" d="M18.82 18.12C18.82 18.12 18.04 17.19 17.38 16.37C20.24 15.57 21.34 13.81 21.34 13.81C20.44 14.39 19.59 14.8 18.82 15.08C17.73 15.53 16.68 15.83 15.66 16.01C13.56 16.39 11.64 16.29 10 15.98C8.75 15.75 7.68 15.4 6.79 15.06C6.29 14.86 5.74 14.63 5.19 14.32C5.16 14.3 5.13 14.29 5.1 14.27C5.06 14.25 5.03 14.24 5 14.22C4.95 14.19 4.93 14.17 4.91 14.15C4.52 13.93 4.3 13.78 4.3 13.78C4.3 13.78 5.35 15.51 8.12 16.33C7.47 17.15 6.66 18.12 6.66 18.12C1.83 17.97 0 14.84 0 14.84C0 7.89 3.14 2.26 3.14 2.26C6.29 -0.07 9.28 0 9.28 0L9.5 0.25C5.56 1.38 3.75 3.08 3.75 3.08C3.75 3.08 4.23 2.82 5.04 2.46C7.38 1.44 9.23 1.16 10 1.1L10.05 1.09C10.16 1.07 10.26 1.05 10.37 1.05C11.7 0.88 13.21 0.84 14.78 1.01C16.86 1.25 19.09 1.85 21.36 3.08C21.36 3.08 19.63 1.46 15.92 0.34L16.22 0C16.22 0 19.22 -0.07 22.36 2.26C22.36 2.26 25.51 7.89 25.51 14.84C25.51 14.84 23.65 17.97 18.82 18.12ZM9.28 8.44C8.05 8.44 7.07 9.55 7.07 10.9C7.07 12.26 8.07 13.37 9.28 13.37C10.52 13.37 11.49 12.26 11.49 10.9C11.51 9.55 10.52 8.44 9.28 8.44ZM14.98 10.9C14.98 9.55 15.96 8.44 17.19 8.44C18.43 8.44 19.4 9.55 19.4 10.9C19.4 12.26 18.43 13.37 17.19 13.37C15.98 13.37 14.98 12.26 14.98 10.9Z" fill="url(#paint_linear_19_113_0)" fill-opacity="1.000000" fill-rule="evenodd"/>
</svg>
