<svg width="25.512268" height="18.336914" viewBox="0 0 25.5123 18.3369" fill="none" xmlns="http://www.w3.org/2000/svg" xmlns:xlink="http://www.w3.org/1999/xlink">
	<desc>
			Created with Pixso.
	</desc>
	<defs>
		<linearGradient x1="12.756142" y1="18.336950" x2="12.756142" y2="-0.000001" id="paint_linear_19_112_0" gradientUnits="userSpaceOnUse">
			<stop stop-color="#FF0845"/>
			<stop offset="1.000000" stop-color="#FF4040"/>
		</linearGradient>
	</defs>
	<path id="Vector" d="M24.97 2.86C24.68 1.73 23.82 0.84 22.72 0.54C20.73 0 12.75 0 12.75 0C12.75 0 4.77 0 2.78 0.54C1.69 0.84 0.82 1.73 0.53 2.86C0 4.9 0 9.16 0 9.16C0 9.16 0 13.43 0.53 15.47C0.82 16.6 1.69 17.48 2.78 17.78C4.77 18.33 12.75 18.33 12.75 18.33C12.75 18.33 20.73 18.33 22.72 17.78C23.82 17.48 24.68 16.6 24.97 15.47C25.51 13.43 25.51 9.16 25.51 9.16C25.51 9.16 25.51 4.9 24.97 2.86ZM10.36 5.58L10.36 13.55L16.74 9.56L10.36 5.58Z" fill="url(#paint_linear_19_112_0)" fill-opacity="1.000000" fill-rule="evenodd"/>
</svg>
