<svg width="25.512268" height="25.512207" viewBox="0 0 25.5123 25.5122" fill="none" xmlns="http://www.w3.org/2000/svg" xmlns:xlink="http://www.w3.org/1999/xlink">
	<desc>
			Created with Pixso.
	</desc>
	<defs>
		<linearGradient x1="12.756142" y1="25.512281" x2="12.756142" y2="-0.000001" id="paint_linear_19_110_0" gradientUnits="userSpaceOnUse">
			<stop stop-color="#FF0845"/>
			<stop offset="1.000000" stop-color="#FF4040"/>
		</linearGradient>
	</defs>
	<path d="M7.31 0C3.27 0 0 3.27 0 7.31L0 18.2C0 22.23 3.27 25.51 7.31 25.51L18.2 25.51C22.23 25.51 25.51 22.23 25.51 18.2L25.51 7.31C25.51 3.27 22.23 0 18.2 0L7.31 0ZM18.12 12.75C18.12 15.71 15.71 18.12 12.75 18.12C9.79 18.12 7.39 15.71 7.39 12.75C7.39 9.79 9.79 7.39 12.75 7.39C15.71 7.39 18.12 9.79 18.12 12.75ZM21.14 5.92C21.14 6.77 20.44 7.47 19.59 7.47C18.73 7.47 18.04 6.77 18.04 5.92C18.04 5.06 18.73 4.37 19.59 4.37C20.44 4.37 21.14 5.06 21.14 5.92Z" fill="url(#paint_linear_19_110_0)" fill-opacity="1.000000" fill-rule="evenodd"/>
</svg>
