<svg width="25.512268" height="15.184814" viewBox="0 0 25.5123 15.1848" fill="none" xmlns="http://www.w3.org/2000/svg" xmlns:xlink="http://www.w3.org/1999/xlink">
	<desc>
			Created with Pixso.
	</desc>
	<defs>
		<linearGradient x1="12.756142" y1="15.184926" x2="12.756142" y2="-0.000001" id="paint_linear_19_109_0" gradientUnits="userSpaceOnUse">
			<stop stop-color="#FF0845"/>
			<stop offset="1.000000" stop-color="#FF4040"/>
		</linearGradient>
	</defs>
	<path d="M24.07 0.02C24.91 0.02 25.1 0.45 24.91 1.05C24.61 2.41 22.16 6.02 21.4 7.14C21.26 7.36 21.17 7.48 21.18 7.48C20.88 7.97 20.77 8.18 21.18 8.72C21.32 8.92 21.64 9.23 21.99 9.58C22.36 9.93 22.77 10.34 23.1 10.72C24.29 12.07 25.2 13.21 25.45 13.99C25.66 14.77 25.29 15.18 24.47 15.18L21.69 15.18C20.95 15.18 20.57 14.76 19.76 13.85C19.42 13.47 18.99 12.99 18.42 12.42C16.77 10.83 16.04 10.61 15.64 10.61C15.07 10.61 14.91 10.75 14.91 11.56L14.91 14.07C14.91 14.75 14.69 15.15 12.91 15.15C9.97 15.15 6.7 13.37 4.4 10.05C0.94 5.18 0 1.51 0 0.78C0 0.37 0.13 0 0.94 0L3.75 0C4.45 0 4.72 0.29 4.99 1.08C6.37 5.05 8.67 8.53 9.61 8.53C9.97 8.53 10.13 8.37 10.13 7.48L10.13 3.37C10.06 2.2 9.65 1.7 9.35 1.32C9.17 1.09 9.02 0.9 9.02 0.64C9.02 0.32 9.29 0 9.72 0L14.1 0C14.69 0 14.91 0.32 14.91 1.02L14.91 6.56C14.91 7.16 15.15 7.37 15.34 7.37C15.69 7.37 15.99 7.16 16.64 6.51C18.64 4.26 20.07 0.81 20.07 0.81C20.26 0.4 20.58 0.02 21.29 0.02L24.07 0.02Z" fill="url(#paint_linear_19_109_0)" fill-opacity="1.000000" fill-rule="evenodd"/>
</svg>
