<svg width="349.998291" height="98.491699" viewBox="0 0 349.998 98.4917" fill="none" xmlns="http://www.w3.org/2000/svg" xmlns:xlink="http://www.w3.org/1999/xlink">
	<desc>
			Created with Pixso.
	</desc>
	<defs>
		<filter id="filter_19_79_dd" x="0.000000" y="0.000000" width="349.998291" height="56.281250" filterUnits="userSpaceOnUse" color-interpolation-filters="sRGB">
			<feFlood flood-opacity="0" result="BackgroundImageFix"/>
			<feBlend mode="normal" in="SourceGraphic" in2="BackgroundImageFix" result="shape"/>
			<feGaussianBlur stdDeviation="4.10383" result="effect_layerBlur_1"/>
		</filter>
		<filter id="filter_19_80_dd" x="22.864197" y="17.587646" width="307.787445" height="22.864258" filterUnits="userSpaceOnUse" color-interpolation-filters="sRGB">
			<feFlood flood-opacity="0" result="BackgroundImageFix"/>
			<feBlend mode="normal" in="SourceGraphic" in2="BackgroundImageFix" result="shape"/>
			<feGaussianBlur stdDeviation="2.93131" result="effect_layerBlur_1"/>
		</filter>
		<linearGradient x1="174.119751" y1="98.491791" x2="174.119751" y2="28.140381" id="paint_linear_19_76_0" gradientUnits="userSpaceOnUse">
			<stop stop-color="#FF0845"/>
			<stop offset="1.000000" stop-color="#FF4040"/>
		</linearGradient>
		<linearGradient x1="174.119766" y1="96.733253" x2="174.119766" y2="29.899414" id="paint_linear_19_77_0" gradientUnits="userSpaceOnUse">
			<stop stop-color="#FF0845"/>
			<stop offset="1.000000" stop-color="#FFB099"/>
		</linearGradient>
		<linearGradient x1="176.520523" y1="29.899414" x2="176.520523" y2="96.733253" id="paint_linear_19_77_1" gradientUnits="userSpaceOnUse">
			<stop stop-color="#FFFFFF"/>
			<stop offset="1.000000" stop-color="#FFFFFF" stop-opacity="0.329412"/>
		</linearGradient>
		<linearGradient x1="174.999146" y1="12.311523" x2="174.999146" y2="43.969658" id="paint_linear_19_79_0" gradientUnits="userSpaceOnUse">
			<stop stop-color="#FFFFFF"/>
			<stop offset="1.000000" stop-color="#C4C4C4" stop-opacity="0.000000"/>
			<stop offset="1.000000" stop-color="#FFFFFF" stop-opacity="0.760784"/>
		</linearGradient>
	</defs>
	<g style="mix-blend-mode:normal">
		<path d="M28.33 28.14L319.9 28.14L335.92 45.72L335.92 80.9L319.9 98.49L28.33 98.49L12.31 80.9L12.31 45.72L28.33 28.14Z" fill="url(#paint_linear_19_76_0)" fill-opacity="1.000000" fill-rule="evenodd"/>
	</g>
	<g opacity="0.600000" style="mix-blend-mode:soft-light">
		<path d="M29.19 29.89L319.2 29.89L334.16 46.45L334.16 80.02L319.22 96.73L28.47 96.73L14.07 80.02L14.07 46.6L29.19 29.89Z" fill="url(#paint_linear_19_77_0)" fill-opacity="1.000000" fill-rule="nonzero"/>
		<path d="M318.42 31.65L332.41 47.13L332.41 79.35L318.43 94.97L29.28 94.97L15.82 79.37L15.82 47.28L29.97 31.65L318.42 31.65ZM319.2 29.89L29.19 29.89L14.07 46.6L14.07 80.02L28.47 96.73L319.22 96.73L334.16 80.02L334.16 46.45L319.2 29.89Z" fill="url(#paint_linear_19_77_1)" fill-opacity="1.000000" fill-rule="evenodd"/>
	</g>
	<g opacity="0.200000" filter="url(#filter_19_79_dd)">
		<ellipse cx="174.999146" cy="28.140625" rx="162.687637" ry="15.829067" fill="url(#paint_linear_19_79_0)" fill-opacity="1.000000"/>
	</g>
	<g opacity="0.700000" filter="url(#filter_19_80_dd)" style="mix-blend-mode:screen">
		<ellipse cx="176.757935" cy="29.019775" rx="145.099792" ry="2.638178" fill="#FFFFFF" fill-opacity="1.000000"/>
	</g>
	<path d="M206.2 55.52Q204.92 55.11 203.68 55.07Q201.99 55.02 200.71 55.47Q199.43 55.92 198.48 56.72Q197.86 57.24 197.39 57.86Q197.13 58.2 196.92 58.57Q196.31 59.62 195.97 60.74Q195.64 61.86 195.53 62.98Q195.43 64.1 195.55 65.02Q195.59 65.44 195.69 65.85Q195.85 66.52 196.16 67.15Q196.35 67.55 196.59 67.93Q196.95 68.51 197.39 69.03Q197.85 69.56 198.36 70.02Q198.69 70.31 199.04 70.57Q199.96 71.23 200.92 71.66Q201.87 72.09 202.81 72.24Q203.74 72.39 204.53 72.2Q205.82 71.9 207.12 70.97Q207.17 70.93 207.22 70.89Q208.45 69.98 209.4 68.69Q209.67 68.33 209.91 67.95Q210.55 66.92 210.96 65.75Q211.34 64.67 211.39 63.58Q211.42 63.04 211.37 62.51Q211.18 60.5 210.42 59.1Q209.66 57.7 208.57 56.81Q207.71 56.1 206.72 55.7Q206.46 55.6 206.2 55.52ZM214.21 56.39Q213.6 56.34 212.84 56.25Q213.25 56.64 213.57 56.95L214.09 57.47Q214.34 57.72 214.5 57.91Q214.71 58.3 215.17 59.96Q215.38 60.68 215.64 61.74Q215.91 62.81 216.28 64.33Q216.65 65.85 217.12 67.87Q217.6 69.9 218.2 72.53L222.28 72.53Q222.33 72.27 222.37 71.97Q222.4 71.67 222.42 71.42Q222.45 71.12 222.47 70.8Q222.49 70.43 222.63 69.62Q222.75 68.95 222.98 67.74Q223.21 66.52 223.6 64.56L225.31 71.74L229.31 72.16Q229.79 69.71 230.18 67.81Q230.58 65.9 230.89 64.47Q231.2 63.04 231.43 62.01Q231.66 60.98 231.85 60.29Q232.26 58.67 232.45 58.21Q232.63 57.96 233.05 57.59Q233.39 57.29 234.02 56.85Q234.64 56.41 235.66 55.88Q234.48 55.92 233.73 55.93Q232.98 55.95 232.52 55.95L230.76 55.95Q230.23 55.95 229.34 55.93Q228.45 55.92 227.04 55.88Q227.71 56.29 228.06 56.73Q228.4 57.17 228.57 57.54Q228.71 57.86 228.75 58.19Q228.77 58.29 228.77 58.39Q228.73 58.79 228.47 59.94Q228.36 60.43 228.19 61.14Q228.01 61.86 227.77 62.85Q227.53 63.84 227.19 65.14Q226.86 66.43 226.44 68.07Q226.03 66.73 225.77 65.66Q225.52 64.58 225.36 63.84Q225.17 62.97 225.08 62.3Q224.99 61.56 224.89 60.54Q224.8 59.66 224.67 58.42Q224.55 57.17 224.43 55.53L223.6 55.42Q223.16 57.52 222.86 58.95Q222.56 60.38 222.38 61.28Q222.15 62.34 221.98 63.01Q221.82 63.66 221.59 64.49Q221.38 65.23 221.08 66.26Q220.78 67.29 220.32 68.6Q219.97 66.87 219.71 65.51Q219.44 64.14 219.27 63.09Q219.1 62.04 218.99 61.27Q218.89 60.5 218.84 59.96Q218.73 58.69 218.8 58.26Q218.91 57.93 219.17 57.61Q219.37 57.33 219.76 56.99Q220.14 56.64 220.74 56.29Q219.49 56.41 218.64 56.45Q217.78 56.5 217.23 56.52Q216.58 56.55 216.16 56.55Q215.77 56.52 215.26 56.48Q214.82 56.43 214.21 56.39ZM118.14 56.25Q117.47 56.15 116.73 55.97Q117.19 56.43 117.52 56.94Q117.86 57.45 118.04 57.89Q118.27 58.39 118.41 58.88Q118.5 59.32 118.56 60.3Q118.62 61.28 118.65 62.54Q118.69 63.8 118.68 65.15Q118.67 66.5 118.64 67.67Q118.62 68.83 118.57 69.66Q118.53 70.5 118.46 70.68Q118.37 70.89 118.25 71.12Q118.14 71.3 117.96 71.55Q117.79 71.79 117.53 71.97Q118.83 71.9 119.8 71.85Q120.77 71.79 121.41 71.74Q122.18 71.7 122.71 71.65Q123.35 71.6 124.07 71.64Q124.79 71.67 125.47 71.71Q126.15 71.74 126.75 71.74Q127.35 71.74 127.77 71.65Q128.18 71.56 128.69 71.4Q129.2 71.23 129.68 70.82Q130.17 70.4 130.55 69.64Q130.93 68.88 131.07 67.59Q131.09 66.59 130.74 65.78Q130.61 65.44 130.36 65.09Q130.12 64.75 129.74 64.46Q129.36 64.17 128.84 63.95Q128.32 63.73 127.6 63.64Q129.03 63.27 129.8 62.56Q130.56 61.86 130.88 61.19Q131.03 60.9 131.12 60.6Q131.28 60.08 131.3 59.5Q131.26 58.91 131.02 58.42Q130.97 58.32 130.91 58.22Q130.81 58.07 130.71 57.93Q130.42 57.54 130.03 57.23Q129.96 57.17 129.89 57.12Q129.41 56.76 128.86 56.51Q128.23 56.22 127.63 56.08Q127.03 55.92 126.07 55.96Q125.11 55.99 124.07 56.1Q123.03 56.2 122.05 56.32Q121.07 56.43 120.42 56.43Q119.91 56.45 119.31 56.39Q118.8 56.34 118.14 56.25ZM150.16 56.22Q149.39 56.18 148.4 56.08Q149.14 56.62 149.66 56.97Q150.18 57.33 150.5 57.59Q150.9 57.86 151.13 58.05Q151.38 58.3 151.96 59.06Q152.44 59.73 153.32 61.02Q154.2 62.3 155.58 64.51Q155.7 66.04 155.73 67.03Q155.77 68.02 155.72 68.63Q155.68 69.32 155.58 69.69Q155.47 70.01 155.21 70.38Q155.01 70.7 154.64 71.1Q154.27 71.49 153.69 71.88Q154.8 71.74 155.63 71.67Q156.46 71.6 157.06 71.56Q157.75 71.51 158.26 71.51Q158.75 71.51 159.35 71.58Q159.86 71.63 160.52 71.72Q161.17 71.81 161.94 72Q161.22 71.47 160.79 71.03Q160.37 70.59 160.13 70.26Q159.86 69.9 159.74 69.62Q159.65 69.27 159.65 68.58Q159.65 67.98 159.71 66.94Q159.76 65.9 159.97 64.21Q161.47 62.62 162.47 61.62Q163.46 60.61 164.06 60.01Q164.75 59.32 165.15 58.99Q165.49 58.69 166.02 58.3Q166.49 57.98 167.14 57.51Q167.8 57.03 168.7 56.43Q167.39 56.48 166.51 56.49Q165.63 56.5 165.1 56.5L163.28 56.5Q162.4 56.5 160.5 56.43Q161.08 56.89 161.4 57.25Q161.73 57.61 161.87 57.86Q162.03 58.16 162.05 58.39Q162.05 58.58 161.81 58.98Q161.57 59.39 161.18 59.87Q160.8 60.36 160.32 60.87Q159.83 61.37 159.34 61.81Q158.84 62.25 158.38 62.54Q157.92 62.83 157.59 62.85Q157.27 62.87 156.92 62.57Q156.58 62.27 156.24 61.8Q155.91 61.33 155.61 60.73Q155.31 60.13 155.1 59.58Q154.89 59.04 154.78 58.6Q154.66 58.16 154.68 57.98Q154.73 57.77 154.96 57.52Q155.14 57.31 155.5 57.03Q155.86 56.75 156.53 56.43L154.73 56.43Q153.97 56.43 153.46 56.41Q152.86 56.41 152.44 56.39Q152.03 56.36 151.43 56.32Q150.92 56.27 150.16 56.22ZM178.76 56.36Q178.09 56.29 177.05 56.11Q177.58 56.57 177.88 56.95Q178.18 57.33 178.37 57.63Q178.58 57.98 178.65 58.28Q178.67 58.46 178.73 59.25Q178.78 60.03 178.83 61.14Q178.88 62.25 178.91 63.54Q178.95 64.84 178.96 66Q178.97 67.17 178.95 68.08Q178.92 68.99 178.85 69.36Q178.76 69.71 178.53 70.17Q178.35 70.57 178.01 71.13Q177.68 71.7 177.12 72.37Q178.3 72.2 179.1 72.11Q179.89 72.02 180.35 71.97Q180.91 71.9 181.23 71.9L181.93 71.9Q182.59 71.9 183.96 71.97Q183.56 70.96 183.3 70.15Q183.03 69.34 182.85 68.74Q182.64 68.05 182.53 67.49Q182.43 66.92 182.36 66.06Q182.32 65.32 182.31 64.2Q182.29 63.08 182.36 61.49Q183.08 62.62 183.6 63.5Q184.12 64.38 184.47 64.98Q184.88 65.69 185.14 66.25Q185.44 66.82 185.87 67.68Q186.27 68.42 186.88 69.56Q187.49 70.7 188.39 72.3L190.45 72.25Q190.52 71.28 190.56 70.32Q190.61 69.36 190.66 68.6Q190.7 67.7 190.7 66.92Q190.75 65.88 190.79 64.63Q190.84 63.38 190.9 62.23Q190.96 61.07 191.01 60.14Q191.07 59.2 191.16 58.79Q191.23 58.46 191.44 58.09Q191.62 57.77 191.93 57.36Q192.23 56.94 192.73 56.48Q191.86 56.55 191.27 56.58Q190.68 56.62 190.29 56.66Q189.85 56.71 189.55 56.71Q189.32 56.73 188.9 56.73L187.93 56.73Q187.33 56.73 186.38 56.71Q186.96 57.49 187.28 58.11Q187.61 58.72 187.79 59.16Q188 59.66 188.07 60.06Q188.11 60.38 188.11 61.03Q188.11 61.67 188.1 62.45Q188.09 63.22 188.06 64.04Q188.02 64.86 188 65.54Q187.98 66.22 187.95 66.67Q187.93 67.12 187.93 67.15Q187.93 67.15 187.93 67.15Q187.92 67.16 187.72 66.64Q187.51 66.08 187.2 65.23Q186.89 64.38 186.52 63.41Q186.15 62.44 185.83 61.63Q185.55 60.98 185.23 60.17Q184.95 59.5 184.55 58.56Q184.14 57.61 183.66 56.48Q182.8 56.48 182.24 56.49Q181.67 56.5 181.3 56.5L180.61 56.5Q180.33 56.52 179.85 56.48Q179.43 56.43 178.76 56.36ZM135.59 56.45Q135.1 56.39 134.41 56.25Q134.74 56.5 134.91 56.79Q135.08 57.08 135.15 57.33Q135.17 57.4 135.19 57.46Q135.24 57.68 135.24 57.91Q135.22 58.51 135.19 59.68Q135.15 60.84 135.19 62.27Q135.22 63.71 135.37 65.24Q135.52 66.78 135.86 68.11Q136.19 69.43 136.78 70.4Q137.28 71.22 138 71.55Q138.13 71.61 138.27 71.65Q139.15 71.9 140.1 72.08Q141.06 72.25 142.06 72.24Q142.43 72.24 142.8 72.2Q143.41 72.14 144.02 71.99Q144.09 71.97 144.15 71.95Q145.05 71.7 145.87 71.17Q146.47 70.77 146.85 69.73Q147.23 68.69 147.47 67.36Q147.71 66.02 147.83 64.53Q147.95 63.04 148 61.75Q148.06 60.47 148.1 59.56Q148.13 58.65 148.2 58.46Q148.27 58.26 148.43 58.05Q148.57 57.86 148.81 57.7Q149.05 57.54 149.45 57.45Q148.43 57.36 147.7 57.31Q146.98 57.26 146.51 57.22Q145.96 57.17 145.59 57.15Q145.22 57.12 144.76 57.1Q144.37 57.08 143.79 57.07Q143.21 57.05 142.49 57.03Q142.89 57.42 143.19 57.76Q143.49 58.09 143.67 58.35Q143.9 58.65 144.04 58.88Q144.16 59.09 144.3 59.94Q144.43 60.8 144.49 61.96Q144.55 63.13 144.47 64.46Q144.39 65.78 144.08 66.94Q143.77 68.09 143.16 68.9Q142.84 69.34 142.4 69.59Q142.03 69.79 141.59 69.85Q141.12 69.92 140.74 69.77Q140.52 69.69 140.34 69.53Q139.82 69.09 139.46 68.3Q139.1 67.52 138.89 66.47Q138.68 65.42 138.58 64.28Q138.48 63.15 138.45 62.05Q138.43 60.96 138.46 60.07Q138.5 59.18 138.55 58.59Q138.59 58 138.64 57.91Q138.68 57.77 138.89 57.56Q139.05 57.38 139.38 57.12Q139.7 56.87 140.23 56.5Q139.31 56.55 138.71 56.56Q138.11 56.57 137.71 56.59Q137.28 56.62 137.02 56.62Q136.77 56.62 136.4 56.57L135.59 56.45ZM200.01 68.39Q199.22 66.89 199.54 64.42Q199.7 63.2 200.04 61.93Q200.37 60.66 200.93 59.64Q201.48 58.63 202.29 57.99Q202.6 57.74 202.96 57.6Q203.52 57.38 204.18 57.42Q204.2 57.43 204.21 57.43Q204.82 57.48 205.4 57.91Q205.98 58.35 206.4 59.14Q206.82 59.94 206.99 61.06Q207.16 62.18 206.95 63.57Q206.75 64.95 206.31 66.22Q205.87 67.49 205.27 68.44Q204.67 69.39 203.94 69.88Q203.47 70.21 202.97 70.25Q202.7 70.28 202.43 70.22Q201.69 70.07 201.12 69.67Q200.45 69.21 200.01 68.39ZM121.62 58.95Q121.6 58.42 121.6 58.33Q122.78 58 123.62 58.08Q124.46 58.16 125.02 58.37Q125.66 58.63 126.1 59.02Q126.33 59.27 126.4 59.84Q126.47 60.4 126.35 61.04Q126.33 61.12 126.31 61.2Q126.17 61.75 125.86 62.25Q125.67 62.55 125.41 62.77Q125.18 62.96 124.88 63.08Q124.42 63.24 123.91 63.31Q123.47 63.36 122.92 63.35Q122.36 63.34 121.78 63.08Q121.71 61.33 121.68 60.37Q121.65 59.41 121.62 58.95ZM122.99 69.85Q122.34 69.71 121.48 69.27L121.58 65.21Q122.8 64.75 123.64 64.81Q124.49 64.88 125.04 65.14Q125.37 65.3 125.64 65.52Q125.89 65.72 126.1 65.97Q126.59 66.71 126.63 67.32Q126.68 67.93 126.47 68.42Q126.46 68.42 126.46 68.43Q126.38 68.61 126.27 68.78Q126.08 69.06 125.81 69.28Q125.39 69.64 124.95 69.85Q124.58 69.99 124.07 69.99Q123.63 69.99 122.99 69.85Z" fill="#FFE9DF" fill-opacity="1.000000" fill-rule="evenodd"/>
</svg>
