<svg width="266.395416" height="74.965576" viewBox="0 0 266.395 74.9656" fill="none" xmlns="http://www.w3.org/2000/svg" xmlns:xlink="http://www.w3.org/1999/xlink">
	<desc>
			Created with Pixso.
	</desc>
	<defs>
		<filter id="filter_19_66_dd" x="0.000000" y="0.000000" width="266.395416" height="42.837158" filterUnits="userSpaceOnUse" color-interpolation-filters="sRGB">
			<feFlood flood-opacity="0" result="BackgroundImageFix"/>
			<feBlend mode="normal" in="SourceGraphic" in2="BackgroundImageFix" result="shape"/>
			<feGaussianBlur stdDeviation="3.12356" result="effect_layerBlur_1"/>
		</filter>
		<filter id="filter_19_67_dd" x="17.402679" y="13.386719" width="234.267334" height="17.402832" filterUnits="userSpaceOnUse" color-interpolation-filters="sRGB">
			<feFlood flood-opacity="0" result="BackgroundImageFix"/>
			<feBlend mode="normal" in="SourceGraphic" in2="BackgroundImageFix" result="shape"/>
			<feGaussianBlur stdDeviation="2.23112" result="effect_layerBlur_1"/>
		</filter>
		<linearGradient x1="132.528381" y1="74.965523" x2="132.528381" y2="21.418701" id="paint_linear_19_63_0" gradientUnits="userSpaceOnUse">
			<stop stop-color="#FF0845"/>
			<stop offset="1.000000" stop-color="#FF4040"/>
		</linearGradient>
		<linearGradient x1="132.528336" y1="73.626801" x2="132.528336" y2="22.757320" id="paint_linear_19_64_0" gradientUnits="userSpaceOnUse">
			<stop stop-color="#FF0845"/>
			<stop offset="1.000000" stop-color="#FFB099"/>
		</linearGradient>
		<linearGradient x1="134.355652" y1="22.757324" x2="134.355652" y2="73.626801" id="paint_linear_19_64_1" gradientUnits="userSpaceOnUse">
			<stop stop-color="#FFFFFF"/>
			<stop offset="1.000000" stop-color="#FFFFFF" stop-opacity="0.329412"/>
		</linearGradient>
		<linearGradient x1="133.197739" y1="9.370605" x2="133.197739" y2="33.466675" id="paint_linear_19_66_0" gradientUnits="userSpaceOnUse">
			<stop stop-color="#FFFFFF"/>
			<stop offset="1.000000" stop-color="#C4C4C4" stop-opacity="0.000000"/>
			<stop offset="1.000000" stop-color="#FFFFFF" stop-opacity="0.760784"/>
		</linearGradient>
	</defs>
	<g style="mix-blend-mode:normal">
		<path d="M21.56 21.41L243.49 21.41L255.68 34.8L255.68 61.57L243.49 74.96L21.56 74.96L9.37 61.57L9.37 34.8L21.56 21.41Z" fill="url(#paint_linear_19_63_0)" fill-opacity="1.000000" fill-rule="evenodd"/>
	</g>
	<g opacity="0.600000" style="mix-blend-mode:soft-light">
		<path d="M22.22 22.75L242.96 22.75L254.34 35.35L254.34 60.9L242.96 73.62L21.67 73.62L10.7 60.9L10.7 35.47L22.22 22.75Z" fill="url(#paint_linear_19_64_0)" fill-opacity="1.000000" fill-rule="nonzero"/>
		<path d="M242.36 24.09L253 35.87L253 60.39L242.37 72.28L22.28 72.28L12.04 60.41L12.04 35.99L22.81 24.09L242.36 24.09ZM242.96 22.75L22.22 22.75L10.7 35.47L10.7 60.9L21.67 73.62L242.96 73.62L254.34 60.9L254.34 35.35L242.96 22.75Z" fill="url(#paint_linear_19_64_1)" fill-opacity="1.000000" fill-rule="evenodd"/>
	</g>
	<g opacity="0.200000" filter="url(#filter_19_66_dd)">
		<ellipse cx="133.197723" cy="21.418701" rx="123.827026" ry="12.048035" fill="url(#paint_linear_19_66_0)" fill-opacity="1.000000"/>
	</g>
	<g opacity="0.700000" filter="url(#filter_19_67_dd)" style="mix-blend-mode:screen">
		<ellipse cx="134.536346" cy="22.088135" rx="110.440323" ry="2.008006" fill="#FFFFFF" fill-opacity="1.000000"/>
	</g>
	<path d="M157.3 42.23Q156.33 41.92 155.38 41.89Q154.09 41.85 153.12 42.19Q152.14 42.54 151.42 43.14Q150.95 43.54 150.59 44.01Q150.4 44.27 150.24 44.55Q149.77 45.35 149.52 46.2Q149.26 47.05 149.18 47.91Q149.1 48.76 149.19 49.46Q149.22 49.78 149.3 50.09Q149.42 50.6 149.66 51.08Q149.8 51.38 149.98 51.67Q150.25 52.11 150.6 52.51Q150.94 52.92 151.34 53.26Q151.58 53.48 151.85 53.68Q152.55 54.19 153.28 54.52Q154.01 54.84 154.72 54.95Q155.43 55.07 156.03 54.93Q157.01 54.7 158 53.99Q158.04 53.96 158.08 53.93Q159.01 53.23 159.74 52.26Q159.94 51.98 160.12 51.69Q160.61 50.91 160.92 50.02Q161.21 49.2 161.25 48.36Q161.27 47.96 161.23 47.55Q161.09 46.02 160.51 44.95Q159.93 43.89 159.1 43.21Q158.45 42.67 157.69 42.37Q157.5 42.29 157.3 42.23ZM163.4 42.89Q162.93 42.85 162.35 42.78Q162.67 43.08 162.91 43.32L163.3 43.71Q163.49 43.91 163.62 44.05Q163.78 44.35 164.13 45.61Q164.29 46.16 164.49 46.97Q164.69 47.77 164.97 48.93Q165.25 50.09 165.61 51.63Q165.97 53.17 166.43 55.17L169.54 55.17Q169.58 54.98 169.6 54.75Q169.63 54.52 169.65 54.33Q169.66 54.1 169.68 53.86Q169.7 53.57 169.81 52.96Q169.89 52.45 170.07 51.53Q170.24 50.6 170.54 49.11L171.84 54.58L174.89 54.89Q175.25 53.03 175.55 51.58Q175.85 50.13 176.09 49.04Q176.33 47.95 176.5 47.17Q176.68 46.39 176.82 45.86Q177.14 44.63 177.28 44.28Q177.42 44.08 177.73 43.8Q178 43.57 178.47 43.24Q178.95 42.9 179.72 42.5Q178.82 42.54 178.25 42.54Q177.68 42.55 177.33 42.55L175.99 42.55Q175.59 42.55 174.91 42.54Q174.23 42.54 173.16 42.5Q173.67 42.82 173.94 43.15Q174.2 43.48 174.32 43.77Q174.43 44.01 174.47 44.26Q174.48 44.34 174.48 44.42Q174.45 44.72 174.25 45.59Q174.16 45.96 174.03 46.51Q173.9 47.05 173.72 47.81Q173.53 48.56 173.28 49.55Q173.02 50.53 172.71 51.78Q172.39 50.76 172.2 49.94Q172 49.13 171.88 48.56Q171.74 47.9 171.67 47.39Q171.6 46.82 171.53 46.05Q171.46 45.38 171.36 44.43Q171.26 43.48 171.18 42.24L170.54 42.15Q170.21 43.75 169.98 44.84Q169.75 45.93 169.61 46.61Q169.44 47.42 169.31 47.93Q169.19 48.42 169.01 49.06Q168.86 49.62 168.63 50.4Q168.4 51.18 168.05 52.19Q167.78 50.87 167.58 49.83Q167.38 48.79 167.25 47.99Q167.12 47.19 167.04 46.6Q166.96 46.02 166.92 45.61Q166.83 44.64 166.89 44.31Q166.97 44.06 167.17 43.82Q167.33 43.61 167.62 43.34Q167.91 43.08 168.36 42.82Q167.41 42.9 166.76 42.94Q166.11 42.98 165.69 42.99Q165.2 43.01 164.88 43.01Q164.58 42.99 164.2 42.96Q163.86 42.92 163.4 42.89ZM90.27 42.78Q89.76 42.71 89.2 42.57Q89.55 42.92 89.8 43.31Q90.06 43.7 90.2 44.03Q90.37 44.42 90.48 44.79Q90.55 45.12 90.59 45.87Q90.64 46.61 90.66 47.57Q90.69 48.53 90.68 49.56Q90.67 50.59 90.66 51.47Q90.64 52.36 90.6 52.99Q90.57 53.63 90.52 53.77Q90.45 53.93 90.36 54.1Q90.27 54.24 90.14 54.43Q90.01 54.61 89.81 54.75Q90.8 54.7 91.54 54.66Q92.27 54.61 92.77 54.58Q93.35 54.54 93.75 54.51Q94.24 54.47 94.79 54.5Q95.33 54.52 95.85 54.55Q96.37 54.58 96.83 54.58Q97.28 54.58 97.6 54.51Q97.92 54.44 98.3 54.31Q98.69 54.19 99.06 53.87Q99.43 53.56 99.72 52.98Q100.01 52.4 100.11 51.41Q100.13 50.66 99.87 50.04Q99.76 49.78 99.58 49.51Q99.39 49.25 99.1 49.03Q98.81 48.81 98.42 48.64Q98.02 48.48 97.48 48.41Q98.57 48.13 99.15 47.59Q99.73 47.05 99.97 46.54Q100.08 46.33 100.15 46.1Q100.28 45.7 100.29 45.26Q100.26 44.81 100.07 44.43Q100.04 44.36 99.99 44.28Q99.92 44.17 99.84 44.06Q99.62 43.77 99.32 43.53Q99.27 43.49 99.21 43.44Q98.85 43.17 98.43 42.98Q97.95 42.76 97.49 42.66Q97.04 42.54 96.31 42.56Q95.58 42.59 94.79 42.67Q94 42.75 93.25 42.83Q92.5 42.92 92.01 42.92Q91.62 42.94 91.17 42.89Q90.78 42.85 90.27 42.78ZM114.64 42.76Q114.06 42.73 113.31 42.66Q113.87 43.06 114.27 43.34Q114.66 43.61 114.91 43.8Q115.21 44.01 115.38 44.15Q115.57 44.35 116.01 44.93Q116.38 45.44 117.05 46.41Q117.72 47.39 118.77 49.07Q118.86 50.23 118.89 50.99Q118.91 51.75 118.88 52.2Q118.84 52.73 118.77 53.01Q118.69 53.26 118.49 53.54Q118.33 53.79 118.05 54.08Q117.77 54.38 117.33 54.68Q118.18 54.58 118.81 54.52Q119.44 54.47 119.9 54.44Q120.43 54.4 120.81 54.4Q121.18 54.4 121.64 54.45Q122.03 54.49 122.53 54.56Q123.03 54.63 123.61 54.77Q123.06 54.37 122.74 54.03Q122.41 53.7 122.24 53.45Q122.03 53.17 121.94 52.96Q121.87 52.7 121.87 52.17Q121.87 51.71 121.91 50.92Q121.96 50.13 122.11 48.85Q123.26 47.63 124.01 46.87Q124.77 46.1 125.22 45.65Q125.75 45.12 126.05 44.87Q126.31 44.64 126.72 44.35Q127.07 44.1 127.57 43.74Q128.07 43.38 128.76 42.92Q127.76 42.96 127.09 42.97Q126.42 42.98 126.02 42.98L124.63 42.98Q123.96 42.98 122.52 42.92Q122.96 43.27 123.2 43.55Q123.45 43.82 123.56 44.01Q123.68 44.24 123.7 44.42Q123.7 44.56 123.51 44.86Q123.33 45.17 123.04 45.54Q122.75 45.91 122.38 46.3Q122.01 46.68 121.63 47.02Q121.25 47.35 120.9 47.57Q120.55 47.79 120.3 47.81Q120.06 47.83 119.79 47.6Q119.53 47.37 119.27 47.01Q119.02 46.65 118.79 46.19Q118.56 45.73 118.4 45.32Q118.25 44.91 118.16 44.57Q118.07 44.24 118.09 44.1Q118.12 43.94 118.3 43.75Q118.44 43.59 118.71 43.38Q118.98 43.17 119.49 42.92L118.12 42.92Q117.54 42.92 117.16 42.9Q116.7 42.9 116.38 42.89Q116.07 42.87 115.61 42.83Q115.22 42.8 114.64 42.76ZM136.41 42.87Q135.9 42.82 135.11 42.68Q135.52 43.03 135.75 43.32Q135.97 43.61 136.12 43.84Q136.27 44.1 136.33 44.33Q136.34 44.47 136.39 45.07Q136.43 45.66 136.47 46.51Q136.5 47.35 136.53 48.34Q136.56 49.32 136.56 50.21Q136.57 51.1 136.56 51.79Q136.54 52.48 136.48 52.77Q136.41 53.03 136.24 53.38Q136.1 53.68 135.84 54.11Q135.59 54.54 135.17 55.05Q136.06 54.93 136.67 54.86Q137.28 54.79 137.63 54.75Q138.05 54.7 138.3 54.7L138.82 54.7Q139.33 54.7 140.37 54.75Q140.07 53.98 139.87 53.36Q139.67 52.75 139.53 52.29Q139.37 51.76 139.28 51.34Q139.21 50.9 139.16 50.25Q139.12 49.69 139.11 48.84Q139.1 47.98 139.16 46.77Q139.7 47.63 140.1 48.3Q140.49 48.97 140.76 49.43Q141.07 49.97 141.27 50.39Q141.49 50.83 141.83 51.48Q142.13 52.05 142.59 52.92Q143.06 53.79 143.74 55L145.31 54.96Q145.36 54.23 145.4 53.5Q145.43 52.77 145.47 52.19Q145.5 51.5 145.5 50.9Q145.54 50.11 145.57 49.16Q145.61 48.21 145.65 47.33Q145.7 46.46 145.74 45.74Q145.78 45.03 145.85 44.72Q145.91 44.47 146.06 44.19Q146.21 43.94 146.43 43.63Q146.66 43.31 147.05 42.96Q146.38 43.01 145.93 43.04Q145.48 43.06 145.19 43.1Q144.85 43.13 144.62 43.13Q144.45 43.15 144.13 43.15L143.39 43.15Q142.94 43.15 142.22 43.13Q142.65 43.73 142.9 44.2Q143.15 44.66 143.29 45Q143.45 45.38 143.5 45.68Q143.53 45.93 143.53 46.42Q143.53 46.91 143.52 47.5Q143.52 48.09 143.49 48.71Q143.46 49.34 143.45 49.86Q143.43 50.38 143.41 50.72Q143.39 51.06 143.39 51.08Q143.39 51.08 143.39 51.08Q143.38 51.08 143.23 50.69Q143.08 50.27 142.84 49.62Q142.6 48.97 142.32 48.23Q142.04 47.49 141.79 46.88Q141.58 46.39 141.34 45.77Q141.13 45.26 140.82 44.54Q140.51 43.82 140.14 42.96Q139.49 42.96 139.06 42.97Q138.63 42.98 138.35 42.98L137.82 42.98Q137.61 42.99 137.24 42.96Q136.92 42.92 136.41 42.87ZM103.56 42.94Q103.19 42.89 102.66 42.78Q102.9 42.98 103.04 43.19Q103.17 43.41 103.22 43.61Q103.24 43.66 103.25 43.71Q103.29 43.87 103.29 44.05Q103.27 44.5 103.25 45.39Q103.22 46.28 103.25 47.37Q103.27 48.46 103.39 49.63Q103.5 50.8 103.76 51.81Q104.01 52.82 104.46 53.56Q104.84 54.18 105.39 54.43Q105.49 54.47 105.59 54.51Q106.26 54.7 106.99 54.83Q107.72 54.96 108.48 54.95Q108.76 54.95 109.04 54.92Q109.51 54.88 109.97 54.76Q110.02 54.75 110.07 54.73Q110.76 54.55 111.38 54.14Q111.83 53.84 112.12 53.05Q112.41 52.26 112.6 51.24Q112.78 50.22 112.87 49.08Q112.96 47.95 113 46.97Q113.05 46 113.07 45.3Q113.1 44.61 113.15 44.47Q113.21 44.31 113.33 44.15Q113.43 44.01 113.62 43.89Q113.8 43.77 114.1 43.7Q113.33 43.63 112.77 43.59Q112.22 43.56 111.87 43.52Q111.45 43.48 111.17 43.47Q110.89 43.45 110.53 43.43Q110.23 43.41 109.8 43.41Q109.36 43.4 108.81 43.38Q109.11 43.68 109.34 43.93Q109.57 44.19 109.71 44.38Q109.88 44.61 109.99 44.79Q110.08 44.94 110.18 45.59Q110.29 46.24 110.33 47.13Q110.38 48.02 110.31 49.03Q110.25 50.04 110.02 50.92Q109.78 51.8 109.32 52.41Q109.07 52.75 108.74 52.93Q108.46 53.09 108.13 53.14Q107.77 53.19 107.48 53.08Q107.31 53.01 107.17 52.89Q106.77 52.56 106.5 51.96Q106.23 51.36 106.07 50.56Q105.91 49.76 105.83 48.9Q105.75 48.04 105.73 47.2Q105.72 46.37 105.74 45.69Q105.77 45.01 105.81 44.57Q105.84 44.12 105.88 44.05Q105.91 43.94 106.07 43.78Q106.19 43.64 106.44 43.45Q106.68 43.26 107.09 42.98Q106.39 43.01 105.93 43.02Q105.47 43.03 105.17 43.05Q104.84 43.06 104.64 43.06Q104.45 43.06 104.17 43.03L103.56 42.94ZM152.59 52.03Q151.98 50.89 152.23 49Q152.35 48.07 152.61 47.11Q152.86 46.14 153.28 45.37Q153.71 44.59 154.32 44.11Q154.56 43.92 154.83 43.81Q155.26 43.65 155.76 43.68Q155.77 43.68 155.78 43.68Q156.25 43.72 156.69 44.05Q157.14 44.38 157.45 44.99Q157.77 45.59 157.9 46.45Q158.03 47.3 157.87 48.35Q157.72 49.41 157.38 50.38Q157.05 51.34 156.59 52.06Q156.13 52.78 155.58 53.16Q155.22 53.41 154.84 53.44Q154.64 53.46 154.43 53.42Q153.86 53.3 153.43 53Q152.92 52.65 152.59 52.03ZM92.92 44.84Q92.91 44.43 92.91 44.36Q93.8 44.12 94.44 44.18Q95.09 44.24 95.51 44.4Q96 44.59 96.33 44.89Q96.51 45.08 96.56 45.52Q96.62 45.95 96.52 46.43Q96.51 46.49 96.49 46.55Q96.39 46.97 96.15 47.35Q96.01 47.58 95.81 47.74Q95.63 47.89 95.4 47.98Q95.05 48.11 94.66 48.16Q94.33 48.2 93.91 48.19Q93.49 48.18 93.05 47.98Q92.99 46.65 92.97 45.92Q92.94 45.19 92.92 44.84ZM93.96 53.14Q93.47 53.03 92.82 52.7L92.89 49.6Q93.82 49.25 94.46 49.3Q95.1 49.36 95.53 49.55Q95.77 49.67 95.98 49.84Q96.18 49.99 96.33 50.18Q96.7 50.74 96.74 51.21Q96.77 51.67 96.61 52.05Q96.61 52.05 96.61 52.05Q96.54 52.19 96.46 52.32Q96.32 52.53 96.11 52.7Q95.79 52.98 95.45 53.14Q95.17 53.24 94.79 53.24Q94.45 53.24 93.96 53.14Z" fill="#FFE9DF" fill-opacity="1.000000" fill-rule="evenodd"/>
</svg>
