<svg width="349.998260" height="98.491821" viewBox="0 0 349.998 98.4918" fill="none" xmlns="http://www.w3.org/2000/svg" xmlns:xlink="http://www.w3.org/1999/xlink">
	<desc>
			Created with Pixso.
	</desc>
	<defs>
		<filter id="filter_19_141_dd" x="0.000000" y="0.000000" width="349.998260" height="56.281128" filterUnits="userSpaceOnUse" color-interpolation-filters="sRGB">
			<feFlood flood-opacity="0" result="BackgroundImageFix"/>
			<feBlend mode="normal" in="SourceGraphic" in2="BackgroundImageFix" result="shape"/>
			<feGaussianBlur stdDeviation="4.10383" result="effect_layerBlur_1"/>
		</filter>
		<filter id="filter_19_142_dd" x="22.864258" y="17.587769" width="307.787445" height="22.864258" filterUnits="userSpaceOnUse" color-interpolation-filters="sRGB">
			<feFlood flood-opacity="0" result="BackgroundImageFix"/>
			<feBlend mode="normal" in="SourceGraphic" in2="BackgroundImageFix" result="shape"/>
			<feGaussianBlur stdDeviation="2.93131" result="effect_layerBlur_1"/>
		</filter>
		<linearGradient x1="174.119720" y1="98.491791" x2="174.119720" y2="28.140381" id="paint_linear_19_138_0" gradientUnits="userSpaceOnUse">
			<stop stop-color="#FF0845"/>
			<stop offset="1.000000" stop-color="#FF4040"/>
		</linearGradient>
		<linearGradient x1="174.119736" y1="96.733253" x2="174.119736" y2="29.899414" id="paint_linear_19_139_0" gradientUnits="userSpaceOnUse">
			<stop stop-color="#FF0845"/>
			<stop offset="1.000000" stop-color="#FFB099"/>
		</linearGradient>
		<linearGradient x1="176.520493" y1="29.899414" x2="176.520493" y2="96.733253" id="paint_linear_19_139_1" gradientUnits="userSpaceOnUse">
			<stop stop-color="#FFFFFF"/>
			<stop offset="1.000000" stop-color="#FFFFFF" stop-opacity="0.329412"/>
		</linearGradient>
		<linearGradient x1="174.999100" y1="12.311523" x2="174.999100" y2="43.969658" id="paint_linear_19_141_0" gradientUnits="userSpaceOnUse">
			<stop stop-color="#FFFFFF"/>
			<stop offset="1.000000" stop-color="#C4C4C4" stop-opacity="0.000000"/>
			<stop offset="1.000000" stop-color="#FFFFFF" stop-opacity="0.760784"/>
		</linearGradient>
	</defs>
	<g style="mix-blend-mode:normal">
		<path d="M319.32 29.45L334.61 46.23L334.61 80.39L319.32 97.17L28.91 97.17L13.62 80.39L13.62 46.23L28.91 29.45L319.32 29.45ZM319.9 28.14L28.33 28.14L12.31 45.72L12.31 80.9L28.33 98.49L319.9 98.49L335.92 80.9L335.92 45.72L319.9 28.14Z" fill="url(#paint_linear_19_138_0)" fill-opacity="1.000000" fill-rule="evenodd"/>
	</g>
	<g opacity="0.600000" style="mix-blend-mode:soft-light">
		<path d="M29.19 29.89L319.2 29.89L334.16 46.45L334.16 80.02L319.22 96.73L28.47 96.73L14.07 80.02L14.07 46.6L29.19 29.89Z" fill="url(#paint_linear_19_139_0)" fill-opacity="1.000000" fill-rule="nonzero"/>
		<path d="M318.42 31.65L332.41 47.13L332.41 79.35L318.43 94.97L29.28 94.97L15.82 79.37L15.82 47.28L29.97 31.65L318.42 31.65ZM319.2 29.89L29.19 29.89L14.07 46.6L14.07 80.02L28.47 96.73L319.22 96.73L334.16 80.02L334.16 46.45L319.2 29.89Z" fill="url(#paint_linear_19_139_1)" fill-opacity="1.000000" fill-rule="evenodd"/>
	</g>
	<g opacity="0.200000" filter="url(#filter_19_141_dd)">
		<ellipse cx="174.999115" cy="28.140625" rx="162.687637" ry="15.829067" fill="url(#paint_linear_19_141_0)" fill-opacity="1.000000"/>
	</g>
	<g opacity="0.700000" filter="url(#filter_19_142_dd)" style="mix-blend-mode:screen">
		<ellipse cx="176.757965" cy="29.019897" rx="145.099792" ry="2.638178" fill="#FFFFFF" fill-opacity="1.000000"/>
	</g>
	<path d="M201.18 55.52Q199.9 55.11 198.65 55.07Q196.97 55.02 195.69 55.47Q194.4 55.92 193.46 56.72Q192.84 57.24 192.37 57.86Q192.11 58.2 191.9 58.57Q191.29 59.62 190.95 60.74Q190.62 61.86 190.51 62.98Q190.41 64.1 190.52 65.02Q190.57 65.44 190.67 65.85Q190.83 66.52 191.14 67.15Q191.33 67.55 191.57 67.93Q191.92 68.51 192.37 69.03Q192.82 69.56 193.34 70.02Q193.67 70.31 194.02 70.57Q194.93 71.23 195.89 71.66Q196.85 72.09 197.79 72.24Q198.72 72.39 199.51 72.2Q200.8 71.9 202.09 70.97Q202.15 70.93 202.2 70.89Q203.43 69.98 204.38 68.69Q204.65 68.33 204.89 67.95Q205.53 66.92 205.94 65.75Q206.32 64.67 206.37 63.58Q206.4 63.04 206.34 62.51Q206.16 60.5 205.4 59.1Q204.63 57.7 203.55 56.81Q202.68 56.1 201.69 55.7Q201.44 55.6 201.18 55.52ZM166.16 57.89Q165.59 57.77 164.85 57.54Q164.85 57.22 164.86 57.02Q164.88 56.82 164.9 56.69Q164.92 56.55 164.92 56.43Q164.94 56.29 165.04 56.13Q165.11 55.99 165.21 55.81Q165.31 55.62 165.5 55.39L162.5 55.35Q162.57 55.53 162.61 55.7Q162.66 55.88 162.7 56.04Q162.75 56.22 162.75 56.39L162.8 56.71Q162.82 56.85 162.84 57.02Q162.87 57.19 162.91 57.38Q162.29 57.38 161.85 57.41Q161.41 57.45 161.13 57.49Q160.81 57.56 160.6 57.63Q160.16 57.79 159.88 57.98Q159.59 58.16 159.34 58.44Q159.1 58.72 158.89 59.12Q158.69 59.53 158.41 60.08Q158.23 60.45 158.24 60.82Q158.24 61.02 158.31 61.22Q158.34 61.33 158.38 61.43Q158.54 61.88 158.84 62.29Q159.18 62.76 159.61 63.14Q159.63 63.16 159.64 63.17Q160.1 63.57 160.39 63.78Q160.63 63.96 161.04 64.08Q161.37 64.19 161.91 64.28Q162.45 64.38 163.19 64.42L163.31 68.39Q163.02 68.47 162.76 68.43Q162.64 68.41 162.52 68.36Q162.15 68.21 161.9 68Q161.57 67.75 161.32 67.4Q161.11 67.12 160.86 66.78Q160.63 66.5 160.34 66.12Q160.05 65.74 159.68 65.3Q159.66 65.97 159.67 66.52Q159.68 67.08 159.7 67.47Q159.73 67.93 159.73 68.33Q159.75 68.69 159.79 69.09Q159.84 69.43 159.88 69.85Q159.91 70.26 160 70.7Q160.14 70.52 160.36 70.37Q160.58 70.22 160.76 70.13L161.23 69.94Q161.48 69.87 161.85 69.87Q162.17 69.87 162.6 69.92Q163.03 69.96 163.63 70.1Q163.63 70.59 163.62 70.88Q163.61 71.17 163.61 71.35Q163.58 71.56 163.58 71.65Q163.58 71.74 163.51 71.84Q163.47 71.93 163.37 72.05Q163.28 72.18 163.14 72.32L165.8 72.3Q165.73 72.11 165.68 71.96Q165.64 71.81 165.59 71.7Q165.55 71.58 165.52 71.47Q165.5 71.35 165.48 71.17Q165.43 70.84 165.41 70.22Q165.98 70.33 166.52 70.37Q167.05 70.4 167.44 70.38Q167.9 70.36 168.32 70.31Q168.39 70.3 168.46 70.28Q168.89 70.17 169.26 69.86L169.27 69.86Q169.7 69.5 170.04 69.02Q170.37 68.53 170.58 68.01Q170.79 67.49 170.81 67.08Q170.87 66.41 170.63 65.88Q170.57 65.75 170.49 65.62Q170.1 65 169.36 64.1Q169.01 63.75 168.41 63.45Q167.88 63.2 167 62.94Q166.12 62.69 164.78 62.55L164.81 59.3Q164.92 59.25 165.14 59.28Q165.36 59.32 165.55 59.36Q165.78 59.43 166.01 59.53Q166.47 59.76 166.98 60.2Q167.42 60.59 167.94 61.22Q168.46 61.86 168.99 62.9Q169.13 61.97 169.21 61.39Q169.29 60.8 169.33 60.47Q169.4 60.08 169.43 59.9Q169.45 59.71 169.52 59.36Q169.56 59.06 169.68 58.56Q169.79 58.05 169.98 57.26Q169.68 57.56 169.33 57.72Q168.99 57.89 168.69 57.98Q168.34 58.07 167.99 58.09Q167.6 58.12 167.14 58.05Q166.72 58 166.16 57.89ZM245.62 55.68Q244.97 55.42 244.16 55.42Q243.84 55.42 243.53 55.46Q242.83 55.57 242.16 55.93Q241.2 56.45 240.39 57.3Q239.58 58.14 238.91 59.2Q238.24 60.27 237.77 61.37Q237.3 62.48 237.02 63.53Q236.74 64.58 236.7 65.37Q236.63 66.55 237.14 67.77Q237.22 67.98 237.32 68.19Q237.8 69.17 238.56 70.02Q239.47 71.05 240.74 71.77Q241.34 72.11 241.99 72.32Q242.7 72.56 243.46 72.64Q244.62 72.67 245.91 72.25Q247.02 71.88 248.42 70.98Q249.82 70.08 251.29 68.28L247.88 67.66Q247.44 68.83 246.84 69.47Q246.24 70.1 245.66 70.4Q245 70.77 244.31 70.82L244.3 70.82Q243.9 70.83 243.55 70.7Q243.36 70.63 243.19 70.51Q242.7 70.17 242.32 69.63Q241.94 69.09 241.69 68.39Q241.43 67.7 241.27 66.97Q241.11 66.25 241.06 65.54Q241.02 64.84 241.09 64.31Q241.15 63.71 241.39 63Q241.62 62.3 241.97 61.6Q242.18 61.2 242.42 60.81Q242.6 60.54 242.78 60.28Q243.23 59.64 243.73 59.18Q244.23 58.72 244.73 58.48Q245.13 58.29 245.52 58.29Q245.64 58.29 245.75 58.3Q245.78 58.31 245.81 58.32Q246.33 58.47 246.74 58.97Q247.11 59.43 247.42 60.31Q247.74 61.19 247.74 62.78Q248.41 61.54 248.85 60.76Q249.28 59.99 249.54 59.53L249.95 58.76Q250.09 58.56 250.39 58.19Q250.65 57.86 251.12 57.37Q251.59 56.87 252.36 56.13Q251.59 56.52 250.98 56.72Q250.37 56.92 249.91 57.01Q249.38 57.1 248.96 57.12Q248.87 57.12 248.78 57.12Q248.34 57.08 247.92 56.86Q247.41 56.59 246.85 56.27Q246.28 55.95 245.62 55.68ZM188.08 56.87Q188.33 56.32 188.66 55.58Q188.06 55.95 187.42 56.12Q186.79 56.29 186.26 56.34Q185.9 56.38 185.54 56.38Q185.3 56.38 185.06 56.36Q184.92 56.34 184.35 56.26Q183.79 56.18 182.98 56.08Q182.17 55.99 181.16 55.92Q180.16 55.85 179.13 55.89Q178.1 55.92 177.12 56.11Q176.14 56.29 175.34 56.67Q174.64 57.01 174.16 57.54Q174.09 57.61 174.03 57.69Q173.98 57.74 173.94 57.8Q173.5 58.41 173.42 59.27Q173.31 60.26 173.7 61Q173.74 61.08 173.8 61.17Q174.29 61.95 175.14 62.53Q175.98 63.11 177.03 63.5Q178.08 63.89 179.09 64.19Q180.09 64.49 180.91 64.75Q181.73 65 182.12 65.28Q182.56 65.62 182.88 66.14Q183.07 66.44 183.2 66.76Q183.29 67 183.36 67.25Q183.45 67.6 183.47 67.95Q183.48 68.19 183.46 68.44Q183.42 68.92 183.25 69.34Q183.2 69.45 183.15 69.55Q183.08 69.68 182.99 69.81Q182.75 70.15 182.38 70.39Q181.87 70.73 181.06 70.8Q180.82 70.81 180.58 70.78Q180.19 70.73 179.81 70.54Q179.21 70.24 178.76 69.79Q178.31 69.34 178.06 68.86Q177.8 68.37 177.85 68.05Q177.92 67.75 178.1 67.4Q178.27 67.1 178.58 66.71Q178.89 66.32 179.47 65.85L172.75 66.94Q172.93 67.01 173.12 67.09Q173.3 67.17 173.46 67.26Q173.65 67.36 173.83 67.47Q173.99 67.56 174.06 68.01Q174.13 68.46 174.32 69.08Q174.5 69.69 174.91 70.36Q175.31 71.03 176.15 71.58Q177 72.14 178.36 72.46Q179.72 72.78 181.85 72.69Q183.9 72.6 185.07 72.2Q186.23 71.81 186.79 71.14Q186.92 70.98 187.03 70.8Q187.36 70.24 187.43 69.53Q187.53 68.58 187.46 67.4Q187.45 67.27 187.43 67.15Q187.29 66.36 186.71 65.66Q186.03 64.84 185.04 64.13Q184.06 63.43 182.91 62.84Q181.75 62.25 180.75 61.78Q179.74 61.3 179.04 60.93Q178.33 60.57 178.22 60.29Q178.08 59.99 178.1 59.54Q178.1 59.52 178.11 59.5Q178.14 59.07 178.45 58.66Q178.77 58.23 179.48 57.9Q180.18 57.56 181.43 57.49Q181.79 57.51 182.13 57.59Q182.7 57.71 183.23 58Q183.6 58.21 183.98 58.52Q184.36 58.83 184.71 59.32Q185.06 59.8 185.36 60.45Q185.66 61.1 185.86 61.95Q186.28 60.96 186.54 60.32Q186.81 59.69 187 59.3Q187.18 58.86 187.3 58.6Q187.43 58.26 187.64 57.82Q187.83 57.42 188.08 56.87ZM98.87 56.25Q98.2 56.15 97.46 55.97Q97.92 56.43 98.26 56.94Q98.59 57.45 98.78 57.89Q99.01 58.39 99.15 58.88Q99.24 59.32 99.3 60.3Q99.35 61.28 99.39 62.54Q99.42 63.8 99.41 65.15Q99.4 66.5 99.38 67.67Q99.35 68.83 99.31 69.66Q99.26 70.5 99.19 70.68Q99.1 70.89 98.98 71.12Q98.87 71.3 98.69 71.55Q98.52 71.79 98.27 71.97Q99.56 71.9 100.53 71.85Q101.5 71.79 102.15 71.74Q102.91 71.7 103.44 71.65Q104.09 71.6 104.8 71.64Q105.52 71.67 106.2 71.71Q106.88 71.74 107.48 71.74Q108.08 71.74 108.5 71.65Q108.91 71.56 109.42 71.4Q109.93 71.23 110.42 70.82Q110.9 70.4 111.28 69.64Q111.66 68.88 111.8 67.59Q111.82 66.59 111.48 65.78Q111.34 65.44 111.1 65.09Q110.85 64.75 110.47 64.46Q110.09 64.17 109.57 63.95Q109.05 63.73 108.34 63.64Q109.77 63.27 110.53 62.56Q111.29 61.86 111.62 61.19Q111.76 60.9 111.85 60.6Q112.02 60.08 112.03 59.5Q111.99 58.91 111.75 58.42Q111.7 58.32 111.64 58.22Q111.55 58.07 111.44 57.93Q111.15 57.54 110.76 57.23Q110.69 57.17 110.62 57.12Q110.15 56.76 109.6 56.51Q108.96 56.22 108.36 56.08Q107.76 55.92 106.8 55.96Q105.84 55.99 104.8 56.1Q103.76 56.2 102.78 56.32Q101.8 56.43 101.15 56.43Q100.65 56.45 100.05 56.39Q99.54 56.34 98.87 56.25ZM130.89 56.22Q130.13 56.18 129.14 56.08Q129.87 56.62 130.39 56.97Q130.91 57.33 131.24 57.59Q131.63 57.86 131.86 58.05Q132.11 58.3 132.69 59.06Q133.18 59.73 134.05 61.02Q134.93 62.3 136.32 64.51Q136.43 66.04 136.47 67.03Q136.5 68.02 136.46 68.63Q136.41 69.32 136.32 69.69Q136.2 70.01 135.95 70.38Q135.74 70.7 135.37 71.1Q135 71.49 134.42 71.88Q135.53 71.74 136.36 71.67Q137.2 71.6 137.8 71.56Q138.49 71.51 139 71.51Q139.48 71.51 140.08 71.58Q140.59 71.63 141.25 71.72Q141.91 71.81 142.67 72Q141.95 71.47 141.53 71.03Q141.1 70.59 140.87 70.26Q140.59 69.9 140.47 69.62Q140.38 69.27 140.38 68.58Q140.38 67.98 140.44 66.94Q140.5 65.9 140.71 64.21Q142.21 62.62 143.2 61.62Q144.19 60.61 144.79 60.01Q145.49 59.32 145.88 58.99Q146.23 58.69 146.76 58.3Q147.22 57.98 147.88 57.51Q148.53 57.03 149.44 56.43Q148.12 56.48 147.24 56.49Q146.36 56.5 145.83 56.5L144.01 56.5Q143.13 56.5 141.24 56.43Q141.81 56.89 142.14 57.25Q142.46 57.61 142.6 57.86Q142.76 58.16 142.78 58.39Q142.78 58.58 142.54 58.98Q142.3 59.39 141.92 59.87Q141.54 60.36 141.05 60.87Q140.57 61.37 140.07 61.81Q139.57 62.25 139.11 62.54Q138.65 62.83 138.33 62.85Q138 62.87 137.66 62.57Q137.31 62.27 136.98 61.8Q136.64 61.33 136.34 60.73Q136.04 60.13 135.83 59.58Q135.63 59.04 135.51 58.6Q135.39 58.16 135.42 57.98Q135.46 57.77 135.69 57.52Q135.88 57.31 136.24 57.03Q136.59 56.75 137.26 56.43L135.46 56.43Q134.7 56.43 134.19 56.41Q133.59 56.41 133.18 56.39Q132.76 56.36 132.16 56.32Q131.65 56.27 130.89 56.22ZM210.84 56.36Q210.17 56.29 209.13 56.11Q209.66 56.57 209.96 56.95Q210.26 57.33 210.45 57.63Q210.66 57.98 210.73 58.28Q210.75 58.46 210.81 59.25Q210.86 60.03 210.91 61.14Q210.96 62.25 210.99 63.54Q211.03 64.84 211.04 66Q211.05 67.17 211.03 68.08Q211 68.99 210.93 69.36Q210.84 69.71 210.61 70.17Q210.43 70.57 210.09 71.13Q209.76 71.7 209.2 72.37Q210.38 72.2 211.18 72.11Q211.97 72.02 212.44 71.97Q212.99 71.9 213.31 71.9L214.01 71.9Q214.68 71.9 216.04 71.97Q215.65 70.96 215.38 70.15Q215.11 69.34 214.93 68.74Q214.72 68.05 214.61 67.49Q214.51 66.92 214.44 66.06Q214.4 65.32 214.39 64.2Q214.38 63.08 214.44 61.49Q215.16 62.62 215.68 63.5Q216.2 64.38 216.55 64.98Q216.96 65.69 217.22 66.25Q217.52 66.82 217.95 67.68Q218.35 68.42 218.96 69.56Q219.57 70.7 220.47 72.3L222.53 72.25Q222.6 71.28 222.64 70.32Q222.69 69.36 222.74 68.6Q222.78 67.7 222.78 66.92Q222.83 65.88 222.87 64.63Q222.92 63.38 222.98 62.23Q223.04 61.07 223.09 60.14Q223.15 59.2 223.24 58.79Q223.31 58.46 223.52 58.09Q223.71 57.77 224.01 57.36Q224.31 56.94 224.81 56.48Q223.94 56.55 223.35 56.58Q222.76 56.62 222.37 56.66Q221.93 56.71 221.63 56.71Q221.4 56.73 220.98 56.73L220.01 56.73Q219.41 56.73 218.46 56.71Q219.04 57.49 219.36 58.11Q219.69 58.72 219.87 59.16Q220.08 59.66 220.15 60.06Q220.2 60.38 220.2 61.03Q220.2 61.67 220.18 62.45Q220.17 63.22 220.14 64.04Q220.1 64.86 220.08 65.54Q220.06 66.22 220.03 66.67Q220.01 67.12 220.01 67.15Q220.01 67.15 220.01 67.15Q220 67.16 219.8 66.64Q219.59 66.08 219.28 65.23Q218.97 64.38 218.6 63.41Q218.23 62.44 217.91 61.63Q217.63 60.98 217.31 60.17Q217.03 59.5 216.63 58.56Q216.22 57.61 215.74 56.48Q214.88 56.48 214.32 56.49Q213.75 56.5 213.38 56.5L212.69 56.5Q212.41 56.52 211.93 56.48Q211.51 56.43 210.84 56.36ZM116.32 56.45Q115.84 56.39 115.15 56.25Q115.47 56.5 115.64 56.79Q115.81 57.08 115.88 57.33Q115.91 57.4 115.92 57.46Q115.98 57.68 115.98 57.91Q115.95 58.51 115.92 59.68Q115.88 60.84 115.92 62.27Q115.95 63.71 116.1 65.24Q116.25 66.78 116.59 68.11Q116.92 69.43 117.51 70.4Q118.01 71.22 118.73 71.55Q118.86 71.61 119 71.65Q119.88 71.9 120.84 72.08Q121.8 72.25 122.79 72.24Q123.16 72.24 123.53 72.2Q124.15 72.14 124.75 71.99Q124.82 71.97 124.89 71.95Q125.78 71.7 126.6 71.17Q127.2 70.77 127.58 69.73Q127.96 68.69 128.21 67.36Q128.45 66.02 128.56 64.53Q128.68 63.04 128.74 61.75Q128.79 60.47 128.83 59.56Q128.86 58.65 128.93 58.46Q129 58.26 129.16 58.05Q129.3 57.86 129.54 57.7Q129.79 57.54 130.18 57.45Q129.16 57.36 128.44 57.31Q127.71 57.26 127.25 57.22Q126.69 57.17 126.32 57.15Q125.95 57.12 125.49 57.1Q125.1 57.08 124.52 57.07Q123.94 57.05 123.23 57.03Q123.62 57.42 123.92 57.76Q124.22 58.09 124.41 58.35Q124.64 58.65 124.78 58.88Q124.89 59.09 125.03 59.94Q125.17 60.8 125.23 61.96Q125.28 63.13 125.2 64.46Q125.12 65.78 124.81 66.94Q124.5 68.09 123.9 68.9Q123.57 69.34 123.13 69.59Q122.77 69.79 122.33 69.85Q121.86 69.92 121.48 69.77Q121.26 69.69 121.07 69.53Q120.55 69.09 120.19 68.3Q119.83 67.52 119.63 66.47Q119.42 65.42 119.31 64.28Q119.21 63.15 119.19 62.05Q119.16 60.96 119.2 60.07Q119.23 59.18 119.28 58.59Q119.33 58 119.37 57.91Q119.42 57.77 119.63 57.56Q119.79 57.38 120.11 57.12Q120.43 56.87 120.97 56.5Q120.04 56.55 119.44 56.56Q118.84 56.57 118.45 56.59Q118.01 56.62 117.75 56.62Q117.5 56.62 117.13 56.57L116.32 56.45ZM228.65 56.7Q228.11 56.66 227.33 56.57Q227.83 57.1 228.15 57.53Q228.46 57.96 228.64 58.28Q228.85 58.65 228.92 58.95Q229.04 59.43 229.12 60.24Q229.2 61.05 229.24 62.04Q229.29 63.04 229.3 64.11Q229.31 65.18 229.29 66.21Q229.27 67.24 229.21 68.13Q229.15 69.02 229.06 69.62Q228.99 70.03 228.78 70.5Q228.6 70.89 228.3 71.42Q228 71.95 227.46 72.53Q228.5 72.44 229.24 72.39Q229.98 72.34 230.47 72.3Q231.04 72.25 231.41 72.25L232.25 72.25Q233.05 72.25 234.42 72.32Q234.32 72.27 234.23 72.21Q233.93 72 233.68 71.72Q233.35 71.35 233.12 71Q232.87 70.59 232.64 70.17Q232.48 69.8 232.37 68.97Q232.27 68.14 232.23 67.07Q232.2 65.99 232.2 64.79Q232.2 63.59 232.25 62.46Q232.29 61.33 232.35 60.37Q232.41 59.41 232.5 58.86Q232.55 58.51 232.75 58.12Q232.92 57.79 233.23 57.37Q233.54 56.94 234.07 56.48Q232.89 56.62 232.14 56.69Q231.39 56.75 230.95 56.8Q230.44 56.85 230.19 56.82Q229.96 56.82 229.54 56.78Q229.2 56.73 228.65 56.7ZM194.99 68.39Q194.2 66.89 194.52 64.42Q194.68 63.2 195.02 61.93Q195.35 60.66 195.9 59.64Q196.46 58.63 197.27 57.99Q197.58 57.74 197.94 57.6Q198.5 57.38 199.16 57.42Q199.17 57.43 199.19 57.43Q199.8 57.48 200.37 57.91Q200.96 58.35 201.38 59.14Q201.79 59.94 201.97 61.06Q202.14 62.18 201.93 63.57Q201.72 64.95 201.29 66.22Q200.85 67.49 200.25 68.44Q199.65 69.39 198.92 69.88Q198.44 70.21 197.94 70.25Q197.68 70.28 197.41 70.22Q196.66 70.07 196.1 69.67Q195.42 69.21 194.99 68.39ZM102.36 58.95Q102.33 58.42 102.33 58.33Q103.51 58 104.35 58.08Q105.2 58.16 105.75 58.37Q106.4 58.63 106.84 59.02Q107.07 59.27 107.14 59.84Q107.21 60.4 107.08 61.04Q107.06 61.12 107.04 61.2Q106.91 61.75 106.59 62.25Q106.41 62.55 106.15 62.77Q105.91 62.96 105.61 63.08Q105.15 63.24 104.64 63.31Q104.2 63.36 103.65 63.35Q103.09 63.34 102.52 63.08Q102.45 61.33 102.41 60.37Q102.38 59.41 102.36 58.95ZM161.3 61.32Q161.28 61.25 161.27 61.17Q161.31 60.84 161.43 60.55Q161.47 60.45 161.53 60.36Q161.71 60.03 162.06 59.78Q162.4 59.53 163.03 59.53L163.19 62.67Q162.45 62.48 162.07 62.23Q161.69 61.97 161.5 61.72Q161.35 61.53 161.3 61.32ZM164.99 66.15Q164.94 65.6 164.92 64.65Q165.96 64.54 166.49 64.85Q167.02 65.16 167.25 65.62Q167.51 66.15 167.51 66.85Q167.49 66.91 167.48 66.97Q167.38 67.32 167.16 67.63Q166.91 67.96 166.45 68.23Q165.98 68.51 165.13 68.63Q165.08 68.16 165.07 67.81Q165.06 67.45 165.04 67.19Q165.01 66.92 165.01 66.69Q165.01 66.45 164.99 66.15ZM103.72 69.85Q103.07 69.71 102.22 69.27L102.31 65.21Q103.53 64.75 104.38 64.81Q105.22 64.88 105.77 65.14Q106.1 65.3 106.38 65.52Q106.63 65.72 106.84 65.97Q107.32 66.71 107.37 67.32Q107.41 67.93 107.2 68.42Q107.2 68.42 107.19 68.43Q107.11 68.61 107 68.78Q106.82 69.06 106.55 69.28Q106.12 69.64 105.68 69.85Q105.31 69.99 104.8 69.99Q104.37 69.99 103.72 69.85Z" fill="#FFE9DF" fill-opacity="1.000000" fill-rule="evenodd"/>
</svg>
