<svg width="349.998260" height="98.491821" viewBox="0 0 349.998 98.4918" fill="none" xmlns="http://www.w3.org/2000/svg" xmlns:xlink="http://www.w3.org/1999/xlink">
	<desc>
			Created with Pixso.
	</desc>
	<defs>
		<filter id="filter_19_134_dd" x="0.000000" y="0.000000" width="349.998260" height="56.281128" filterUnits="userSpaceOnUse" color-interpolation-filters="sRGB">
			<feFlood flood-opacity="0" result="BackgroundImageFix"/>
			<feBlend mode="normal" in="SourceGraphic" in2="BackgroundImageFix" result="shape"/>
			<feGaussianBlur stdDeviation="4.10383" result="effect_layerBlur_1"/>
		</filter>
		<filter id="filter_19_135_dd" x="22.864182" y="17.587769" width="307.787415" height="22.864258" filterUnits="userSpaceOnUse" color-interpolation-filters="sRGB">
			<feFlood flood-opacity="0" result="BackgroundImageFix"/>
			<feBlend mode="normal" in="SourceGraphic" in2="BackgroundImageFix" result="shape"/>
			<feGaussianBlur stdDeviation="2.93131" result="effect_layerBlur_1"/>
		</filter>
		<linearGradient x1="174.119720" y1="98.491791" x2="174.119720" y2="28.140381" id="paint_linear_19_131_0" gradientUnits="userSpaceOnUse">
			<stop stop-color="#FF0845"/>
			<stop offset="1.000000" stop-color="#FF4040"/>
		</linearGradient>
		<linearGradient x1="174.360947" y1="96.733253" x2="174.360947" y2="29.899414" id="paint_linear_19_132_0" gradientUnits="userSpaceOnUse">
			<stop stop-color="#FF0845"/>
			<stop offset="1.000000" stop-color="#FFB099"/>
		</linearGradient>
		<linearGradient x1="176.761703" y1="29.899414" x2="176.761703" y2="96.733253" id="paint_linear_19_132_1" gradientUnits="userSpaceOnUse">
			<stop stop-color="#FFFFFF"/>
			<stop offset="1.000000" stop-color="#FFFFFF" stop-opacity="0.329412"/>
		</linearGradient>
		<linearGradient x1="174.999115" y1="12.311523" x2="174.999115" y2="43.969658" id="paint_linear_19_134_0" gradientUnits="userSpaceOnUse">
			<stop stop-color="#FFFFFF"/>
			<stop offset="1.000000" stop-color="#C4C4C4" stop-opacity="0.000000"/>
			<stop offset="1.000000" stop-color="#FFFFFF" stop-opacity="0.760784"/>
		</linearGradient>
	</defs>
	<g style="mix-blend-mode:normal">
		<path d="M28.33 28.14L319.9 28.14L335.92 45.72L335.92 80.9L319.9 98.49L28.33 98.49L12.31 80.9L12.31 45.72L28.33 28.14Z" fill="url(#paint_linear_19_131_0)" fill-opacity="1.000000" fill-rule="evenodd"/>
	</g>
	<g opacity="0.600000" style="mix-blend-mode:soft-light">
		<path d="M29.43 29.89L319.44 29.89L334.41 46.45L334.41 80.02L319.46 96.73L28.71 96.73L14.31 80.02L14.31 46.6L29.43 29.89Z" fill="url(#paint_linear_19_132_0)" fill-opacity="1.000000" fill-rule="nonzero"/>
		<path d="M318.66 31.65L332.65 47.13L332.65 79.35L318.67 94.97L29.52 94.97L16.07 79.37L16.07 47.28L30.21 31.65L318.66 31.65ZM319.44 29.89L29.43 29.89L14.31 46.6L14.31 80.02L28.71 96.73L319.46 96.73L334.41 80.02L334.41 46.45L319.44 29.89Z" fill="url(#paint_linear_19_132_1)" fill-opacity="1.000000" fill-rule="evenodd"/>
	</g>
	<g opacity="0.200000" filter="url(#filter_19_134_dd)">
		<ellipse cx="174.999130" cy="28.140625" rx="162.687637" ry="15.829067" fill="url(#paint_linear_19_134_0)" fill-opacity="1.000000"/>
	</g>
	<g opacity="0.700000" filter="url(#filter_19_135_dd)" style="mix-blend-mode:screen">
		<ellipse cx="176.757904" cy="29.019897" rx="145.099792" ry="2.638178" fill="#FFFFFF" fill-opacity="1.000000"/>
	</g>
	<path d="M176.36 55.47Q175.76 55.39 175.02 55.28Q175.62 55.74 175.96 56.2Q176.31 56.66 176.49 57.03Q176.73 57.45 176.8 57.86Q176.82 58.09 176.84 58.95Q176.86 59.8 176.89 60.99Q176.91 62.18 176.91 63.54Q176.91 64.91 176.89 66.15Q176.86 67.4 176.83 68.36Q176.8 69.32 176.75 69.69Q176.7 69.92 176.49 70.24Q176.31 70.54 175.96 70.98Q175.62 71.42 175.02 72.04Q175.78 72.02 176.44 72.02L177.58 72.02Q178.16 72.02 178.62 72.04Q179.08 72.07 179.59 72.07Q180.03 72.09 180.57 72.09L181.71 72.09Q181.39 71.86 181.14 71.5Q180.88 71.14 180.72 70.82Q180.51 70.43 180.4 70.01Q180.28 69.6 180.19 69.02Q180.12 68.53 180.07 67.81Q180.03 67.08 180.07 66.08Q180.28 66.04 180.52 66Q180.77 65.97 180.98 65.95Q181.23 65.92 181.44 65.9Q181.67 65.88 182.04 65.83Q182.36 65.78 182.81 65.73Q183.26 65.67 183.93 65.55Q184.6 66.27 184.9 66.97Q185.2 67.68 185.27 68.26Q185.36 68.93 185.25 69.55Q185.16 69.9 184.95 70.26Q184.76 70.59 184.44 70.98Q184.12 71.37 183.61 71.77Q184.76 71.74 185.58 71.74L186.93 71.74Q187.56 71.74 187.97 71.77Q188.39 71.79 188.85 71.79L189.79 71.79Q190.33 71.79 190.98 71.77Q190.51 71.44 190.2 71.1Q189.89 70.75 189.66 70.45Q189.4 70.1 189.22 69.78Q188.99 69.36 188.92 69.04Q188.85 68.72 188.82 68.41Q188.78 68.09 188.69 67.75Q188.6 67.4 188.34 66.92Q188.13 66.57 187.72 66.2Q187.37 65.9 186.81 65.55Q186.24 65.21 185.39 64.95Q186.26 64.68 186.92 64.31Q187.58 63.94 188.07 63.52Q188.55 63.11 188.89 62.66Q189.22 62.2 189.43 61.79Q189.77 61.08 189.88 60.34Q189.93 60.04 189.94 59.73Q189.91 59.02 189.75 58.42Q189.59 57.82 189.21 57.27Q188.83 56.73 188.18 56.25Q187.53 55.76 186.52 55.28Q186.39 55.21 186.25 55.16Q185.34 54.8 184.28 54.83Q183.05 54.86 181.89 55.08Q180.72 55.3 179.75 55.54Q178.78 55.78 178.3 55.72Q177.9 55.67 177.4 55.6Q176.96 55.55 176.36 55.47ZM195.36 55.54Q194.23 55.46 192.68 55.28Q192.79 56.08 192.86 56.65Q192.93 57.22 192.98 57.56Q193.03 57.98 193.03 58.23Q193.03 58.51 193.05 59.09Q193.07 59.57 193.12 60.44Q193.16 61.3 193.28 62.64Q193.81 61.37 194.23 60.51Q194.64 59.64 194.97 59.11Q195.34 58.49 195.64 58.09Q195.94 57.77 196.26 57.54Q196.54 57.35 196.91 57.23Q196.99 57.2 197.07 57.18Q197.37 57.13 197.69 57.22Q197.62 59.16 197.56 60.69Q197.51 62.23 197.45 63.41Q197.39 64.58 197.36 65.44Q197.32 66.29 197.3 66.87Q197.21 68.28 197.18 68.74Q197.11 69.06 196.97 69.48Q196.86 69.83 196.65 70.31Q196.44 70.8 196.1 71.4Q197.09 71.28 197.84 71.23Q198.59 71.19 199.08 71.14Q199.65 71.1 200.05 71.1L202.86 71.1Q202.08 70.56 201.66 69.87Q201.25 69.18 201.06 68.53Q200.9 68 200.84 67.46Q200.82 67.22 200.81 66.99Q200.81 66.43 200.83 65.16Q200.85 64.1 200.9 62.2Q200.95 60.31 201.06 57.26Q201.82 57.17 202.39 57.24Q202.96 57.31 203.33 57.42Q203.74 57.56 204.04 57.77Q204.32 58.05 204.6 58.58Q204.85 59.04 205.15 59.81Q205.45 60.59 205.77 61.84Q205.98 60.77 206.09 60Q206.19 59.23 206.24 58.72Q206.28 58.12 206.28 57.72Q206.28 57.35 206.26 56.92Q206.24 56.55 206.22 56.05Q206.21 55.55 206.19 55.02Q204.04 55.25 202.61 55.38Q201.18 55.51 200.3 55.58Q199.26 55.67 198.66 55.69Q198.08 55.72 197.23 55.67Q196.49 55.62 195.36 55.54ZM133.01 55.33Q132.35 55.07 131.55 55.07Q131.23 55.07 130.92 55.12Q130.21 55.23 129.55 55.59Q128.59 56.11 127.78 56.95Q126.97 57.79 126.3 58.86Q125.63 59.92 125.16 61.03Q124.69 62.14 124.41 63.19Q124.13 64.24 124.09 65.02Q124.02 66.2 124.52 67.42Q124.61 67.64 124.71 67.84Q125.19 68.83 125.94 69.68Q126.86 70.7 128.13 71.42Q128.73 71.76 129.38 71.97Q130.09 72.21 130.85 72.3Q132.01 72.32 133.3 71.9Q134.41 71.53 135.81 70.63Q137.2 69.73 138.68 67.93L135.26 67.31Q134.82 68.49 134.22 69.12Q133.62 69.76 133.05 70.06Q132.38 70.42 131.7 70.47Q131.69 70.47 131.68 70.47Q131.28 70.49 130.94 70.35Q130.75 70.28 130.58 70.16Q130.09 69.83 129.71 69.28Q129.33 68.74 129.07 68.05Q128.82 67.35 128.66 66.63Q128.5 65.9 128.45 65.2Q128.4 64.49 128.47 63.96Q128.54 63.36 128.77 62.66Q129 61.95 129.36 61.26Q129.57 60.85 129.81 60.47Q129.98 60.19 130.17 59.93Q130.62 59.29 131.12 58.83Q131.61 58.37 132.12 58.13Q132.52 57.94 132.91 57.94Q133.03 57.94 133.14 57.96Q133.17 57.96 133.2 57.97Q133.72 58.12 134.13 58.63Q134.5 59.09 134.81 59.96Q135.12 60.84 135.12 62.44Q135.79 61.19 136.23 60.41Q136.67 59.64 136.93 59.18L137.34 58.42Q137.48 58.21 137.78 57.84Q138.03 57.52 138.51 57.02Q138.98 56.52 139.74 55.78Q138.98 56.18 138.37 56.37Q137.76 56.57 137.3 56.66Q136.76 56.75 136.35 56.78Q136.26 56.78 136.17 56.77Q135.73 56.73 135.31 56.51Q134.8 56.25 134.24 55.92Q133.67 55.6 133.01 55.33ZM222.6 56.52Q222.86 55.97 223.18 55.23Q222.58 55.6 221.95 55.77Q221.31 55.95 220.78 55.99Q220.42 56.03 220.06 56.03Q219.82 56.03 219.58 56.02Q219.44 55.99 218.87 55.91Q218.31 55.83 217.5 55.74Q216.69 55.65 215.69 55.58Q214.68 55.51 213.66 55.54Q212.63 55.58 211.65 55.76Q210.66 55.95 209.87 56.33Q209.17 56.66 208.68 57.19Q208.62 57.27 208.55 57.34Q208.51 57.4 208.47 57.45Q208.02 58.06 207.94 58.93Q207.84 59.92 208.22 60.65Q208.27 60.74 208.32 60.82Q208.82 61.6 209.66 62.18Q210.5 62.76 211.55 63.15Q212.6 63.54 213.61 63.84Q214.61 64.14 215.43 64.4Q216.25 64.65 216.65 64.93Q217.09 65.28 217.41 65.8Q217.59 66.09 217.72 66.42Q217.82 66.65 217.88 66.9Q217.97 67.25 217.99 67.6Q218 67.85 217.99 68.09Q217.95 68.57 217.77 69Q217.73 69.1 217.67 69.2Q217.6 69.34 217.52 69.46Q217.27 69.8 216.9 70.05Q216.39 70.38 215.58 70.45Q215.34 70.47 215.1 70.44Q214.71 70.38 214.34 70.2Q213.74 69.9 213.29 69.44Q212.84 68.99 212.58 68.51Q212.33 68.02 212.37 67.7Q212.44 67.4 212.63 67.05Q212.79 66.75 213.1 66.36Q213.41 65.97 213.99 65.51L207.27 66.59Q207.45 66.66 207.64 66.74Q207.82 66.82 207.99 66.92Q208.17 67.01 208.36 67.12Q208.52 67.22 208.59 67.67Q208.66 68.12 208.84 68.73Q209.03 69.34 209.43 70.01Q209.83 70.68 210.68 71.23Q211.52 71.79 212.88 72.11Q214.24 72.44 216.37 72.34Q218.42 72.25 219.59 71.86Q220.76 71.47 221.31 70.8Q221.45 70.63 221.55 70.45Q221.89 69.9 221.96 69.18Q222.05 68.23 221.98 67.05Q221.97 66.93 221.95 66.8Q221.82 66.02 221.23 65.31Q220.55 64.49 219.57 63.79Q218.59 63.08 217.43 62.49Q216.28 61.9 215.27 61.43Q214.27 60.96 213.56 60.59Q212.86 60.22 212.74 59.94Q212.6 59.64 212.63 59.19Q212.63 59.17 212.63 59.16Q212.66 58.72 212.97 58.31Q213.3 57.89 214 57.55Q214.71 57.22 215.95 57.15Q216.31 57.16 216.65 57.24Q217.22 57.37 217.75 57.66Q218.12 57.86 218.51 58.17Q218.89 58.49 219.23 58.97Q219.58 59.46 219.88 60.1Q220.18 60.75 220.39 61.6Q220.8 60.61 221.07 59.98Q221.33 59.34 221.52 58.95Q221.7 58.51 221.82 58.26Q221.96 57.91 222.17 57.47Q222.35 57.08 222.6 56.52ZM141.84 55.87Q141.28 55.83 140.48 55.74Q141.08 56.27 141.42 56.79Q141.77 57.31 141.98 57.7Q142.21 58.19 142.33 58.6Q142.35 58.79 142.38 59.54Q142.42 60.29 142.45 61.33Q142.49 62.37 142.51 63.56Q142.53 64.75 142.54 65.82Q142.56 66.89 142.54 67.72Q142.53 68.56 142.51 68.86Q142.46 69.2 142.33 69.62Q142.21 69.96 141.94 70.39Q141.68 70.82 141.24 71.26Q141.98 71.26 142.53 71.27Q143.09 71.28 143.46 71.3Q143.87 71.33 144.17 71.33Q144.47 71.35 144.8 71.37Q145.07 71.42 145.44 71.45Q145.81 71.49 146.25 71.53Q146.04 71.21 145.85 70.8Q145.65 70.38 145.51 70.01Q145.35 69.6 145.21 69.18Q145.07 68.74 144.98 68.14Q144.89 67.63 144.84 66.9Q144.8 66.18 144.84 65.21Q145.4 65.16 145.96 65.13Q146.53 65.09 146.99 65.05Q147.54 65.02 148.05 65Q148.56 65 149.02 64.98Q149.42 64.95 149.87 64.94Q150.32 64.93 150.64 64.93Q150.59 66.69 150.55 67.75Q150.5 68.81 150.45 69.39Q150.41 70.08 150.39 70.36Q150.34 70.59 150.22 70.84Q150.11 71.07 149.9 71.38Q149.69 71.7 149.35 72.02L154.91 71.6Q154.54 71.21 154.31 70.76Q154.08 70.31 153.94 69.92Q153.78 69.48 153.71 69.06Q153.64 68.72 153.62 67.87Q153.6 67.03 153.61 65.95Q153.62 64.86 153.65 63.64Q153.69 62.41 153.75 61.28Q153.8 60.15 153.88 59.23Q153.96 58.3 154.08 57.82L154.27 57.17Q154.36 56.89 154.5 56.55Q154.58 56.34 154.68 56.14Q154.75 56.01 154.82 55.88Q154.08 55.92 153.57 55.93Q153.06 55.95 152.72 55.97Q152.3 55.99 152.05 55.99Q151.79 55.99 151.42 55.97Q151.1 55.95 150.63 55.91Q150.15 55.88 149.55 55.78Q149.88 56.36 150.07 56.77Q150.27 57.17 150.39 57.45Q150.52 57.77 150.59 58Q150.69 58.42 150.73 59.02Q150.78 59.55 150.77 60.32Q150.75 61.1 150.64 62.16Q149.23 62.27 148.54 62.3Q148.12 62.32 147.8 62.34L147.04 62.34Q146.64 62.34 146.07 62.35Q145.49 62.37 144.7 62.34Q144.89 60.77 145.02 59.8Q145.14 58.83 145.26 58.3Q145.37 57.68 145.47 57.38Q145.56 57.15 145.7 56.87Q145.81 56.62 146.02 56.3Q146.23 55.99 146.55 55.65Q145.86 55.78 145.27 55.84Q144.68 55.9 144.24 55.92Q143.73 55.95 143.34 55.95Q143.11 55.95 142.72 55.92Q142.39 55.9 141.84 55.87ZM163.46 56.6Q162.67 56.57 161.51 56.5Q162.14 57.01 162.47 57.42Q162.8 57.84 162.97 58.16Q163.15 58.53 163.2 58.83Q163.2 59.09 162.85 59.94Q162.5 60.8 161.95 61.96Q161.4 63.13 160.71 64.44Q160.03 65.76 159.42 66.92Q158.81 68.07 158.32 68.91Q157.84 69.76 157.68 69.99Q157.45 70.24 157.12 70.52Q156.85 70.77 156.43 71.06Q156.02 71.35 155.41 71.63Q156.38 71.53 157.23 71.48Q158.07 71.42 158.69 71.37Q159.43 71.33 160.01 71.3Q160.59 71.28 161.19 71.26Q161.7 71.23 162.3 71.23Q162.9 71.23 163.47 71.26Q163.03 70.84 162.82 70.53Q162.6 70.22 162.48 69.99Q162.37 69.73 162.32 69.55Q162.3 69.39 162.37 69.13Q162.41 68.93 162.53 68.64Q162.64 68.35 162.87 67.96L168.95 67.33Q169.04 68.32 169.06 68.94Q169.09 69.55 169.06 69.92Q169.04 70.33 168.99 70.54Q168.93 70.73 168.74 70.96Q168.58 71.14 168.29 71.41Q168 71.67 167.54 72Q168.42 71.95 169.08 71.9Q169.73 71.86 170.15 71.81Q170.63 71.77 170.98 71.77Q171.33 71.74 171.81 71.72Q172.23 71.7 172.87 71.69Q173.52 71.67 174.42 71.63Q173.94 71.44 173.62 71.3Q173.31 71.17 173.13 71.07Q172.92 70.98 172.83 70.93Q172.6 70.82 172.5 70.67Q172.41 70.52 172.07 70.03Q171.95 69.87 171.71 69.01Q171.47 68.14 171.17 66.9Q170.86 65.67 170.56 64.25Q170.26 62.83 170.01 61.57Q169.76 60.31 169.62 59.39Q169.48 58.46 169.53 58.23Q169.59 57.98 169.78 57.61Q169.94 57.31 170.23 56.88Q170.52 56.45 171.05 55.92Q169.55 56.18 168.54 56.33Q167.54 56.48 166.94 56.55Q166.22 56.64 165.81 56.66Q165.39 56.69 164.79 56.66L163.46 56.6ZM184.14 63.13Q183.98 63.27 183.75 63.41Q183.35 63.61 182.8 63.73Q182.34 63.84 181.67 63.88Q181 63.91 180.12 63.78Q180.03 62.04 180.05 60.98Q180.07 59.92 180.14 59.32Q180.24 58.63 180.35 58.32Q180.52 57.97 180.78 57.69Q181.01 57.45 181.3 57.26Q181.86 56.91 182.44 56.87Q182.51 56.87 182.57 56.87Q182.89 56.87 183.32 57.02Q183.75 57.17 184.1 57.55Q184.46 57.93 184.68 58.58Q184.9 59.23 184.81 60.22Q184.69 61.21 184.61 61.79Q184.53 62.37 184.42 62.68Q184.3 62.99 184.14 63.13ZM168.42 64.23Q168.53 64.81 168.67 65.62L163.87 66.04Q163.91 65.9 164.31 65.11Q164.63 64.44 165.36 63Q166.08 61.56 167.4 58.93Q167.59 59.85 167.71 60.51Q167.84 61.17 167.93 61.6Q168.02 62.11 168.09 62.44Q168.14 62.78 168.23 63.24Q168.3 63.64 168.42 64.23Z" fill="#FFE9DF" fill-opacity="1.000000" fill-rule="evenodd"/>
</svg>
