<svg width="2123.571289" height="194.500000" viewBox="0 0 2123.57 194.5" fill="none" xmlns="http://www.w3.org/2000/svg" xmlns:xlink="http://www.w3.org/1999/xlink">
	<desc>
			Created with Pixso.
	</desc>
	<defs>
		<linearGradient x1="1468.270752" y1="126.500000" x2="1468.270752" y2="0.000000" id="paint_linear_19_152_0" gradientUnits="userSpaceOnUse">
			<stop stop-color="#FF0845"/>
			<stop offset="1.000000" stop-color="#FF4040"/>
		</linearGradient>
		<linearGradient x1="454.218750" y1="171.000000" x2="454.218750" y2="74.000000" id="paint_linear_19_155_0" gradientUnits="userSpaceOnUse">
			<stop stop-color="#FF0845"/>
			<stop offset="1.000000" stop-color="#FF4040"/>
		</linearGradient>
	</defs>
	<path id="Vector 5" d="M59.21 56.5L955.21 50.5L960.71 128.5L1021.22 183.5L60.21 194.5L59.21 56.5Z" fill="#FFFFFF" fill-opacity="1.000000" fill-rule="evenodd"/>
	<path id="Vector 7" d="M954.55 125.91L1021.22 125L1021.22 183.5L954.23 126.79C953.88 126.49 954.09 125.91 954.55 125.91Z" fill="#6D0000" fill-opacity="1.000000" fill-rule="evenodd"/>
	<path id="Vector 6" d="M1985.22 0L1985.22 115.28L954.12 126.5L951.32 10.27L1985.22 0Z" fill="url(#paint_linear_19_152_0)" fill-opacity="1.000000" fill-rule="evenodd"/>
	<path id="Always charging, always faster" d="M1062.21 79.69Q1062.39 78.36 1062.23 78.13Q1061.82 77.9 1057.93 77.96Q1057.31 73.83 1056.66 69.26Q1056.01 64.7 1055.31 60.34Q1054.62 55.97 1053.9 52.04Q1053.17 48.1 1052.54 45.15Q1051.91 42.19 1051.38 40.44Q1050.84 38.69 1050.44 38.69Q1049.52 38.71 1047.56 39.36Q1045.63 40.02 1043.5 41.18Q1041.37 42.35 1039.43 44.06Q1037.51 45.77 1036.76 47.89Q1036.31 49.14 1035.69 52.47Q1035.09 55.8 1034.44 60.27Q1033.81 64.73 1033.18 69.82Q1032.56 74.91 1032.01 79.6Q1030.14 79.79 1029.01 79.96Q1027.88 80.14 1027.88 80.29Q1027.89 80.6 1028.29 81.18Q1028.68 81.76 1029.24 82.34Q1029.8 82.92 1030.35 83.46Q1030.91 84 1031.22 84.15L1031.53 84.14Q1031.32 86.02 1031.12 87.98Q1030.99 89.62 1030.75 91.58Q1030.51 93.53 1030.38 95.33Q1030.39 96.11 1030.72 97.28Q1030.94 98.09 1031.27 98.85Q1031.41 99.2 1031.56 99.53Q1032.1 100.62 1032.74 101.39Q1033.37 102.16 1034 102.15Q1034.23 102.15 1034.68 100.82Q1035.13 99.48 1035.76 97.2Q1036.39 94.93 1037.07 91.87Q1037.78 88.81 1038.51 85.36Q1040.06 85.57 1041.76 85.82Q1043.43 86.07 1045.16 86.2Q1046.88 86.33 1048.56 86.46Q1050.25 86.59 1051.81 86.72Q1053.47 92.79 1054.77 96.29Q1056.06 99.79 1056.47 100.48Q1056.55 100.63 1056.67 100.68Q1056.92 100.79 1057.37 100.43Q1058.03 99.91 1058.64 99.04Q1059.25 98.17 1059.74 97.15Q1060.24 96.13 1060.23 95.58Q1060.22 95.35 1059.96 93.08Q1059.68 90.82 1059.24 87.08Q1059.47 87.15 1059.71 87.15L1060.49 87.14Q1060.72 86.9 1061.05 85.53Q1061.38 84.16 1061.71 82.59Q1062.04 81.02 1062.21 79.69ZM1930.5 35.81Q1930.17 34.56 1929.77 33.71Q1929.37 32.94 1928.33 31.66Q1927.3 30.39 1925.87 29.28Q1925.05 28.63 1924.12 28.21Q1923.45 27.91 1922.72 27.72Q1922.25 27.6 1921.77 27.58Q1920.51 27.53 1919.21 28.17Q1918.44 28.57 1917.17 29.68Q1915.9 30.8 1914.7 32.14Q1913.51 33.49 1912.64 34.79Q1911.76 36.1 1911.77 36.8Q1911.7 37.74 1911.77 39.49Q1911.84 41.25 1911.95 43.63Q1912.06 46.01 1912.22 48.82Q1912.38 51.64 1912.66 54.6Q1910.87 54.94 1909.74 55.27Q1908.62 55.6 1908.46 55.84Q1908.39 56.15 1908.36 56.66Q1908.33 57.17 1908.38 57.71Q1908.42 58.26 1908.55 58.76Q1908.62 59.07 1908.79 59.3Q1908.91 59.45 1909.07 59.58Q1909.3 59.73 1910.44 59.87Q1911.57 60.01 1913.14 60.14Q1913.43 63.5 1913.79 66.62Q1914.15 69.74 1914.5 72.27Q1914.85 74.8 1915.19 76.6Q1915.53 78.39 1915.93 79.08Q1916.65 80.48 1917.73 81.87Q1918.81 83.26 1919.76 84.14Q1920.71 85.03 1921.37 85.13Q1921.56 85.16 1921.69 85.09Q1922.03 84.91 1922.02 84.07Q1922.01 83.13 1921.85 80.83Q1921.7 78.53 1921.5 75.33Q1921.29 72.13 1921.04 68.26Q1920.78 64.4 1920.57 60.42Q1923.22 60.46 1925.29 60.35Q1927.36 60.24 1927.75 60Q1928.29 59.67 1928.47 58.66Q1928.65 57.64 1928.51 56.47Q1928.38 55.3 1927.94 54.33Q1927.5 53.39 1926.83 53.15Q1926.8 53.14 1926.78 53.13Q1926.23 52.99 1924.4 53.09Q1922.57 53.2 1920.23 53.47Q1920.1 50.5 1920.02 47.81Q1919.94 45.11 1919.95 42.96Q1919.95 40.82 1920.01 39.33Q1920.07 37.84 1920.29 37.22Q1920.37 37 1920.52 36.87Q1920.97 36.49 1922.08 36.91Q1923.58 37.48 1925.31 38.43Q1927.04 39.38 1928.54 40.33Q1930.04 41.29 1930.51 41.28Q1930.58 41.27 1930.65 41.23Q1930.99 41.06 1931.04 40.33Q1931.11 39.47 1930.97 38.26Q1930.84 37.05 1930.5 35.81ZM2042.94 45.15Q2043.01 44.09 2042.92 43.86Q2042.84 43.71 2041.2 43.69Q2039.56 43.68 2037.22 43.87L2037.12 37.03Q2037.07 33.79 2036.95 31.37Q2036.84 28.95 2036.66 27.51Q2036.48 26.07 2036.24 25.91Q2035.93 25.68 2034.88 26.21Q2033.83 26.73 2032.64 27.77Q2031.44 28.8 2030.41 30.18Q2029.38 31.57 2029.16 33.05Q2028.95 34.15 2029.03 37.24Q2029.12 40.32 2029.34 44.46Q2026.76 44.65 2025.01 44.92Q2023.26 45.18 2023.26 45.41Q2023.26 45.72 2023.43 46.39Q2023.6 47.05 2023.8 47.75Q2024.01 48.45 2024.25 49.03Q2024.49 49.61 2024.65 49.77Q2025.52 49.91 2026.34 50.05Q2027.16 50.2 2027.94 50.34Q2028.81 50.48 2029.67 50.55Q2029.8 53.91 2030.17 57.81Q2030.38 61.16 2030.75 65.49Q2031.13 69.83 2031.6 74.58Q2031.68 75.29 2032.21 76.18Q2032.73 77.07 2033.4 77.88Q2034.08 78.69 2034.79 79.22Q2035.5 79.76 2036.05 79.67Q2036.28 79.59 2036.52 77.09Q2036.75 74.58 2036.93 70.56Q2037.1 66.53 2037.18 61.45Q2037.26 56.37 2037.26 51.21L2038.9 51.19Q2039.6 51.18 2040.38 51.21Q2040.64 51.21 2040.9 51.21Q2041.42 51.2 2041.94 51.14Q2042.09 50.91 2042.31 49.85Q2042.53 48.79 2042.71 47.5Q2042.88 46.21 2042.94 45.15ZM1353.57 60.71Q1352.81 59.47 1352.02 59.01Q1350.36 58.02 1347.67 58.38Q1344.98 58.73 1341.88 60.03Q1341.89 55.5 1341.82 51.4Q1341.76 47.29 1341.64 44.13Q1341.51 40.97 1341.28 39.06Q1341.06 37.15 1340.82 36.92Q1340.43 36.61 1339.3 37.21Q1338.18 37.82 1336.91 39.01Q1335.64 40.2 1334.57 41.74Q1333.5 43.28 1333.21 44.93Q1333.01 47.12 1333.17 52.82Q1333.21 55.24 1333.38 58.67Q1333.55 62.11 1333.85 66.79Q1334.16 71.48 1334.64 77.52Q1335.13 83.57 1335.87 91.22Q1336.04 91.92 1336.56 92.93Q1336.76 93.31 1336.99 93.68Q1337.36 94.27 1337.8 94.82Q1338.52 95.71 1339.27 96.32Q1340.02 96.94 1340.64 96.85Q1340.95 96.77 1341.19 94.07Q1341.42 91.37 1341.59 86.95Q1341.75 82.53 1341.82 76.98Q1341.9 71.44 1341.89 65.65Q1342.35 65.41 1342.97 65.17Q1343.44 65.01 1344.1 64.76Q1344.76 64.52 1345.46 64.35Q1345.55 64.32 1345.65 64.31Q1346.03 64.28 1346.44 64.65Q1346.96 65.11 1347.4 65.96Q1347.84 66.81 1348.13 68.02Q1348.25 68.49 1348.31 68.97Q1348.4 69.72 1348.37 70.48Q1348.37 70.79 1348.28 72.51Q1348.19 74.23 1348.07 76.62Q1347.95 79 1347.8 81.74Q1347.64 84.48 1347.56 86.82Q1347.48 89.17 1347.47 90.85Q1347.45 92.53 1347.54 92.84Q1347.7 93.3 1348.41 93.61Q1349.11 93.91 1349.94 94.05Q1350.76 94.19 1351.5 94.1Q1352.24 94.02 1352.39 93.78Q1352.47 93.62 1352.84 92.13Q1353.21 90.64 1353.64 88.45Q1354.08 86.25 1354.58 83.59Q1355.09 80.92 1355.52 78.38Q1355.95 75.83 1356.23 73.68Q1356.51 71.53 1356.49 70.43Q1356.47 68.79 1356.05 66.96Q1355.63 65.13 1354.98 63.54Q1354.33 61.95 1353.57 60.71ZM1085.68 98.17Q1085.72 98.17 1085.75 98.16Q1085.98 98.08 1086.18 95.81Q1086.38 93.54 1086.56 89.83Q1086.73 86.11 1086.81 81.35Q1086.9 76.58 1086.93 71.58Q1086.98 66.58 1086.94 61.81Q1086.92 57.04 1086.78 53.22Q1086.64 49.39 1086.44 47.01Q1086.26 44.63 1085.93 44.4Q1085.62 44.17 1084.57 44.73Q1083.53 45.3 1082.34 46.33Q1081.14 47.37 1080.11 48.79Q1079.07 50.21 1078.86 51.62Q1078.66 53.58 1078.81 58.65Q1078.85 60.84 1079.01 63.92Q1079.18 67.01 1079.47 71.22Q1079.77 75.44 1080.21 80.86Q1080.64 86.28 1081.29 93.15Q1081.46 93.77 1081.93 94.7Q1082.11 95.03 1082.31 95.34Q1082.66 95.92 1083.1 96.44Q1083.78 97.25 1084.49 97.79Q1085.17 98.3 1085.68 98.17ZM1699.95 88.8Q1699.97 88.79 1700 88.79Q1700.23 88.7 1700.43 86.44Q1700.63 84.17 1700.81 80.45Q1700.99 76.74 1701.07 71.97Q1701.15 67.2 1701.19 62.2Q1701.24 57.2 1701.2 52.44Q1701.17 47.67 1701.03 43.84Q1700.9 40.02 1700.7 37.64Q1700.51 35.26 1700.19 35.03Q1699.88 34.8 1698.83 35.36Q1697.79 35.92 1696.59 36.96Q1695.4 37.99 1694.36 39.41Q1693.33 40.84 1693.12 42.25Q1692.91 44.2 1693.07 49.28Q1693.1 51.47 1693.26 54.55Q1693.43 57.63 1693.73 61.85Q1694.03 66.06 1694.46 71.49Q1694.9 76.91 1695.55 83.78Q1695.71 84.4 1696.2 85.33Q1696.37 85.66 1696.56 85.97Q1696.92 86.54 1697.36 87.07Q1698.03 87.88 1698.74 88.41Q1699.42 88.93 1699.95 88.8ZM1307.68 51.88Q1308.69 52.17 1309.02 52.48Q1309.1 52.56 1309.23 53.61Q1309.36 54.67 1309.5 56.19Q1309.64 57.71 1309.82 59.5Q1310.01 61.3 1310.23 62.86Q1310.44 64.42 1310.69 65.47Q1310.95 66.52 1311.27 66.67Q1311.55 66.82 1311.85 66.83Q1312.44 66.86 1313.06 66.33Q1313.98 65.53 1314.68 64.82Q1314.98 64.58 1315.39 62.97Q1315.8 61.36 1316.12 59.37Q1316.44 57.37 1316.6 55.41Q1316.77 53.46 1316.67 52.37Q1316.58 51.35 1314.99 49.85Q1313.41 48.35 1310.93 47.02Q1308.44 45.69 1305.35 44.92Q1302.81 44.29 1300.31 44.41Q1299.76 44.44 1299.21 44.51Q1299.12 44.51 1299.03 44.53Q1298.06 44.75 1297.4 46.41Q1296.68 48.22 1296.26 51.11Q1295.84 54.01 1295.69 57.69Q1295.56 61.36 1295.62 65.11Q1295.67 68.86 1296.19 72.6Q1296.72 76.34 1297.43 79.46Q1298.15 82.57 1298.81 84.71Q1299.46 86.85 1299.78 87.39Q1300.1 87.94 1301.56 88.89Q1303.03 89.84 1304.8 90.75Q1306.56 91.67 1308.3 92.34Q1310.03 93.02 1310.89 93.08Q1310.94 93.09 1311 93.08Q1311.8 93.02 1312.46 91.26Q1313.18 89.38 1313.72 86.95Q1314.27 84.52 1314.55 82.17Q1314.83 79.82 1314.81 78.96L1314.79 77.71Q1314.78 76.93 1314.65 76.19Q1314.53 75.45 1314.32 74.9Q1314.16 74.48 1313.89 74.39Q1313.82 74.37 1313.73 74.37Q1313.02 74.38 1312.02 75.13Q1311.16 75.78 1310.6 76.62Q1310.5 76.77 1310.41 76.92Q1310.18 77.31 1309.68 78.61Q1309.19 79.9 1308.56 81.36Q1307.92 82.82 1307.27 83.92Q1306.62 85.02 1306.16 85.03Q1305.61 84.96 1305.07 83.87Q1304.56 82.79 1304.18 81Q1303.8 79.21 1303.53 76.83Q1303.26 74.45 1303.22 71.79Q1303.16 68.12 1303.54 64.68Q1303.92 61.23 1304.46 58.57Q1305.01 55.9 1305.53 54.18Q1306.05 52.45 1306.28 52.13Q1306.35 52.02 1306.46 51.95Q1306.86 51.64 1307.68 51.88ZM1132.65 50.8Q1132.74 48.61 1132.5 48.38Q1132.18 48.15 1131.29 48.48Q1130.39 48.8 1129.35 49.56Q1128.31 50.32 1127.39 51.39Q1126.55 52.36 1126.17 53.49Q1126.13 53.6 1126.09 53.71Q1125.87 54.42 1125.68 57.19Q1125.49 59.97 1125.31 63.61Q1125.13 67.24 1124.94 71.19Q1124.78 75.14 1124.67 78.27Q1124.25 76.01 1123.89 73.28Q1123.54 70.55 1123.18 67.78Q1122.82 65.01 1122.51 62.4Q1122.19 59.79 1121.93 57.76Q1121.67 55.73 1121.5 54.48Q1121.31 53.24 1121.24 53.24Q1121.01 53.16 1120.35 53.49Q1119.68 53.81 1118.88 54.49Q1118.06 55.16 1117.26 56.27Q1116.46 57.37 1115.86 58.79Q1115.56 59.5 1115.16 61.97Q1114.77 64.43 1114.35 67.56Q1113.93 70.7 1113.51 73.94Q1113.09 77.19 1112.74 79.47Q1112.53 76.5 1112.36 73.02Q1112.18 69.55 1112.02 66.15Q1111.86 62.76 1111.68 59.6Q1111.52 56.43 1111.37 54.01Q1111.22 51.59 1111.04 50.07Q1110.86 48.55 1110.69 48.48Q1110.38 48.33 1109.5 48.93Q1108.61 49.52 1107.64 50.56Q1106.68 51.59 1105.84 52.93Q1105.01 54.27 1104.79 55.6Q1104.74 57.4 1105.19 61.92Q1105.39 63.87 1105.69 66.6Q1106.02 69.33 1106.5 73.04Q1106.99 76.74 1107.68 81.53Q1108.39 86.33 1109.34 92.33Q1109.42 92.95 1109.91 93.69Q1110.39 94.42 1111.02 95.08Q1111.66 95.73 1112.29 96.11Q1112.89 96.48 1113.35 96.34Q1113.37 96.34 1113.38 96.33Q1113.62 96.33 1114.03 95.07Q1114.43 93.82 1114.92 91.82Q1115.39 89.82 1115.86 87.31Q1116.32 84.8 1116.76 82.22Q1117.27 79.71 1117.63 77.36Q1117.98 75.32 1118.3 73.13Q1118.62 70.94 1118.91 69.29Q1119.26 71.79 1119.61 74.36Q1119.96 76.93 1120.31 78.96Q1120.66 81.45 1121 83.64Q1121.43 86.91 1122.06 89.17Q1122.68 91.42 1122.85 92.28Q1122.93 92.75 1123.38 93.45Q1123.81 94.14 1124.34 94.84Q1124.86 95.53 1125.44 96.03Q1126.04 96.53 1126.51 96.52Q1126.75 96.52 1127.18 94.48Q1127.62 92.44 1128.16 89.15Q1128.68 85.86 1129.29 81.6Q1129.89 77.33 1130.44 72.91Q1131.01 68.48 1131.49 64.18Q1131.97 59.87 1132.27 56.43Q1132.56 52.99 1132.65 50.8ZM1746.91 41.42Q1746.99 39.24 1746.75 39Q1746.43 38.78 1745.54 39.1Q1744.65 39.43 1743.6 40.19Q1742.56 40.94 1741.64 42.01Q1740.8 42.98 1740.42 44.11Q1740.38 44.22 1740.35 44.34Q1740.12 45.04 1739.93 47.82Q1739.74 50.6 1739.56 54.23Q1739.38 57.87 1739.21 61.82Q1739.03 65.77 1738.92 68.89Q1738.5 66.63 1738.15 63.9Q1737.79 61.18 1737.44 58.41Q1737.08 55.64 1736.77 53.03Q1736.45 50.41 1736.19 48.39Q1735.92 46.36 1735.75 45.11Q1735.57 43.86 1735.5 43.86Q1735.26 43.79 1734.6 44.11Q1733.94 44.44 1733.13 45.11Q1732.32 45.79 1731.52 46.89Q1730.71 48 1730.11 49.42Q1729.81 50.12 1729.42 52.59Q1729.03 55.06 1728.6 58.19Q1728.18 61.32 1727.76 64.57Q1727.34 67.82 1726.99 70.09Q1726.79 67.13 1726.62 63.65Q1726.45 60.18 1726.28 56.78Q1726.11 53.38 1725.94 50.22Q1725.78 47.06 1725.62 44.64Q1725.47 42.22 1725.29 40.7Q1725.11 39.18 1724.95 39.1Q1724.64 38.95 1723.75 39.55Q1722.86 40.15 1721.9 41.18Q1720.94 42.21 1720.1 43.55Q1719.26 44.89 1719.05 46.23Q1718.99 48.02 1719.45 52.55Q1719.64 54.5 1719.96 57.23Q1720.27 59.96 1720.76 63.66Q1721.24 67.37 1721.94 72.16Q1722.64 76.96 1723.59 82.96Q1723.68 83.58 1724.16 84.32Q1724.64 85.05 1725.27 85.71Q1725.91 86.36 1726.54 86.74Q1727.15 87.11 1727.6 86.97Q1727.62 86.96 1727.64 86.96Q1727.87 86.95 1728.28 85.7Q1728.69 84.44 1729.17 82.44Q1729.65 80.44 1730.12 77.93Q1730.59 75.43 1731.02 72.84Q1731.52 70.33 1731.88 67.99Q1732.24 65.95 1732.56 63.76Q1732.87 61.56 1733.16 59.92Q1733.51 62.41 1733.86 64.99Q1734.22 67.56 1734.56 69.58Q1734.91 72.08 1735.26 74.26Q1735.7 77.54 1736.32 79.79Q1736.94 82.05 1737.11 82.91Q1737.19 83.37 1737.63 84.07Q1738.07 84.77 1738.59 85.46Q1739.11 86.16 1739.7 86.66Q1740.3 87.16 1740.77 87.15Q1741 87.14 1741.44 85.11Q1741.88 83.07 1742.41 79.78Q1742.95 76.49 1743.55 72.22Q1744.15 67.95 1744.7 63.53Q1745.26 59.11 1745.74 54.8Q1746.22 50.5 1746.52 47.06Q1746.82 43.61 1746.91 41.42ZM1541.23 62.53Q1541.47 60.19 1541.45 58.94Q1541.42 57.14 1541.04 55.15Q1540.66 53.17 1540.04 51.38Q1539.43 49.59 1538.67 48.27Q1537.9 46.96 1537.19 46.42Q1537.02 46.31 1536.83 46.22Q1535.86 45.72 1534.68 45.64Q1533.27 45.54 1531.75 45.92Q1530.24 46.29 1528.68 46.98Q1527.13 47.67 1525.82 48.47Q1525.64 47.15 1525.4 46.56Q1525.15 45.98 1524.99 45.51Q1524.67 44.97 1523.72 44.4Q1522.78 43.83 1521.72 43.42Q1520.65 43 1519.75 42.86Q1518.89 42.72 1518.71 43.01Q1518.71 43.02 1518.7 43.03Q1518.47 43.35 1518.45 44.72Q1518.44 46.08 1518.5 47.92Q1518.57 49.75 1518.68 51.82Q1518.79 53.89 1518.89 55.53Q1518.99 56.7 1519.19 59.35Q1519.38 62.01 1519.67 65.29Q1519.95 68.56 1520.32 72.11Q1520.68 75.66 1521 78.67Q1521.32 81.67 1521.59 83.73Q1521.85 85.8 1522.09 86.03Q1522.17 86.18 1522.28 86.24Q1522.55 86.39 1523.03 86.13Q1523.73 85.77 1524.5 85.06Q1525.27 84.34 1525.88 83.51Q1526.49 82.68 1526.64 82.21Q1526.72 81.98 1526.77 80.1Q1526.82 78.22 1526.82 75.61Q1526.82 72.99 1526.81 69.9Q1526.8 66.82 1526.8 64.16Q1526.8 61.5 1526.77 59.59L1526.73 57.36Q1526.72 56.35 1526.9 55.56Q1527.08 54.78 1527.16 54.62Q1527.25 54.43 1527.37 54.25Q1527.63 53.85 1528 53.52Q1528.47 53.12 1529.16 52.76Q1529.86 52.39 1530.87 52.22Q1530.92 52.2 1530.98 52.19Q1531.33 52.12 1531.78 52.56Q1532.29 53.06 1532.7 53.99Q1533.1 54.92 1533.4 56.21Q1533.69 57.49 1533.71 58.9Q1533.72 59.29 1533.63 61.17Q1533.54 63.04 1533.38 65.66Q1533.23 68.28 1533.12 71.29Q1533.01 74.3 1532.93 76.92Q1532.85 79.54 1532.84 81.41Q1532.83 83.29 1532.92 83.6Q1533.08 84.07 1533.75 84.37Q1534.42 84.67 1535.24 84.82Q1536.06 84.96 1536.73 84.91Q1537.39 84.86 1537.54 84.62Q1537.62 84.47 1537.94 82.82Q1538.27 81.18 1538.74 78.75Q1539.21 76.32 1539.67 73.38Q1540.14 70.44 1540.56 67.66Q1540.99 64.88 1541.23 62.53ZM1250.88 60.32Q1251.19 58.52 1251.11 57.66Q1251.01 56.49 1249.43 55.03Q1247.84 53.57 1245.64 52.24Q1244.05 51.28 1242.36 50.54Q1241.69 50.26 1241.03 50Q1238.63 49.1 1236.91 49.13Q1236.06 49.14 1234.93 50.21Q1233.81 51.29 1232.68 52.94Q1231.53 54.6 1230.43 56.57Q1229.31 58.54 1228.49 60.39Q1227.66 62.24 1227.14 63.77Q1226.61 65.3 1226.69 66.01Q1226.79 66.71 1227.98 68.02Q1229.18 69.33 1231 70.94Q1232.81 72.55 1234.96 74.36Q1237.09 76.16 1238.91 77.77Q1240.74 79.39 1241.93 80.7Q1243.12 82.01 1243.21 82.71Q1243.22 83.18 1242.96 84Q1242.68 84.83 1242.31 85.61Q1241.93 86.4 1241.48 86.99Q1241.02 87.59 1240.63 87.59Q1239.92 87.6 1238.34 86.03Q1236.75 84.45 1235.07 82.48Q1233.41 80.51 1231.98 78.93Q1230.55 77.35 1230.07 77.36Q1230.03 77.36 1229.98 77.37Q1229.57 77.46 1229.31 78.19Q1229.01 79.02 1228.91 80.19Q1228.84 81.07 1228.85 81.95Q1228.85 82.24 1228.87 82.54Q1228.93 83.71 1229.17 84.41Q1229.42 85.19 1231.04 86.88Q1232.67 88.57 1234.77 90.3Q1236.87 92.03 1238.96 93.28Q1241.05 94.54 1242.14 94.45Q1243.23 94.35 1244.61 92.85Q1246 91.34 1247.22 89.29Q1248.43 87.24 1249.22 85.04Q1250.01 82.84 1249.91 81.43Q1249.81 80.26 1248.73 78.64Q1247.65 77.02 1246.14 75.2Q1244.63 73.39 1242.84 71.58Q1241.06 69.77 1239.51 68.19Q1237.96 66.62 1236.93 65.46Q1235.9 64.3 1235.89 63.83Q1235.8 63.21 1236.29 61.87Q1236.78 60.54 1237.5 59.2Q1238.22 57.86 1238.99 56.83Q1239.75 55.81 1240.38 55.8Q1241 55.79 1241.67 56.13Q1242.34 56.47 1242.57 56.86Q1242.75 57.64 1242.93 59.59Q1243.12 61.54 1243.42 63.52Q1243.73 65.51 1244.34 66.99Q1244.86 68.25 1245.62 68.42Q1245.75 68.45 1245.88 68.45Q1246.14 68.44 1246.4 68.39Q1247.41 68.16 1248.24 67.08Q1249.28 65.74 1249.92 63.93Q1250.55 62.13 1250.88 60.32ZM1865.13 50.95Q1865.45 49.15 1865.36 48.29Q1865.27 47.12 1863.68 45.66Q1862.1 44.2 1859.89 42.86Q1858.3 41.91 1856.61 41.17Q1855.96 40.88 1855.28 40.63Q1852.89 39.73 1851.17 39.76Q1850.31 39.77 1849.19 40.84Q1848.08 41.91 1846.93 43.57Q1845.78 45.23 1844.68 47.2Q1843.58 49.17 1842.75 51.02Q1841.91 52.87 1841.39 54.4Q1840.87 55.93 1840.96 56.63Q1841.04 57.33 1842.24 58.64Q1843.43 59.95 1845.25 61.57Q1847.07 63.18 1849.21 64.98Q1851.35 66.79 1853.17 68.4Q1854.99 70.01 1856.18 71.32Q1857.37 72.63 1857.46 73.33Q1857.47 73.8 1857.21 74.63Q1856.95 75.45 1856.57 76.24Q1856.19 77.03 1855.73 77.62Q1855.27 78.21 1854.88 78.22Q1854.18 78.23 1852.59 76.65Q1851 75.07 1849.33 73.11Q1847.66 71.14 1846.23 69.56Q1844.8 67.98 1844.33 67.99Q1844.28 67.99 1844.24 68Q1843.83 68.08 1843.56 68.82Q1843.26 69.64 1843.16 70.82Q1843.09 71.7 1843.1 72.58Q1843.11 72.87 1843.12 73.16Q1843.18 74.33 1843.42 75.03Q1843.67 75.81 1845.3 77.51Q1846.93 79.2 1849.02 80.93Q1851.12 82.65 1853.21 83.91Q1855.3 85.17 1856.39 85.07Q1857.48 84.98 1858.87 83.47Q1860.25 81.97 1861.47 79.92Q1862.69 77.87 1863.48 75.67Q1864.26 73.47 1864.16 72.06Q1864.07 70.89 1862.99 69.27Q1861.91 67.64 1860.4 65.83Q1858.88 64.02 1857.1 62.21Q1855.31 60.4 1853.76 58.82Q1852.22 57.24 1851.18 56.09Q1850.15 54.93 1850.14 54.46Q1850.05 53.84 1850.54 52.5Q1851.03 51.16 1851.75 49.83Q1852.47 48.49 1853.24 47.46Q1854 46.43 1854.63 46.42Q1855.25 46.41 1855.92 46.75Q1856.59 47.1 1856.83 47.48Q1857 48.26 1857.19 50.21Q1857.37 52.16 1857.68 54.15Q1857.98 56.14 1858.59 57.61Q1859.11 58.88 1859.88 59.05Q1860 59.08 1860.14 59.07Q1860.4 59.07 1860.65 59.01Q1861.67 58.79 1862.5 57.71Q1863.53 56.37 1864.17 54.56Q1864.81 52.75 1865.13 50.95ZM2009.43 48.75Q2009.76 46.95 2009.67 46.09Q2009.57 44.92 2007.99 43.46Q2006.4 42 2004.19 40.66Q2002.61 39.7 2000.92 38.97Q2000.26 38.68 1999.59 38.43Q1997.19 37.53 1995.47 37.55Q1994.61 37.57 1993.5 38.64Q1992.38 39.71 1991.23 41.37Q1990.09 43.03 1988.98 45Q1987.88 46.97 1987.05 48.82Q1986.22 50.66 1985.7 52.2Q1985.17 53.73 1985.26 54.43Q1985.35 55.13 1986.54 56.44Q1987.73 57.75 1989.56 59.36Q1991.38 60.98 1993.51 62.78Q1995.65 64.58 1997.47 66.2Q1999.29 67.81 2000.49 69.12Q2001.68 70.43 2001.77 71.13Q2001.77 71.6 2001.51 72.43Q2001.25 73.25 2000.87 74.04Q2000.5 74.82 2000.04 75.42Q1999.58 76.01 1999.19 76.02Q1998.48 76.03 1996.9 74.45Q1995.31 72.87 1993.64 70.91Q1991.97 68.94 1990.54 67.36Q1989.11 65.78 1988.64 65.79Q1988.59 65.79 1988.54 65.8Q1988.14 65.88 1987.87 66.62Q1987.57 67.44 1987.47 68.62Q1987.4 69.5 1987.41 70.38Q1987.41 70.67 1987.43 70.96Q1987.48 72.13 1987.73 72.83Q1987.98 73.61 1989.6 75.3Q1991.23 77 1993.33 78.72Q1995.42 80.45 1997.51 81.71Q1999.6 82.96 2000.7 82.87Q2001.79 82.77 2003.17 81.27Q2004.56 79.76 2005.77 77.71Q2006.99 75.66 2007.78 73.46Q2008.57 71.26 2008.47 69.86Q2008.37 68.69 2007.29 67.06Q2006.21 65.44 2004.7 63.63Q2003.19 61.81 2001.4 60Q1999.62 58.2 1998.07 56.62Q1996.52 55.04 1995.49 53.88Q1994.45 52.73 1994.45 52.26Q1994.36 51.63 1994.85 50.3Q1995.33 48.96 1996.06 47.62Q1996.78 46.28 1997.54 45.26Q1998.31 44.23 1998.93 44.22Q1999.56 44.21 2000.23 44.55Q2000.9 44.89 2001.14 45.28Q2001.31 46.06 2001.49 48.01Q2001.68 49.96 2001.98 51.95Q2002.29 53.94 2002.89 55.41Q2003.42 56.68 2004.18 56.85Q2004.31 56.87 2004.44 56.87Q2004.7 56.87 2004.95 56.81Q2005.97 56.59 2006.8 55.51Q2007.84 54.16 2008.47 52.36Q2009.11 50.55 2009.43 48.75ZM1500.05 47.77Q1500.08 46.68 1499.75 46.06Q1499.71 45.98 1499.66 45.91Q1499.21 45.36 1498.1 45.34Q1496.85 45.32 1495.45 45.77Q1495.04 45.9 1494.65 46.07Q1493.69 46.47 1492.82 47.06Q1491.58 47.9 1491.36 48.92Q1491.14 49.94 1491.32 51.11Q1491.49 52.28 1491.89 53.25Q1492.3 54.22 1492.86 54.87Q1493.41 55.53 1493.96 55.6Q1494.67 55.74 1496.19 55.45Q1497.31 55.23 1498.02 54.56Q1498.27 54.33 1498.47 54.05Q1498.85 53.41 1499.23 52.31Q1499.6 51.21 1499.82 50.04Q1500.03 48.86 1500.05 47.77ZM1170.68 57.37Q1170.29 56.79 1169.81 56.25Q1169.26 55.55 1167.29 54.33Q1165.31 53.11 1162.8 52.14Q1160.71 51.33 1158.56 51Q1158.11 50.93 1157.66 50.89Q1155.18 50.63 1153.4 51.61Q1153.29 51.67 1153.18 51.74Q1152.25 52.3 1151.47 54.42Q1150.68 56.54 1150.13 58.89Q1149.57 61.24 1149.29 63.24Q1149.01 65.24 1149.17 65.55Q1149.32 65.78 1150.19 65.92Q1150.9 66.07 1152.35 66.16Q1153.79 66.26 1156.53 66.14Q1156.54 62.08 1157.02 60.08Q1157.5 58.08 1158.11 57.29Q1158.61 56.66 1159.19 56.56Q1159.42 56.52 1159.66 56.56Q1160.76 56.78 1161.55 57.23Q1162.34 57.69 1162.81 58.07Q1163.37 58.61 1163.77 59.15Q1164.25 60.01 1164.44 62.93Q1164.65 65.86 1165.02 69.84Q1164.63 69.69 1163.14 69.44Q1161.65 69.19 1159.81 69.02Q1158.28 68.88 1156.75 68.9Q1156.44 68.91 1156.14 68.92Q1154.31 68.99 1153.22 69.47Q1151.43 70.28 1150.47 71.66Q1150.09 72.21 1149.82 72.84Q1148.93 75.08 1149.13 78.13Q1149.23 79.3 1149.4 80.66Q1149.57 82.03 1149.8 83.24Q1150.01 84.44 1150.3 85.38Q1150.57 86.31 1150.98 86.77Q1151.93 87.93 1153.81 88.6Q1155.71 89.28 1157.93 89.36Q1160.16 89.45 1162.42 88.98Q1164.68 88.52 1166.54 87.4Q1166.8 89.27 1166.81 89.66Q1166.97 90.12 1167.61 90.89Q1168.25 91.67 1169 92.36Q1169.75 93.05 1170.42 93.47Q1171.04 93.85 1171.35 93.68Q1171.38 93.67 1171.4 93.65Q1171.48 93.57 1171.57 92.55Q1171.68 91.54 1171.73 89.78Q1171.79 88.02 1171.82 85.67Q1171.87 83.33 1171.91 80.59Q1172.02 77.54 1172.15 73.52Q1172.28 69.49 1172.22 65.51Q1172.18 63.01 1171.97 61.45Q1171.75 59.89 1171.42 58.92Q1171.09 57.95 1170.68 57.37ZM1395.31 53.94Q1394.91 53.36 1394.44 52.82Q1393.88 52.13 1391.91 50.91Q1389.93 49.69 1387.42 48.71Q1385.33 47.9 1383.18 47.57Q1382.73 47.5 1382.28 47.46Q1379.81 47.2 1378.02 48.18Q1377.91 48.24 1377.8 48.31Q1376.87 48.87 1376.09 50.99Q1375.3 53.11 1374.75 55.46Q1374.2 57.82 1373.92 59.81Q1373.63 61.81 1373.79 62.12Q1373.95 62.35 1374.82 62.5Q1375.52 62.64 1376.97 62.74Q1378.42 62.83 1381.15 62.71Q1381.16 58.65 1381.64 56.65Q1382.12 54.65 1382.73 53.86Q1383.23 53.23 1383.82 53.13Q1384.04 53.09 1384.28 53.13Q1385.38 53.35 1386.17 53.81Q1386.96 54.26 1387.43 54.65Q1387.99 55.18 1388.39 55.73Q1388.87 56.58 1389.07 59.5Q1389.27 62.43 1389.64 66.41Q1389.25 66.26 1387.76 66.01Q1386.27 65.76 1384.43 65.59Q1382.9 65.45 1381.37 65.48Q1381.07 65.48 1380.76 65.49Q1378.93 65.56 1377.84 66.04Q1376.06 66.85 1375.09 68.23Q1374.71 68.78 1374.45 69.42Q1373.55 71.66 1373.75 74.7Q1373.85 75.87 1374.03 77.24Q1374.2 78.6 1374.42 79.81Q1374.63 81.02 1374.92 81.95Q1375.21 82.88 1375.6 83.35Q1376.56 84.5 1378.44 85.18Q1380.33 85.85 1382.56 85.93Q1384.79 86.02 1387.04 85.55Q1389.3 85.09 1391.16 83.97Q1391.42 85.84 1391.43 86.23Q1391.59 86.7 1392.23 87.47Q1392.87 88.24 1393.62 88.93Q1394.37 89.62 1395.04 90.04Q1395.66 90.43 1395.97 90.26Q1396 90.24 1396.02 90.22Q1396.1 90.14 1396.2 89.13Q1396.3 88.11 1396.35 86.35Q1396.41 84.59 1396.45 82.25Q1396.49 79.9 1396.53 77.17Q1396.64 74.12 1396.77 70.09Q1396.9 66.06 1396.84 62.08Q1396.81 59.58 1396.59 58.02Q1396.37 56.46 1396.04 55.49Q1395.71 54.52 1395.31 53.94ZM1672.91 49.7Q1672.51 49.12 1672.03 48.58Q1671.47 47.89 1669.5 46.67Q1667.53 45.45 1665.02 44.47Q1662.93 43.66 1660.77 43.34Q1660.33 43.27 1659.88 43.22Q1657.41 42.96 1655.62 43.95Q1655.51 44.01 1655.4 44.07Q1654.47 44.63 1653.68 46.75Q1652.89 48.88 1652.34 51.23Q1651.79 53.58 1651.51 55.58Q1651.23 57.57 1651.39 57.88Q1651.55 58.12 1652.41 58.26Q1653.12 58.4 1654.56 58.5Q1656.01 58.59 1658.74 58.47Q1658.76 54.41 1659.24 52.41Q1659.71 50.41 1660.33 49.62Q1660.83 48.99 1661.41 48.89Q1661.64 48.86 1661.88 48.89Q1662.98 49.11 1663.76 49.57Q1664.55 50.03 1665.03 50.41Q1665.58 50.95 1665.98 51.49Q1666.46 52.34 1666.66 55.27Q1666.87 58.19 1667.24 62.17Q1666.85 62.02 1665.36 61.77Q1663.87 61.52 1662.03 61.35Q1660.5 61.22 1658.97 61.24Q1658.66 61.24 1658.36 61.25Q1656.52 61.32 1655.44 61.81Q1653.66 62.62 1652.69 64Q1652.31 64.54 1652.05 65.18Q1651.15 67.42 1651.35 70.46Q1651.44 71.63 1651.62 73Q1651.8 74.36 1652.01 75.57Q1652.23 76.78 1652.51 77.71Q1652.8 78.65 1653.2 79.11Q1654.15 80.27 1656.04 80.94Q1657.93 81.62 1660.15 81.7Q1662.38 81.78 1664.64 81.32Q1666.9 80.85 1668.76 79.73Q1669.02 81.6 1669.03 81.99Q1669.19 82.46 1669.83 83.23Q1670.46 84 1671.22 84.69Q1671.97 85.39 1672.64 85.81Q1673.26 86.19 1673.57 86.02Q1673.59 86 1673.62 85.99Q1673.7 85.91 1673.8 84.89Q1673.9 83.87 1673.95 82.11Q1674 80.35 1674.04 78.01Q1674.09 75.66 1674.12 72.93Q1674.23 69.88 1674.37 65.85Q1674.5 61.83 1674.44 57.84Q1674.4 55.35 1674.18 53.79Q1673.96 52.23 1673.64 51.25Q1673.31 50.28 1672.91 49.7ZM1784.95 47.99Q1784.55 47.41 1784.07 46.87Q1783.51 46.18 1781.54 44.96Q1779.57 43.74 1777.05 42.76Q1774.97 41.95 1772.81 41.63Q1772.36 41.56 1771.92 41.51Q1769.45 41.25 1767.65 42.24Q1767.54 42.3 1767.44 42.36Q1766.51 42.92 1765.72 45.04Q1764.93 47.17 1764.38 49.52Q1763.83 51.87 1763.55 53.87Q1763.27 55.86 1763.43 56.17Q1763.59 56.41 1764.45 56.55Q1765.15 56.69 1766.6 56.79Q1768.05 56.88 1770.78 56.77Q1770.8 52.7 1771.27 50.7Q1771.75 48.7 1772.36 47.91Q1772.86 47.28 1773.45 47.18Q1773.68 47.15 1773.92 47.18Q1775.01 47.4 1775.8 47.86Q1776.59 48.32 1777.06 48.7Q1777.62 49.24 1778.02 49.78Q1778.5 50.63 1778.7 53.56Q1778.9 56.48 1779.28 60.46Q1778.88 60.31 1777.39 60.06Q1775.91 59.81 1774.07 59.65Q1772.54 59.51 1771.01 59.53Q1770.7 59.53 1770.39 59.54Q1768.56 59.61 1767.47 60.1Q1765.69 60.91 1764.73 62.29Q1764.34 62.83 1764.09 63.47Q1763.18 65.71 1763.38 68.75Q1763.48 69.92 1763.66 71.29Q1763.83 72.65 1764.05 73.86Q1764.26 75.07 1764.55 76Q1764.84 76.94 1765.24 77.4Q1766.19 78.56 1768.08 79.23Q1769.96 79.91 1772.19 79.99Q1774.42 80.07 1776.68 79.61Q1778.94 79.14 1780.79 78.02Q1781.06 79.89 1781.06 80.28Q1781.23 80.75 1781.86 81.52Q1782.5 82.29 1783.25 82.98Q1784.01 83.68 1784.68 84.1Q1785.29 84.48 1785.6 84.31Q1785.63 84.3 1785.66 84.28Q1785.73 84.2 1785.83 83.18Q1785.94 82.16 1785.99 80.4Q1786.04 78.64 1786.08 76.3Q1786.12 73.95 1786.16 71.22Q1786.27 68.17 1786.4 64.14Q1786.54 60.12 1786.48 56.13Q1786.44 53.64 1786.22 52.08Q1786 50.52 1785.67 49.54Q1785.34 48.57 1784.95 47.99ZM1966.99 45.22Q1966.59 44.64 1966.11 44.1Q1965.55 43.4 1963.58 42.18Q1961.61 40.96 1959.09 39.98Q1957.01 39.17 1954.85 38.85Q1954.41 38.78 1953.96 38.73Q1951.49 38.48 1949.69 39.46Q1949.58 39.52 1949.48 39.58Q1948.55 40.14 1947.76 42.27Q1946.97 44.39 1946.42 46.74Q1945.87 49.09 1945.59 51.09Q1945.31 53.09 1945.47 53.4Q1945.63 53.63 1946.49 53.77Q1947.2 53.92 1948.64 54.01Q1950.09 54.11 1952.82 53.99Q1952.84 49.92 1953.32 47.92Q1953.79 45.92 1954.41 45.13Q1954.9 44.51 1955.49 44.41Q1955.72 44.37 1955.96 44.41Q1957.05 44.62 1957.84 45.08Q1958.63 45.54 1959.11 45.92Q1959.66 46.46 1960.06 47Q1960.54 47.85 1960.74 50.78Q1960.94 53.71 1961.32 57.69Q1960.92 57.54 1959.44 57.28Q1957.95 57.03 1956.11 56.87Q1954.58 56.73 1953.05 56.75Q1952.74 56.76 1952.43 56.77Q1950.6 56.83 1949.51 57.32Q1947.74 58.13 1946.77 59.51Q1946.38 60.06 1946.13 60.69Q1945.22 62.93 1945.43 65.98Q1945.52 67.15 1945.7 68.51Q1945.88 69.88 1946.09 71.08Q1946.3 72.29 1946.59 73.22Q1946.88 74.16 1947.28 74.62Q1948.23 75.78 1950.12 76.45Q1952 77.13 1954.23 77.21Q1956.46 77.29 1958.72 76.83Q1960.98 76.37 1962.83 75.24Q1963.1 77.11 1963.1 77.5Q1963.27 77.97 1963.9 78.74Q1964.54 79.51 1965.29 80.21Q1966.05 80.9 1966.72 81.32Q1967.33 81.7 1967.64 81.53Q1967.67 81.52 1967.7 81.5Q1967.77 81.42 1967.88 80.4Q1967.98 79.38 1968.03 77.62Q1968.08 75.87 1968.12 73.52Q1968.16 71.18 1968.2 68.44Q1968.31 65.39 1968.44 61.37Q1968.58 57.34 1968.52 53.36Q1968.48 50.86 1968.26 49.3Q1968.04 47.74 1967.71 46.77Q1967.39 45.8 1966.99 45.22ZM1472.16 96.72Q1472.92 95.69 1473.07 95.22Q1473.22 94.51 1473.3 92.17Q1473.38 89.82 1473.45 86.38Q1473.51 82.94 1473.49 78.8Q1473.46 74.66 1473.44 70.41Q1473.41 66.15 1473.31 62.13Q1473.21 58.1 1473.05 54.94Q1472.88 51.78 1472.69 49.79Q1472.51 47.8 1472.27 47.65Q1472.25 47.63 1472.23 47.62Q1471.76 47.36 1470.94 47.71Q1470.09 48.07 1469.28 48.83Q1469.12 48.98 1468.96 49.14Q1468.35 49.77 1467.86 50.53Q1467.25 51.47 1467.18 52.26Q1463.96 50.74 1461.14 50.24Q1458.32 49.74 1456.46 50.7Q1455.6 51.18 1454.76 52.41Q1453.92 53.63 1453.2 55.28Q1452.49 56.93 1451.97 58.78Q1451.45 60.62 1451.4 62.34Q1451.27 64.06 1451.74 66.95Q1452.22 69.83 1452.81 72.67Q1453.4 75.52 1453.98 77.73Q1454.56 79.95 1454.8 80.42Q1454.97 81.51 1455.33 82.17Q1455.7 82.83 1456.01 83.13Q1456.8 83.82 1458.1 84.23Q1458.37 84.32 1458.64 84.39Q1459.68 84.67 1460.76 84.78Q1462.13 84.92 1463.38 84.9Q1464.63 84.88 1465.33 84.63Q1465.49 84.63 1465.61 84.59Q1465.72 84.55 1465.88 84.55Q1465.54 88.22 1465.31 90.77Q1465.07 93.31 1464.77 93.86Q1464.73 93.95 1464.66 94.02Q1464.27 94.43 1463.05 94.04Q1461.64 93.6 1460.03 92.84Q1458.41 92.08 1456.96 91.36Q1455.5 90.64 1455.11 90.65Q1455.03 90.65 1454.96 90.68Q1454.7 90.79 1454.61 91.32Q1454.51 91.99 1454.6 92.92Q1454.69 93.86 1454.9 94.79Q1455.11 95.73 1455.35 96.27Q1455.67 96.81 1456.86 97.93Q1458.05 99.04 1459.67 100.11Q1461.29 101.18 1463.06 101.82Q1464.52 102.35 1465.84 102.1Q1466.11 102.05 1466.38 101.96Q1467.08 101.72 1468.16 100.84Q1469.24 99.97 1470.32 98.85Q1471.39 97.74 1472.16 96.72ZM1579.04 95.09Q1579.81 94.06 1579.96 93.59Q1580.1 92.88 1580.18 90.54Q1580.26 88.19 1580.33 84.75Q1580.39 81.31 1580.37 77.17Q1580.34 73.03 1580.32 68.77Q1580.29 64.52 1580.19 60.49Q1580.09 56.47 1579.93 53.31Q1579.76 50.15 1579.57 48.16Q1579.39 46.17 1579.15 46.02Q1579.13 46 1579.11 45.99Q1578.64 45.73 1577.82 46.08Q1576.97 46.44 1576.16 47.19Q1576 47.35 1575.85 47.5Q1575.23 48.14 1574.74 48.9Q1574.13 49.84 1574.06 50.63Q1570.84 49.11 1568.02 48.61Q1565.2 48.1 1563.34 49.07Q1562.48 49.55 1561.64 50.78Q1560.8 52 1560.09 53.65Q1559.37 55.3 1558.85 57.15Q1558.33 58.99 1558.28 60.71Q1558.15 62.43 1558.62 65.32Q1559.1 68.2 1559.69 71.04Q1560.28 73.89 1560.86 76.1Q1561.44 78.32 1561.68 78.79Q1561.85 79.88 1562.21 80.54Q1562.58 81.19 1562.89 81.5Q1563.69 82.19 1564.98 82.6Q1565.25 82.69 1565.52 82.76Q1566.56 83.04 1567.65 83.15Q1569.02 83.28 1570.27 83.27Q1571.52 83.25 1572.21 83Q1572.37 83 1572.49 82.96Q1572.6 82.92 1572.76 82.91Q1572.43 86.59 1572.19 89.14Q1571.96 91.68 1571.65 92.23Q1571.61 92.32 1571.54 92.39Q1571.15 92.8 1569.94 92.41Q1568.52 91.96 1566.91 91.21Q1565.3 90.45 1563.84 89.73Q1562.38 89.01 1561.99 89.02Q1561.91 89.02 1561.84 89.05Q1561.58 89.16 1561.49 89.69Q1561.39 90.35 1561.48 91.29Q1561.57 92.23 1561.78 93.16Q1561.99 94.1 1562.23 94.64Q1562.56 95.18 1563.74 96.3Q1564.93 97.41 1566.55 98.48Q1568.17 99.55 1569.94 100.19Q1571.4 100.72 1572.72 100.47Q1572.99 100.42 1573.26 100.33Q1573.96 100.09 1575.04 99.21Q1576.12 98.33 1577.2 97.22Q1578.27 96.11 1579.04 95.09ZM1044.89 78.63Q1042.39 78.74 1039.89 78.94Q1040.69 75.41 1041.5 71.41Q1042.23 67.96 1043.1 63.61Q1043.97 59.26 1044.84 54.64Q1045.77 59.78 1046.69 64.06Q1047.62 68.35 1048.3 71.54Q1049.14 75.28 1049.81 78.32Q1047.39 78.51 1044.89 78.63ZM1433.46 52.26Q1432.86 51.14 1432.23 50.76Q1430.97 50.07 1429.72 49.98L1429.7 49.97Q1428.45 49.88 1427.18 50.21Q1425.9 50.54 1424.54 51.23Q1423.18 51.91 1421.71 52.72Q1421.46 51.94 1421.22 51.55Q1420.9 51.09 1419.96 50.56Q1419.01 50.02 1417.95 49.69Q1416.89 49.35 1415.99 49.25Q1415.09 49.14 1414.94 49.38Q1414.71 49.62 1414.69 50.83Q1414.67 52.04 1414.73 53.64Q1414.79 55.24 1414.9 57.04Q1415.01 58.83 1415.11 60.32Q1415.2 61.33 1415.39 63.63Q1415.58 65.94 1415.86 68.82Q1416.14 71.71 1416.5 74.83Q1416.86 77.95 1417.17 80.56Q1417.49 83.17 1417.75 84.97Q1418.01 86.76 1418.25 86.99Q1418.3 87.08 1418.39 87.13Q1418.65 87.29 1419.19 87.02Q1419.88 86.65 1420.66 86.06Q1421.43 85.46 1422.04 84.75Q1422.66 84.03 1422.81 83.64Q1422.88 83.41 1422.9 81.92Q1422.91 80.44 1422.92 78.29Q1422.93 76.14 1422.93 73.64Q1422.93 71.14 1422.93 68.87Q1422.94 66.61 1422.95 64.89Q1422.96 63.17 1422.95 62.62Q1423.08 60.9 1423.23 60.04Q1423.37 59.18 1423.52 58.94Q1423.9 58.31 1424.37 57.75Q1424.75 57.28 1425.29 56.84Q1425.83 56.4 1426.53 56.08Q1426.56 56.08 1426.59 56.08Q1427.26 56.12 1427.87 57.15Q1428.43 58.08 1428.94 60.3Q1429.44 62.52 1429.66 66.82Q1432.15 66.31 1433.55 65.9Q1434.95 65.48 1435.65 65.16Q1436.43 64.84 1436.58 64.52Q1436.65 64.29 1436.56 63.31Q1436.47 62.34 1436.17 60.93Q1435.88 59.53 1435.5 57.9Q1435.12 56.26 1434.6 54.82Q1434.07 53.39 1433.46 52.26ZM2118.88 41.8Q2118.29 40.68 2117.65 40.3Q2116.39 39.61 2115.14 39.52L2115.12 39.51Q2113.87 39.42 2112.61 39.75Q2111.33 40.08 2109.97 40.77Q2108.61 41.45 2107.13 42.26Q2106.88 41.48 2106.64 41.09Q2106.33 40.63 2105.38 40.09Q2104.44 39.56 2103.37 39.23Q2102.32 38.89 2101.42 38.79Q2100.52 38.68 2100.37 38.92Q2100.13 39.16 2100.12 40.37Q2100.1 41.58 2100.15 43.18Q2100.22 44.78 2100.33 46.58Q2100.43 48.37 2100.54 49.86Q2100.62 50.87 2100.82 53.17Q2101.01 55.48 2101.29 58.36Q2101.57 61.25 2101.93 64.37Q2102.29 67.49 2102.6 70.1Q2102.92 72.71 2103.18 74.51Q2103.44 76.3 2103.68 76.53Q2103.73 76.62 2103.81 76.67Q2104.08 76.83 2104.62 76.56Q2105.31 76.19 2106.09 75.6Q2106.86 75 2107.47 74.29Q2108.09 73.57 2108.24 73.18Q2108.31 72.94 2108.33 71.46Q2108.34 69.98 2108.35 67.83Q2108.36 65.68 2108.36 63.18Q2108.36 60.68 2108.36 58.41Q2108.37 56.15 2108.37 54.43Q2108.38 52.71 2108.37 52.16Q2108.51 50.44 2108.65 49.58Q2108.8 48.72 2108.95 48.48Q2109.33 47.85 2109.79 47.29Q2110.18 46.82 2110.72 46.38Q2111.26 45.94 2111.96 45.62Q2111.99 45.62 2112.02 45.62Q2112.69 45.66 2113.3 46.69Q2113.86 47.62 2114.36 49.84Q2114.87 52.06 2115.09 56.36Q2117.58 55.85 2118.98 55.44Q2120.37 55.02 2121.08 54.7Q2121.86 54.38 2122.01 54.06Q2122.08 53.83 2121.99 52.85Q2121.89 51.88 2121.6 50.47Q2121.31 49.07 2120.93 47.44Q2120.55 45.8 2120.02 44.36Q2119.49 42.93 2118.88 41.8ZM1209.3 59.9Q1209.13 56.9 1208.94 55.03Q1208.76 53.15 1208.53 53Q1208.49 52.98 1208.44 52.96Q1207.99 52.72 1207.24 53.06Q1206.42 53.42 1205.65 54.14Q1204.88 54.85 1204.27 55.76Q1203.66 56.67 1203.67 57.37Q1203.68 58 1203.6 60.34Q1203.52 62.69 1203.41 66.05Q1203.31 69.41 1203.13 73.44Q1202.96 77.46 1202.79 81.29Q1202.31 81.54 1201.78 81.78Q1200.68 82.19 1199.37 82.44Q1199.3 82.47 1199.23 82.48Q1198.9 82.52 1198.5 82.14Q1198.03 81.68 1197.57 80.87Q1197.14 80.05 1196.85 78.92Q1196.56 77.8 1196.54 76.55Q1196.54 76.23 1196.67 74.59Q1196.8 72.95 1196.96 70.64Q1197.12 68.33 1197.27 65.71Q1197.43 63.09 1197.59 60.82Q1197.75 58.56 1197.77 56.92Q1197.78 55.27 1197.69 54.96Q1197.53 54.57 1196.9 54.27Q1196.73 54.19 1196.55 54.12Q1196.07 53.94 1195.56 53.86Q1194.86 53.76 1194.24 53.8Q1193.62 53.85 1193.46 54.09Q1193.39 54.25 1193.06 55.7Q1192.73 57.15 1192.25 59.27Q1191.78 61.38 1191.31 63.97Q1190.84 66.55 1190.41 68.98Q1189.98 71.41 1189.74 73.45Q1189.49 75.48 1189.51 76.57Q1189.53 78.14 1189.94 79.89Q1190.37 81.64 1190.98 83.15Q1191.59 84.67 1192.35 85.83Q1193.11 86.99 1193.81 87.45Q1193.96 87.54 1194.1 87.62Q1195.52 88.41 1197.54 88.13Q1199.76 87.83 1202.48 86.85Q1202.23 90.84 1201.96 93.61Q1201.68 96.39 1201.39 97.02Q1201.35 97.08 1201.3 97.13Q1200.93 97.52 1199.75 97.12Q1198.41 96.68 1196.84 95.96Q1195.26 95.24 1193.89 94.56Q1192.51 93.87 1192.19 93.88Q1192.11 93.88 1192.05 93.91Q1191.78 94.02 1191.69 94.55Q1191.59 95.22 1191.68 96.11Q1191.77 97.01 1191.98 97.91Q1192.18 98.8 1192.43 99.27Q1192.68 99.73 1193.82 100.85Q1194.98 101.96 1196.51 102.96Q1197.31 103.47 1198.17 103.88Q1198.94 104.26 1199.78 104.55Q1201.41 105.11 1202.75 104.71Q1202.82 104.68 1202.91 104.66Q1203.61 104.41 1204.65 103.57Q1205.68 102.74 1206.68 101.71Q1207.68 100.68 1208.42 99.69Q1209.15 98.7 1209.3 98.23Q1209.43 97.6 1209.52 95.33Q1209.61 93.07 1209.67 89.82Q1209.74 86.58 1209.72 82.63Q1209.69 78.69 1209.64 74.63L1209.52 66.74Q1209.46 62.91 1209.3 59.9ZM1823.55 50.53Q1823.39 47.52 1823.2 45.65Q1823.02 43.78 1822.78 43.63Q1822.74 43.6 1822.71 43.58Q1822.25 43.35 1821.49 43.69Q1820.68 44.05 1819.91 44.76Q1819.14 45.48 1818.52 46.39Q1817.91 47.29 1817.92 48Q1817.93 48.62 1817.85 50.97Q1817.77 53.31 1817.67 56.67Q1817.56 60.04 1817.39 64.06Q1817.22 68.09 1817.04 71.92Q1816.57 72.16 1816.03 72.4Q1814.94 72.81 1813.62 73.07Q1813.55 73.09 1813.49 73.1Q1813.15 73.15 1812.75 72.77Q1812.28 72.31 1811.84 71.49Q1811.39 70.68 1811.1 69.55Q1810.81 68.42 1810.79 67.17Q1810.79 66.86 1810.92 65.22Q1811.05 63.57 1811.21 61.27Q1811.37 58.96 1811.53 56.34Q1811.68 53.72 1811.84 51.45Q1812 49.18 1812.02 47.54Q1812.03 45.9 1811.95 45.59Q1811.79 45.2 1811.16 44.9Q1810.98 44.81 1810.8 44.75Q1810.33 44.57 1809.82 44.49Q1809.12 44.38 1808.49 44.43Q1807.87 44.48 1807.72 44.72Q1807.64 44.87 1807.31 46.32Q1806.98 47.77 1806.51 49.89Q1806.03 52.01 1805.56 54.59Q1805.09 57.18 1804.66 59.61Q1804.23 62.04 1803.99 64.07Q1803.75 66.11 1803.76 67.2Q1803.79 68.76 1804.2 70.51Q1804.62 72.27 1805.23 73.78Q1805.84 75.29 1806.6 76.46Q1807.36 77.62 1808.07 78.07Q1808.21 78.17 1808.36 78.25Q1809.78 79.04 1811.79 78.76Q1814.01 78.45 1816.73 77.47Q1816.48 81.46 1816.21 84.24Q1815.94 87.02 1815.64 87.65Q1815.6 87.71 1815.55 87.76Q1815.18 88.15 1814 87.75Q1812.66 87.3 1811.09 86.58Q1809.52 85.86 1808.14 85.18Q1806.76 84.5 1806.45 84.51Q1806.37 84.51 1806.3 84.54Q1806.04 84.65 1805.95 85.18Q1805.84 85.84 1805.94 86.74Q1806.03 87.64 1806.24 88.53Q1806.45 89.43 1806.69 89.89Q1806.93 90.36 1808.08 91.47Q1809.23 92.59 1810.77 93.58Q1811.57 94.1 1812.42 94.51Q1813.2 94.88 1814.03 95.17Q1815.66 95.74 1817 95.33Q1817.08 95.31 1817.16 95.28Q1817.86 95.04 1818.9 94.2Q1819.95 93.36 1820.95 92.33Q1821.95 91.3 1822.67 90.31Q1823.4 89.33 1823.55 88.85Q1823.7 88.23 1823.78 85.96Q1823.86 83.69 1823.93 80.45Q1824 77.21 1823.97 73.26Q1823.95 69.31 1823.89 65.25L1823.77 57.36Q1823.71 53.54 1823.55 50.53ZM2080.49 62.74Q2082.28 62.25 2082.35 62.09Q2082.43 61.85 2082.4 60.37Q2082.37 58.89 2082.32 57.21Q2082.25 55.53 2082.14 54.04Q2082.05 52.56 2082.05 52.25Q2081.84 48.97 2081.18 46.68Q2080.52 44.38 2079.73 43.61Q2078.37 42.3 2075.68 41.95Q2072.98 41.61 2070.02 42.2Q2068.76 42.45 2067.56 42.87Q2065.94 43.44 2064.42 44.31Q2062.04 45.7 2060.87 47.77Q2060.76 47.98 2060.65 48.2Q2059.89 49.85 2059.51 52.52Q2059.12 55.18 2058.97 58.31Q2058.83 61.43 2058.95 64.71Q2059.08 67.99 2059.32 70.72Q2059.56 73.45 2059.89 75.36Q2060.24 77.27 2060.63 77.74Q2061.2 78.43 2063.39 79.45Q2065.6 80.47 2068.35 81.17Q2070.04 81.6 2071.75 81.77Q2072.82 81.87 2073.9 81.87Q2076.46 81.87 2078.22 80.68Q2078.39 80.56 2078.57 80.43Q2079.19 79.95 2079.72 78.81Q2080.25 77.67 2080.69 76.22Q2081.13 74.77 2081.47 73.16Q2081.8 71.55 2082.05 70.18Q2082.3 68.81 2082.36 67.87Q2082.43 66.93 2082.35 66.7Q2082.19 66.55 2081.4 66.48Q2080.78 66.41 2079.4 66.51Q2078.05 66.61 2075.62 67.04Q2075.7 71.25 2075.22 73.22Q2074.74 75.18 2074.12 75.97Q2073.57 76.6 2072.95 76.66Q2072.73 76.68 2072.5 76.62Q2071.32 76.48 2070.5 76.14Q2069.67 75.8 2069.12 75.42Q2068.49 74.96 2068.09 74.42Q2067.69 73.8 2067.1 71.35Q2066.52 68.89 2066.08 65.78Q2068.11 65.43 2070.9 64.88Q2073.72 64.33 2076.21 63.79Q2078.7 63.24 2080.49 62.74ZM1465.94 57.59Q1466.57 57.89 1467.04 58.2Q1466.71 62.26 1466.54 66.45Q1466.37 70.63 1466.21 75.79Q1466.22 76.49 1466.07 76.65Q1465.87 78.69 1464.86 79.4Q1464.63 79.56 1464.17 79.81Q1463.7 80.05 1463.12 80.21Q1462.53 80.38 1461.95 80.39Q1461.4 80.39 1461.09 80.13Q1461.07 80.11 1461.04 80.09Q1460.97 80.01 1460.79 78.72Q1460.61 77.44 1460.39 75.57Q1460.17 73.69 1459.98 71.51Q1459.79 69.32 1459.6 67.45Q1459.42 65.58 1459.32 64.25Q1459.22 62.93 1459.22 62.77Q1459.2 61.88 1459.4 61.05Q1459.5 60.63 1459.65 60.22Q1460.1 59.01 1460.75 58.14Q1461.4 57.27 1462.06 56.79Q1462.71 56.31 1463.11 56.46Q1463.97 56.68 1464.68 56.98Q1465.38 57.28 1465.94 57.59ZM1572.82 55.96Q1573.45 56.26 1573.92 56.57Q1573.59 60.63 1573.42 64.82Q1573.25 69 1573.1 74.16Q1573.11 74.86 1572.95 75.02Q1572.75 77.05 1571.74 77.77Q1571.51 77.93 1571.05 78.17Q1570.58 78.42 1570 78.58Q1569.41 78.75 1568.83 78.76Q1568.28 78.76 1567.97 78.5Q1567.95 78.48 1567.93 78.46Q1567.85 78.38 1567.67 77.09Q1567.49 75.81 1567.27 73.94Q1567.05 72.06 1566.86 69.88Q1566.67 67.69 1566.48 65.82Q1566.3 63.95 1566.2 62.62Q1566.1 61.3 1566.1 61.14Q1566.09 60.25 1566.28 59.42Q1566.38 59 1566.53 58.59Q1566.98 57.38 1567.63 56.51Q1568.28 55.64 1568.94 55.16Q1569.59 54.68 1569.99 54.83Q1570.85 55.05 1571.56 55.35Q1572.27 55.65 1572.82 55.96ZM1499.79 61.17Q1499.72 59.1 1499.56 58.72Q1499.5 58.58 1499.41 58.48Q1499.02 58.01 1498.1 58Q1496.97 57.97 1495.68 58.38Q1495.33 58.5 1494.99 58.64Q1494.09 59.02 1493.28 59.59Q1492.2 60.37 1491.96 61.35Q1491.95 61.38 1491.94 61.41Q1491.79 62.04 1491.83 64.23Q1491.86 66.41 1492.06 69.34Q1492.26 72.27 1492.55 75.47Q1492.83 78.67 1493.18 81.39Q1493.54 84.12 1493.92 85.92Q1494.3 87.71 1494.61 87.7Q1495.24 87.85 1496.64 87.55Q1497.56 87.36 1498.17 86.82Q1498.49 86.54 1498.73 86.15Q1498.95 85.76 1499.16 83.69Q1499.36 81.61 1499.51 78.68Q1499.66 75.75 1499.77 72.43Q1499.87 69.1 1499.87 66.17Q1499.86 63.24 1499.79 61.17ZM2068.22 60Q2066.62 60.61 2065.37 61.1Q2065.12 59.07 2065.01 57.2Q2064.9 55.32 2065.04 54.07Q2065.13 52.61 2065.9 51.76Q2066.12 51.51 2066.4 51.32Q2066.83 51.01 2067.29 50.78Q2068.15 50.32 2069.15 50.1Q2070.68 49.77 2072.12 49.94Q2073.58 50.11 2074.21 50.34Q2074.44 50.49 2074.69 51.27Q2074.93 52.05 2075.11 53.1Q2075.28 54.15 2075.4 55.28Q2075.55 56.41 2075.63 57.27Q2075.1 57.51 2073.93 57.92Q2072.76 58.33 2071.29 58.86Q2069.81 59.39 2068.22 60ZM1165.38 78.08Q1165.31 78.74 1165.31 79.13Q1165.22 80.58 1164.43 81.39Q1164.25 81.58 1164.03 81.73Q1163.46 82.12 1162.82 82.36Q1162.18 82.6 1161.47 82.67Q1160.55 82.76 1159.65 82.68Q1159.17 82.64 1158.68 82.55Q1157.31 82.3 1156.77 81.92Q1156.53 81.77 1156.32 81.22Q1156.12 80.68 1156 79.94Q1155.87 79.2 1155.78 78.42Q1155.68 77.64 1155.68 76.93Q1155.73 75.45 1155.99 74.74Q1156.14 74.35 1156.4 74.05Q1156.6 73.81 1156.88 73.63Q1157.34 73.32 1158.59 73.26Q1159.84 73.2 1161.25 73.29Q1162.65 73.39 1163.79 73.69Q1164.93 73.98 1165.17 74.45Q1165.32 74.76 1165.38 75.38Q1165.43 76 1165.43 76.71Q1165.44 77.41 1165.38 78.08ZM1390 74.65Q1389.94 75.31 1389.94 75.7Q1389.84 77.16 1389.06 77.96Q1388.88 78.15 1388.65 78.3Q1388.08 78.69 1387.45 78.93Q1386.8 79.17 1386.09 79.24Q1385.17 79.33 1384.27 79.25Q1383.79 79.21 1383.31 79.13Q1381.94 78.87 1381.39 78.49Q1381.15 78.34 1380.95 77.79Q1380.75 77.25 1380.62 76.51Q1380.49 75.77 1380.4 74.99Q1380.31 74.21 1380.3 73.51Q1380.35 72.02 1380.62 71.31Q1380.76 70.92 1381.02 70.62Q1381.22 70.38 1381.5 70.21Q1381.96 69.89 1383.21 69.83Q1384.46 69.77 1385.87 69.87Q1387.28 69.96 1388.41 70.26Q1389.55 70.55 1389.79 71.02Q1389.95 71.33 1390 71.95Q1390.05 72.58 1390.06 73.28Q1390.07 73.98 1390 74.65ZM1667.6 70.41Q1667.53 71.08 1667.54 71.47Q1667.43 72.92 1666.66 73.72Q1666.47 73.91 1666.25 74.07Q1665.68 74.46 1665.05 74.69Q1664.4 74.93 1663.68 75Q1662.77 75.09 1661.86 75.02Q1661.38 74.98 1660.91 74.89Q1659.54 74.64 1658.98 74.25Q1658.75 74.1 1658.54 73.56Q1658.34 73.01 1658.21 72.27Q1658.08 71.53 1657.99 70.75Q1657.9 69.97 1657.89 69.27Q1657.95 67.79 1658.21 67.08Q1658.36 66.68 1658.62 66.38Q1658.82 66.15 1659.09 65.97Q1659.56 65.65 1660.81 65.59Q1662.06 65.53 1663.46 65.63Q1664.87 65.73 1666.01 66.02Q1667.15 66.32 1667.39 66.78Q1667.55 67.09 1667.6 67.72Q1667.65 68.34 1667.66 69.04Q1667.67 69.75 1667.6 70.41ZM1779.64 68.7Q1779.57 69.37 1779.57 69.76Q1779.47 71.21 1778.69 72.01Q1778.51 72.2 1778.29 72.36Q1777.71 72.75 1777.08 72.98Q1776.43 73.22 1775.72 73.29Q1774.8 73.38 1773.9 73.31Q1773.42 73.27 1772.95 73.18Q1771.57 72.93 1771.02 72.54Q1770.78 72.39 1770.58 71.85Q1770.38 71.3 1770.25 70.56Q1770.12 69.82 1770.03 69.04Q1769.94 68.26 1769.93 67.56Q1769.99 66.08 1770.25 65.37Q1770.39 64.97 1770.65 64.67Q1770.86 64.44 1771.13 64.26Q1771.59 63.94 1772.84 63.88Q1774.09 63.82 1775.5 63.92Q1776.91 64.02 1778.05 64.31Q1779.18 64.61 1779.42 65.07Q1779.59 65.38 1779.63 66.01Q1779.68 66.63 1779.69 67.33Q1779.7 68.04 1779.64 68.7ZM1961.68 65.92Q1961.61 66.59 1961.61 66.98Q1961.51 68.43 1960.73 69.23Q1960.55 69.42 1960.33 69.58Q1959.76 69.97 1959.13 70.2Q1958.48 70.44 1957.76 70.52Q1956.84 70.61 1955.94 70.53Q1955.46 70.49 1954.99 70.4Q1953.62 70.15 1953.06 69.77Q1952.83 69.61 1952.62 69.07Q1952.42 68.53 1952.29 67.79Q1952.16 67.05 1952.07 66.27Q1951.98 65.49 1951.97 64.78Q1952.03 63.3 1952.29 62.59Q1952.44 62.19 1952.69 61.9Q1952.9 61.66 1953.17 61.48Q1953.63 61.16 1954.88 61.1Q1956.13 61.05 1957.54 61.14Q1958.95 61.24 1960.09 61.53Q1961.22 61.83 1961.47 62.29Q1961.63 62.6 1961.68 63.23Q1961.72 63.85 1961.73 64.56Q1961.75 65.26 1961.68 65.92ZM1605.3 82.46Q1605.78 80.3 1605.98 78.5Q1606.13 77.8 1606.19 76.86Q1606.26 75.92 1606.09 75.53Q1606.06 75.44 1606 75.35Q1605.68 74.91 1604.76 74.89Q1603.66 74.86 1602.34 75.28Q1601.94 75.4 1601.55 75.55Q1600.66 75.9 1599.82 76.41Q1598.62 77.13 1598.24 78.07Q1598.09 78.47 1598.02 78.82Q1597.95 79.17 1597.73 80.19Q1597.58 80.97 1597.53 82.81Q1597.48 84.65 1597.47 86.56Q1597.46 88.48 1597.53 90.12Q1597.59 91.76 1597.83 92.06Q1598.02 92.43 1598.31 92.66Q1598.52 92.82 1598.78 92.91Q1599.12 93.03 1599.47 93.08Q1599.77 93.13 1600.07 93.12Q1600.64 93.12 1601.14 92.94Q1601.23 92.91 1601.32 92.87Q1601.79 92.67 1602.08 92.32Q1602.15 92.24 1602.21 92.15Q1602.59 91.6 1603.15 90.07Q1603.72 88.54 1604.27 86.58Q1604.83 84.61 1605.3 82.46Z" fill="#FFFFFF" fill-opacity="1.000000" fill-rule="evenodd"/>
	<path id="Always charging, always faster" d="M34.33 131.7Q34.53 130.37 34.37 130.14Q33.98 129.9 30.07 129.9Q29.53 125.76 28.94 121.19Q28.35 116.62 27.73 112.25Q27.1 107.87 26.44 103.93Q25.78 99.98 25.19 97.01Q24.6 94.04 24.1 92.28Q23.59 90.53 23.2 90.53Q22.26 90.53 20.31 91.15Q18.35 91.78 16.21 92.91Q14.06 94.04 12.1 95.72Q10.15 97.4 9.37 99.51Q8.9 100.76 8.24 104.08Q7.57 107.4 6.87 111.85Q6.17 116.31 5.46 121.39Q4.76 126.46 4.14 131.15Q2.26 131.31 1.13 131.46Q0 131.62 0 131.78Q0 132.09 0.39 132.67Q0.78 133.26 1.32 133.85Q1.87 134.43 2.42 134.98Q2.96 135.53 3.28 135.68L3.59 135.68Q3.35 137.56 3.12 139.51Q2.96 141.15 2.69 143.1Q2.42 145.06 2.26 146.85Q2.26 147.64 2.57 148.81Q2.79 149.62 3.1 150.39Q3.24 150.73 3.39 151.07Q3.9 152.17 4.53 152.95Q5.15 153.73 5.78 153.73Q6.01 153.73 6.48 152.4Q6.95 151.07 7.61 148.81Q8.28 146.54 9.02 143.5Q9.76 140.45 10.54 137.01Q12.1 137.25 13.78 137.52Q15.46 137.79 17.18 137.95Q18.9 138.1 20.58 138.26Q22.26 138.42 23.82 138.57Q25.39 144.67 26.64 148.18Q27.89 151.7 28.28 152.4Q28.35 152.55 28.47 152.6Q28.72 152.71 29.17 152.36Q29.84 151.85 30.46 151Q31.09 150.14 31.6 149.12Q32.1 148.1 32.1 147.56Q32.1 147.32 31.87 145.06Q31.64 142.79 31.25 139.04Q31.48 139.12 31.71 139.12L32.5 139.12Q32.73 138.89 33.08 137.52Q33.43 136.15 33.78 134.59Q34.14 133.03 34.33 131.7ZM749.59 101.07Q749.28 99.82 748.89 98.96Q748.5 98.18 747.48 96.89Q746.47 95.6 745.06 94.47Q744.24 93.81 743.32 93.38Q742.66 93.07 741.94 92.87Q741.46 92.74 740.98 92.71Q739.72 92.64 738.42 93.26Q737.64 93.65 736.35 94.75Q735.06 95.84 733.85 97.17Q732.64 98.5 731.74 99.78Q730.84 101.07 730.84 101.78Q730.76 102.71 730.8 104.47Q730.84 106.23 730.92 108.61Q731 111 731.12 113.81Q731.23 116.62 731.47 119.59Q729.67 119.9 728.54 120.21Q727.41 120.53 727.25 120.76Q727.17 121.07 727.13 121.58Q727.09 122.09 727.13 122.64Q727.17 123.18 727.29 123.69Q727.36 123.99 727.52 124.23Q727.64 124.38 727.8 124.51Q728.03 124.67 729.16 124.82Q730.3 124.98 731.86 125.14Q732.09 128.5 732.41 131.62Q732.72 134.75 733.03 137.28Q733.34 139.82 733.66 141.62Q733.97 143.42 734.36 144.12Q735.06 145.53 736.12 146.93Q737.17 148.34 738.11 149.24Q739.05 150.14 739.71 150.25Q739.9 150.29 740.03 150.22Q740.37 150.04 740.37 149.2Q740.37 148.26 740.26 145.96Q740.14 143.65 739.98 140.45Q739.83 137.25 739.63 133.38Q739.44 129.51 739.28 125.53Q741.94 125.6 744.01 125.53Q746.08 125.45 746.47 125.21Q747.01 124.9 747.21 123.89Q747.41 122.87 747.29 121.7Q747.17 120.53 746.74 119.55Q746.32 118.6 745.65 118.35Q745.63 118.35 745.61 118.34Q745.06 118.18 743.23 118.26Q741.39 118.34 739.05 118.57Q738.97 115.6 738.93 112.91Q738.89 110.21 738.93 108.07Q738.97 105.92 739.05 104.43Q739.12 102.95 739.36 102.32Q739.44 102.11 739.59 101.98Q740.05 101.61 741.16 102.05Q742.64 102.64 744.36 103.61Q746.08 104.59 747.56 105.57Q749.05 106.54 749.51 106.54Q749.59 106.53 749.65 106.5Q750 106.33 750.06 105.6Q750.14 104.75 750.02 103.53Q749.91 102.32 749.59 101.07ZM842.68 112.13Q842.76 111.07 842.68 110.84Q842.6 110.68 840.96 110.64Q839.32 110.6 836.97 110.76L836.97 103.93Q836.97 100.68 836.9 98.26Q836.82 95.84 836.66 94.39Q836.51 92.95 836.27 92.79Q835.96 92.56 834.9 93.07Q833.85 93.57 832.64 94.59Q831.43 95.6 830.37 96.97Q829.32 98.34 829.08 99.82Q828.85 100.92 828.89 104Q828.93 107.09 829.08 111.23Q826.51 111.39 824.75 111.62Q822.99 111.85 822.99 112.09Q822.99 112.4 823.15 113.07Q823.3 113.73 823.5 114.43Q823.69 115.14 823.93 115.72Q824.16 116.31 824.32 116.46Q825.18 116.62 826 116.78Q826.82 116.93 827.6 117.09Q828.46 117.25 829.32 117.32Q829.4 120.68 829.71 124.59Q829.86 127.95 830.18 132.28Q830.49 136.62 830.88 141.39Q830.96 142.09 831.47 142.99Q831.97 143.89 832.64 144.71Q833.3 145.53 834.01 146.07Q834.71 146.62 835.26 146.54Q835.49 146.46 835.76 143.96Q836.04 141.46 836.27 137.44Q836.51 133.42 836.66 128.34Q836.82 123.26 836.9 118.1L838.54 118.1Q839.24 118.1 840.02 118.14Q840.28 118.16 840.54 118.16Q841.06 118.16 841.58 118.1Q841.74 117.87 841.97 116.82Q842.21 115.76 842.4 114.47Q842.6 113.18 842.68 112.13ZM274.74 117.17Q274 115.92 273.22 115.45Q271.58 114.43 268.88 114.75Q266.19 115.06 263.06 116.31Q263.14 111.78 263.14 107.68Q263.14 103.57 263.06 100.41Q262.99 97.25 262.79 95.33Q262.6 93.42 262.36 93.18Q261.97 92.87 260.84 93.46Q259.7 94.04 258.42 95.21Q257.13 96.39 256.03 97.91Q254.94 99.43 254.63 101.07Q254.39 103.26 254.47 108.96Q254.47 111.39 254.59 114.82Q254.7 118.26 254.94 122.95Q255.17 127.64 255.56 133.69Q255.95 139.75 256.58 147.4Q256.74 148.1 257.24 149.12Q257.44 149.51 257.66 149.88Q258.02 150.48 258.45 151.03Q259.16 151.93 259.9 152.56Q260.64 153.18 261.27 153.1Q261.58 153.03 261.85 150.33Q262.13 147.64 262.36 143.22Q262.6 138.81 262.75 133.26Q262.91 127.71 262.99 121.93Q263.45 121.7 264.08 121.46Q264.55 121.31 265.21 121.07Q265.88 120.84 266.58 120.68Q266.67 120.65 266.77 120.65Q267.15 120.62 267.56 121Q268.06 121.46 268.49 122.32Q268.92 123.18 269.2 124.39Q269.3 124.87 269.36 125.35Q269.44 126.09 269.39 126.85Q269.39 127.17 269.28 128.89Q269.16 130.6 269 132.99Q268.85 135.37 268.65 138.1Q268.45 140.84 268.34 143.18Q268.22 145.53 268.18 147.21Q268.14 148.89 268.22 149.2Q268.38 149.67 269.08 149.98Q269.78 150.29 270.6 150.45Q271.42 150.6 272.17 150.53Q272.91 150.45 273.06 150.21Q273.14 150.06 273.53 148.57Q273.92 147.09 274.39 144.9Q274.86 142.71 275.41 140.06Q275.95 137.4 276.42 134.86Q276.89 132.32 277.2 130.17Q277.52 128.03 277.52 126.93Q277.52 125.29 277.13 123.46Q276.74 121.62 276.11 120.02Q275.49 118.42 274.74 117.17ZM51.13 150.54Q51.15 150.53 51.18 150.53Q51.41 150.45 51.65 148.18Q51.88 145.92 52.12 142.21Q52.35 138.5 52.51 133.73Q52.66 128.96 52.78 123.96Q52.9 118.96 52.94 114.2Q52.98 109.43 52.9 105.6Q52.82 101.78 52.66 99.39Q52.51 97.01 52.2 96.78Q51.88 96.54 50.83 97.09Q49.77 97.64 48.56 98.65Q47.35 99.67 46.3 101.07Q45.24 102.48 45.01 103.89Q44.77 105.84 44.85 110.92Q44.85 113.1 44.97 116.19Q45.09 119.28 45.32 123.5Q45.55 127.71 45.91 133.14Q46.26 138.57 46.8 145.45Q46.96 146.07 47.43 147.01Q47.59 147.34 47.78 147.66Q48.13 148.24 48.56 148.77Q49.23 149.59 49.93 150.14Q50.6 150.66 51.13 150.54ZM556.65 150.54Q556.68 150.53 556.7 150.53Q556.94 150.45 557.17 148.18Q557.41 145.92 557.64 142.21Q557.88 138.5 558.03 133.73Q558.19 128.96 558.31 123.96Q558.42 118.96 558.46 114.2Q558.5 109.43 558.42 105.6Q558.34 101.78 558.19 99.39Q558.03 97.01 557.72 96.78Q557.41 96.54 556.35 97.09Q555.3 97.64 554.09 98.65Q552.88 99.67 551.82 101.07Q550.77 102.48 550.53 103.89Q550.3 105.84 550.38 110.92Q550.38 113.1 550.49 116.19Q550.61 119.28 550.84 123.5Q551.08 127.71 551.43 133.14Q551.78 138.57 552.33 145.45Q552.49 146.07 552.95 147.01Q553.12 147.34 553.31 147.66Q553.66 148.24 554.09 148.77Q554.75 149.59 555.45 150.14Q556.13 150.66 556.65 150.54ZM235.4 107.64Q236.41 107.95 236.72 108.26Q236.8 108.34 236.92 109.39Q237.04 110.45 237.15 111.97Q237.27 113.5 237.43 115.29Q237.58 117.09 237.78 118.65Q237.97 120.21 238.21 121.27Q238.44 122.32 238.75 122.48Q239.04 122.63 239.33 122.65Q239.92 122.69 240.55 122.17Q241.49 121.39 242.19 120.68Q242.5 120.45 242.93 118.85Q243.36 117.25 243.72 115.25Q244.07 113.26 244.26 111.31Q244.46 109.35 244.38 108.26Q244.3 107.25 242.74 105.72Q241.18 104.2 238.72 102.83Q236.25 101.46 233.17 100.64Q230.65 99.97 228.15 100.06Q227.59 100.08 227.04 100.14Q226.95 100.14 226.86 100.16Q225.88 100.36 225.2 102.01Q224.46 103.81 223.99 106.7Q223.52 109.59 223.33 113.26Q223.13 116.93 223.13 120.68Q223.13 124.43 223.6 128.18Q224.07 131.93 224.73 135.06Q225.4 138.18 226.02 140.33Q226.65 142.48 226.96 143.03Q227.27 143.57 228.72 144.55Q230.16 145.53 231.92 146.46Q233.68 147.4 235.4 148.1Q237.11 148.81 237.97 148.89Q238.03 148.89 238.09 148.89Q238.88 148.84 239.58 147.09Q240.32 145.21 240.9 142.79Q241.49 140.37 241.8 138.03Q242.11 135.68 242.11 134.82L242.11 133.57Q242.11 132.79 242 132.05Q241.88 131.31 241.68 130.76Q241.53 130.34 241.27 130.24Q241.19 130.21 241.1 130.21Q240.4 130.21 239.38 130.96Q238.51 131.59 237.93 132.42Q237.83 132.56 237.74 132.71Q237.5 133.1 237 134.39Q236.49 135.68 235.83 137.13Q235.16 138.57 234.5 139.67Q233.83 140.76 233.36 140.76Q232.82 140.68 232.31 139.59Q231.8 138.5 231.45 136.7Q231.1 134.9 230.86 132.52Q230.63 130.14 230.63 127.48Q230.63 123.81 231.06 120.37Q231.49 116.93 232.08 114.28Q232.66 111.62 233.21 109.9Q233.75 108.18 233.99 107.87Q234.07 107.76 234.17 107.69Q234.58 107.39 235.4 107.64ZM92.4 103.89Q92.52 101.7 92.29 101.46Q91.97 101.23 91.07 101.54Q90.18 101.85 89.12 102.6Q88.07 103.34 87.13 104.39Q86.28 105.35 85.88 106.47Q85.84 106.59 85.8 106.7Q85.57 107.4 85.33 110.18Q85.1 112.95 84.86 116.58Q84.63 120.21 84.4 124.16Q84.16 128.1 84 131.23Q83.61 128.96 83.3 126.23Q82.99 123.5 82.68 120.72Q82.36 117.95 82.09 115.33Q81.82 112.71 81.58 110.68Q81.35 108.65 81.19 107.4Q81.04 106.15 80.96 106.15Q80.72 106.07 80.06 106.39Q79.4 106.7 78.57 107.36Q77.75 108.03 76.93 109.12Q76.11 110.21 75.49 111.62Q75.18 112.32 74.75 114.78Q74.32 117.25 73.85 120.37Q73.38 123.5 72.91 126.74Q72.44 129.98 72.05 132.25Q71.9 129.28 71.78 125.8Q71.66 122.32 71.54 118.93Q71.43 115.53 71.31 112.36Q71.19 109.2 71.07 106.78Q70.96 104.35 70.8 102.83Q70.65 101.31 70.49 101.23Q70.18 101.07 69.28 101.66Q68.38 102.25 67.4 103.26Q66.43 104.28 65.57 105.6Q64.71 106.93 64.47 108.26Q64.4 110.06 64.79 114.59Q64.94 116.54 65.22 119.28Q65.49 122.01 65.92 125.72Q66.35 129.43 66.97 134.24Q67.6 139.04 68.46 145.06Q68.54 145.68 69 146.42Q69.47 147.17 70.1 147.83Q70.72 148.5 71.35 148.89Q71.95 149.26 72.41 149.13Q72.42 149.13 72.44 149.12Q72.68 149.12 73.11 147.87Q73.54 146.62 74.04 144.63Q74.55 142.64 75.06 140.14Q75.57 137.64 76.04 135.06Q76.58 132.56 76.97 130.21Q77.36 128.18 77.72 126Q78.07 123.81 78.38 122.17Q78.69 124.67 79 127.25Q79.32 129.82 79.63 131.85Q79.94 134.35 80.25 136.54Q80.65 139.82 81.23 142.09Q81.82 144.35 81.97 145.21Q82.05 145.68 82.48 146.39Q82.91 147.09 83.42 147.79Q83.93 148.5 84.51 149Q85.1 149.51 85.57 149.51Q85.8 149.51 86.27 147.48Q86.74 145.45 87.32 142.17Q87.91 138.89 88.57 134.63Q89.24 130.37 89.86 125.96Q90.49 121.54 91.04 117.25Q91.58 112.95 91.93 109.51Q92.29 106.07 92.4 103.89ZM597.93 103.89Q598.05 101.7 597.81 101.46Q597.5 101.23 596.6 101.54Q595.7 101.85 594.65 102.6Q593.59 103.34 592.65 104.39Q591.8 105.35 591.4 106.47Q591.36 106.59 591.33 106.7Q591.09 107.4 590.86 110.18Q590.62 112.95 590.39 116.58Q590.15 120.21 589.92 124.16Q589.69 128.1 589.53 131.23Q589.14 128.96 588.83 126.23Q588.51 123.5 588.2 120.72Q587.89 117.95 587.62 115.33Q587.34 112.71 587.11 110.68Q586.87 108.65 586.72 107.4Q586.56 106.15 586.48 106.15Q586.25 106.07 585.58 106.39Q584.92 106.7 584.1 107.36Q583.28 108.03 582.46 109.12Q581.64 110.21 581.01 111.62Q580.7 112.32 580.27 114.78Q579.84 117.25 579.37 120.37Q578.9 123.5 578.44 126.74Q577.97 129.98 577.58 132.25Q577.42 129.28 577.3 125.8Q577.19 122.32 577.07 118.93Q576.95 115.53 576.83 112.36Q576.72 109.2 576.6 106.78Q576.48 104.35 576.33 102.83Q576.17 101.31 576.01 101.23Q575.7 101.07 574.8 101.66Q573.9 102.25 572.93 103.26Q571.95 104.28 571.09 105.6Q570.23 106.93 570 108.26Q569.92 110.06 570.31 114.59Q570.47 116.54 570.74 119.28Q571.01 122.01 571.44 125.72Q571.87 129.43 572.5 134.24Q573.12 139.04 573.98 145.06Q574.06 145.68 574.53 146.42Q575 147.17 575.62 147.83Q576.25 148.5 576.87 148.89Q577.48 149.26 577.93 149.13Q577.95 149.13 577.97 149.12Q578.2 149.12 578.63 147.87Q579.06 146.62 579.57 144.63Q580.08 142.64 580.58 140.14Q581.09 137.64 581.56 135.06Q582.11 132.56 582.5 130.21Q582.89 128.18 583.24 126Q583.59 123.81 583.9 122.17Q584.22 124.67 584.53 127.25Q584.84 129.82 585.15 131.85Q585.47 134.35 585.78 136.54Q586.17 139.82 586.76 142.09Q587.34 144.35 587.5 145.21Q587.58 145.68 588.01 146.39Q588.44 147.09 588.94 147.79Q589.45 148.5 590.04 149Q590.62 149.51 591.09 149.51Q591.33 149.51 591.8 147.48Q592.26 145.45 592.85 142.17Q593.44 138.89 594.1 134.63Q594.76 130.37 595.39 125.96Q596.01 121.54 596.56 117.25Q597.11 112.95 597.46 109.51Q597.81 106.07 597.93 103.89ZM430.35 121.85Q430.63 119.51 430.63 118.26Q430.63 116.46 430.28 114.47Q429.92 112.48 429.34 110.68Q428.75 108.89 428.01 107.56Q427.27 106.23 426.56 105.68Q426.39 105.57 426.21 105.47Q425.25 104.96 424.06 104.86Q422.66 104.75 421.13 105.1Q419.61 105.45 418.05 106.11Q416.49 106.78 415.16 107.56Q415 106.23 414.77 105.64Q414.53 105.06 414.38 104.59Q414.06 104.04 413.13 103.46Q412.19 102.87 411.13 102.44Q410.08 102.01 409.18 101.85Q408.32 101.7 408.14 101.99Q408.13 102 408.13 102.01Q407.89 102.32 407.85 103.69Q407.81 105.06 407.85 106.89Q407.89 108.73 407.97 110.8Q408.05 112.87 408.13 114.51Q408.2 115.68 408.36 118.34Q408.52 121 408.75 124.28Q408.99 127.56 409.3 131.11Q409.61 134.67 409.88 137.67Q410.16 140.68 410.39 142.75Q410.63 144.82 410.86 145.06Q410.93 145.2 411.05 145.27Q411.31 145.42 411.8 145.17Q412.5 144.82 413.28 144.12Q414.06 143.42 414.69 142.6Q415.31 141.78 415.47 141.31Q415.55 141.07 415.63 139.2Q415.7 137.32 415.74 134.71Q415.78 132.09 415.82 129Q415.86 125.92 415.9 123.26Q415.94 120.6 415.94 118.69L415.94 116.46Q415.94 115.45 416.13 114.67Q416.33 113.89 416.41 113.73Q416.5 113.54 416.62 113.36Q416.89 112.96 417.27 112.64Q417.74 112.25 418.44 111.89Q419.14 111.54 420.16 111.39Q420.21 111.37 420.26 111.36Q420.61 111.29 421.06 111.74Q421.56 112.25 421.95 113.18Q422.35 114.12 422.62 115.41Q422.89 116.7 422.89 118.1Q422.89 118.5 422.78 120.37Q422.66 122.25 422.46 124.86Q422.27 127.48 422.11 130.49Q421.95 133.5 421.84 136.11Q421.72 138.73 421.68 140.6Q421.64 142.48 421.72 142.79Q421.88 143.26 422.54 143.57Q423.2 143.89 424.03 144.04Q424.85 144.2 425.51 144.16Q426.17 144.12 426.33 143.89Q426.41 143.73 426.76 142.09Q427.11 140.45 427.62 138.03Q428.13 135.6 428.63 132.67Q429.14 129.75 429.61 126.97Q430.08 124.2 430.35 121.85ZM191.27 115.21Q191.62 113.42 191.54 112.56Q191.46 111.39 189.9 109.9Q188.34 108.42 186.15 107.05Q184.58 106.07 182.9 105.31Q182.25 105.01 181.58 104.75Q179.2 103.81 177.48 103.81Q176.62 103.81 175.49 104.86Q174.35 105.92 173.18 107.56Q172.01 109.2 170.88 111.15Q169.75 113.1 168.89 114.94Q168.03 116.78 167.48 118.3Q166.93 119.82 167.01 120.53Q167.09 121.23 168.26 122.56Q169.43 123.89 171.23 125.53Q173.03 127.17 175.14 129Q177.25 130.84 179.04 132.48Q180.84 134.12 182.01 135.45Q183.18 136.78 183.26 137.48Q183.26 137.95 182.99 138.77Q182.71 139.59 182.32 140.37Q181.93 141.15 181.46 141.74Q181 142.32 180.6 142.32Q179.9 142.32 178.34 140.72Q176.78 139.12 175.14 137.13Q173.5 135.14 172.09 133.53Q170.68 131.93 170.21 131.93Q170.17 131.93 170.12 131.94Q169.71 132.02 169.43 132.75Q169.12 133.57 169 134.75Q168.92 135.62 168.92 136.5Q168.92 136.8 168.93 137.09Q168.96 138.26 169.2 138.96Q169.43 139.75 171.03 141.46Q172.64 143.18 174.71 144.94Q176.78 146.7 178.85 147.99Q180.92 149.28 182.01 149.2Q183.1 149.12 184.51 147.64Q185.92 146.15 187.17 144.12Q188.42 142.09 189.24 139.9Q190.06 137.71 189.98 136.31Q189.9 135.14 188.85 133.5Q187.79 131.85 186.31 130.02Q184.82 128.18 183.07 126.35Q181.31 124.51 179.78 122.91Q178.26 121.31 177.25 120.14Q176.23 118.96 176.23 118.5Q176.15 117.87 176.66 116.54Q177.17 115.21 177.91 113.89Q178.65 112.56 179.43 111.54Q180.21 110.53 180.84 110.53Q181.46 110.53 182.13 110.88Q182.79 111.23 183.03 111.62Q183.18 112.4 183.34 114.35Q183.5 116.31 183.77 118.3Q184.04 120.29 184.63 121.78Q185.13 123.05 185.89 123.23Q186.02 123.26 186.15 123.26Q186.41 123.26 186.67 123.21Q187.69 123 188.53 121.93Q189.59 120.6 190.25 118.81Q190.92 117.01 191.27 115.21ZM696.79 115.21Q697.15 113.42 697.07 112.56Q696.99 111.39 695.43 109.9Q693.86 108.42 691.68 107.05Q690.1 106.07 688.43 105.31Q687.78 105.01 687.11 104.75Q684.72 103.81 683.01 103.81Q682.15 103.81 681.01 104.86Q679.88 105.92 678.71 107.56Q677.54 109.2 676.4 111.15Q675.27 113.1 674.41 114.94Q673.55 116.78 673.01 118.3Q672.46 119.82 672.54 120.53Q672.61 121.23 673.79 122.56Q674.96 123.89 676.76 125.53Q678.55 127.17 680.66 129Q682.77 130.84 684.57 132.48Q686.36 134.12 687.54 135.45Q688.71 136.78 688.79 137.48Q688.79 137.95 688.51 138.77Q688.24 139.59 687.85 140.37Q687.46 141.15 686.99 141.74Q686.52 142.32 686.13 142.32Q685.43 142.32 683.86 140.72Q682.3 139.12 680.66 137.13Q679.02 135.14 677.61 133.53Q676.21 131.93 675.74 131.93Q675.69 131.93 675.64 131.94Q675.24 132.02 674.96 132.75Q674.65 133.57 674.53 134.75Q674.44 135.62 674.44 136.5Q674.44 136.8 674.45 137.09Q674.49 138.26 674.72 138.96Q674.96 139.75 676.56 141.46Q678.16 143.18 680.23 144.94Q682.3 146.7 684.37 147.99Q686.44 149.28 687.54 149.2Q688.63 149.12 690.04 147.64Q691.44 146.15 692.69 144.12Q693.94 142.09 694.76 139.9Q695.58 137.71 695.51 136.31Q695.43 135.14 694.37 133.5Q693.32 131.85 691.83 130.02Q690.35 128.18 688.59 126.35Q686.83 124.51 685.31 122.91Q683.79 121.31 682.77 120.14Q681.76 118.96 681.76 118.5Q681.68 117.87 682.18 116.54Q682.69 115.21 683.43 113.89Q684.18 112.56 684.96 111.54Q685.74 110.53 686.36 110.53Q686.99 110.53 687.65 110.88Q688.32 111.23 688.55 111.62Q688.71 112.4 688.86 114.35Q689.02 116.31 689.29 118.3Q689.57 120.29 690.15 121.78Q690.66 123.05 691.42 123.23Q691.54 123.26 691.68 123.26Q691.94 123.26 692.19 123.21Q693.21 123 694.06 121.93Q695.11 120.6 695.78 118.81Q696.44 117.01 696.79 115.21ZM815.52 115.21Q815.87 113.42 815.79 112.56Q815.71 111.39 814.15 109.9Q812.59 108.42 810.4 107.05Q808.83 106.07 807.15 105.31Q806.5 105.01 805.83 104.75Q803.45 103.81 801.73 103.81Q800.87 103.81 799.73 104.86Q798.6 105.92 797.43 107.56Q796.26 109.2 795.13 111.15Q793.99 113.1 793.13 114.94Q792.27 116.78 791.73 118.3Q791.18 119.82 791.26 120.53Q791.34 121.23 792.51 122.56Q793.68 123.89 795.48 125.53Q797.27 127.17 799.38 129Q801.49 130.84 803.29 132.48Q805.09 134.12 806.26 135.45Q807.43 136.78 807.51 137.48Q807.51 137.95 807.23 138.77Q806.96 139.59 806.57 140.37Q806.18 141.15 805.71 141.74Q805.24 142.32 804.85 142.32Q804.15 142.32 802.59 140.72Q801.02 139.12 799.38 137.13Q797.74 135.14 796.34 133.53Q794.93 131.93 794.46 131.93Q794.41 131.93 794.36 131.94Q793.96 132.02 793.68 132.75Q793.37 133.57 793.25 134.75Q793.16 135.62 793.16 136.5Q793.16 136.8 793.17 137.09Q793.21 138.26 793.45 138.96Q793.68 139.75 795.28 141.46Q796.88 143.18 798.95 144.94Q801.02 146.7 803.09 147.99Q805.16 149.28 806.26 149.2Q807.35 149.12 808.76 147.64Q810.16 146.15 811.41 144.12Q812.66 142.09 813.48 139.9Q814.31 137.71 814.23 136.31Q814.15 135.14 813.09 133.5Q812.04 131.85 810.56 130.02Q809.07 128.18 807.31 126.35Q805.56 124.51 804.03 122.91Q802.51 121.31 801.49 120.14Q800.48 118.96 800.48 118.5Q800.4 117.87 800.91 116.54Q801.41 115.21 802.16 113.89Q802.9 112.56 803.68 111.54Q804.46 110.53 805.09 110.53Q805.71 110.53 806.38 110.88Q807.04 111.23 807.27 111.62Q807.43 112.4 807.59 114.35Q807.74 116.31 808.02 118.3Q808.29 120.29 808.88 121.78Q809.38 123.05 810.14 123.23Q810.27 123.26 810.4 123.26Q810.66 123.26 810.91 123.21Q811.94 123 812.78 121.93Q813.84 120.6 814.5 118.81Q815.16 117.01 815.52 115.21ZM395.81 106.46Q395.85 105.37 395.54 104.75Q395.49 104.67 395.44 104.6Q395.01 104.04 393.9 104Q392.65 103.96 391.24 104.39Q390.83 104.52 390.43 104.68Q389.47 105.06 388.58 105.64Q387.33 106.46 387.1 107.48Q386.86 108.5 387.02 109.67Q387.18 110.84 387.57 111.82Q387.96 112.79 388.5 113.46Q389.05 114.12 389.6 114.2Q390.3 114.35 391.83 114.08Q392.95 113.88 393.67 113.23Q393.93 113 394.13 112.71Q394.52 112.09 394.91 111Q395.3 109.9 395.54 108.73Q395.77 107.56 395.81 106.46ZM123.94 111.03Q123.55 110.45 123.08 109.9Q122.53 109.2 120.58 107.95Q118.63 106.7 116.13 105.68Q114.05 104.84 111.9 104.48Q111.46 104.41 111.01 104.35Q108.54 104.06 106.74 105.01Q106.63 105.07 106.52 105.14Q105.58 105.68 104.76 107.79Q103.94 109.9 103.35 112.25Q102.77 114.59 102.45 116.58Q102.14 118.57 102.3 118.89Q102.45 119.12 103.31 119.28Q104.02 119.43 105.46 119.55Q106.91 119.67 109.64 119.59Q109.72 115.53 110.23 113.53Q110.74 111.54 111.36 110.76Q111.87 110.14 112.46 110.05Q112.69 110.01 112.92 110.06Q114.02 110.29 114.8 110.76Q115.58 111.23 116.05 111.62Q116.6 112.17 116.99 112.71Q117.45 113.57 117.61 116.5Q117.77 119.43 118.08 123.42Q117.69 123.26 116.2 122.99Q114.72 122.71 112.88 122.52Q111.35 122.36 109.82 122.36Q109.52 122.36 109.21 122.36Q107.38 122.4 106.28 122.87Q104.49 123.65 103.5 125.02Q103.11 125.56 102.85 126.19Q101.91 128.42 102.06 131.46Q102.14 132.64 102.3 134Q102.45 135.37 102.65 136.58Q102.85 137.79 103.12 138.73Q103.39 139.67 103.78 140.14Q104.72 141.31 106.6 142.01Q108.47 142.71 110.7 142.83Q112.92 142.95 115.19 142.52Q117.45 142.09 119.33 141Q119.56 142.87 119.56 143.26Q119.72 143.73 120.35 144.51Q120.97 145.29 121.71 146Q122.45 146.7 123.12 147.13Q123.73 147.52 124.04 147.36Q124.07 147.34 124.1 147.32Q124.17 147.25 124.29 146.23Q124.41 145.21 124.49 143.46Q124.56 141.7 124.64 139.35Q124.72 137.01 124.8 134.28Q124.95 131.23 125.15 127.21Q125.35 123.18 125.35 119.2Q125.35 116.7 125.15 115.14Q124.95 113.57 124.64 112.6Q124.33 111.62 123.94 111.03ZM310.19 111.03Q309.79 110.45 309.33 109.9Q308.78 109.2 306.83 107.95Q304.87 106.7 302.37 105.68Q300.3 104.84 298.15 104.48Q297.7 104.41 297.26 104.35Q294.79 104.06 292.98 105.01Q292.87 105.07 292.76 105.14Q291.83 105.68 291.01 107.79Q290.19 109.9 289.6 112.25Q289.01 114.59 288.7 116.58Q288.39 118.57 288.54 118.89Q288.7 119.12 289.56 119.28Q290.26 119.43 291.71 119.55Q293.15 119.67 295.89 119.59Q295.97 115.53 296.48 113.53Q296.98 111.54 297.61 110.76Q298.12 110.14 298.71 110.05Q298.93 110.01 299.17 110.06Q300.26 110.29 301.04 110.76Q301.83 111.23 302.29 111.62Q302.84 112.17 303.23 112.71Q303.7 113.57 303.86 116.5Q304.01 119.43 304.33 123.42Q303.94 123.26 302.45 122.99Q300.97 122.71 299.13 122.52Q297.6 122.36 296.07 122.36Q295.76 122.36 295.46 122.36Q293.62 122.4 292.53 122.87Q290.74 123.65 289.75 125.02Q289.36 125.56 289.09 126.19Q288.15 128.42 288.31 131.46Q288.39 132.64 288.54 134Q288.7 135.37 288.9 136.58Q289.09 137.79 289.37 138.73Q289.64 139.67 290.03 140.14Q290.97 141.31 292.84 142.01Q294.72 142.71 296.94 142.83Q299.17 142.95 301.44 142.52Q303.7 142.09 305.58 141Q305.81 142.87 305.81 143.26Q305.97 143.73 306.59 144.51Q307.22 145.29 307.96 146Q308.7 146.7 309.37 147.13Q309.98 147.52 310.29 147.36Q310.32 147.34 310.34 147.32Q310.42 147.25 310.54 146.23Q310.65 145.21 310.73 143.46Q310.81 141.7 310.89 139.35Q310.97 137.01 311.04 134.28Q311.2 131.23 311.4 127.21Q311.59 123.18 311.59 119.2Q311.59 116.7 311.4 115.14Q311.2 113.57 310.89 112.6Q310.58 111.62 310.19 111.03ZM536.61 111.03Q536.22 110.45 535.75 109.9Q535.21 109.2 533.25 107.95Q531.3 106.7 528.8 105.68Q526.73 104.84 524.58 104.48Q524.13 104.41 523.68 104.35Q521.22 104.06 519.41 105.01Q519.3 105.07 519.19 105.14Q518.25 105.68 517.43 107.79Q516.61 109.9 516.03 112.25Q515.44 114.59 515.13 116.58Q514.82 118.57 514.97 118.89Q515.13 119.12 515.99 119.28Q516.69 119.43 518.14 119.55Q519.58 119.67 522.32 119.59Q522.4 115.53 522.9 113.53Q523.41 111.54 524.04 110.76Q524.54 110.14 525.13 110.05Q525.36 110.01 525.6 110.06Q526.69 110.29 527.47 110.76Q528.25 111.23 528.72 111.62Q529.27 112.17 529.66 112.71Q530.13 113.57 530.29 116.5Q530.44 119.43 530.75 123.42Q530.36 123.26 528.88 122.99Q527.4 122.71 525.56 122.52Q524.03 122.36 522.5 122.36Q522.19 122.36 521.89 122.36Q520.05 122.4 518.96 122.87Q517.17 123.65 516.18 125.02Q515.79 125.56 515.52 126.19Q514.58 128.42 514.74 131.46Q514.82 132.64 514.97 134Q515.13 135.37 515.33 136.58Q515.52 137.79 515.79 138.73Q516.07 139.67 516.46 140.14Q517.4 141.31 519.27 142.01Q521.15 142.71 523.37 142.83Q525.6 142.95 527.86 142.52Q530.13 142.09 532 141Q532.24 142.87 532.24 143.26Q532.4 143.73 533.02 144.51Q533.65 145.29 534.39 146Q535.13 146.7 535.79 147.13Q536.4 147.52 536.72 147.36Q536.75 147.34 536.77 147.32Q536.85 147.25 536.96 146.23Q537.08 145.21 537.16 143.46Q537.24 141.7 537.32 139.35Q537.4 137.01 537.47 134.28Q537.63 131.23 537.83 127.21Q538.02 123.18 538.02 119.2Q538.02 116.7 537.83 115.14Q537.63 113.57 537.32 112.6Q537 111.62 536.61 111.03ZM629.46 111.03Q629.07 110.45 628.6 109.9Q628.06 109.2 626.1 107.95Q624.15 106.7 621.65 105.68Q619.58 104.84 617.43 104.48Q616.98 104.41 616.53 104.35Q614.07 104.06 612.26 105.01Q612.15 105.07 612.04 105.14Q611.1 105.68 610.28 107.79Q609.46 109.9 608.88 112.25Q608.29 114.59 607.98 116.58Q607.67 118.57 607.82 118.89Q607.98 119.12 608.84 119.28Q609.54 119.43 610.99 119.55Q612.43 119.67 615.17 119.59Q615.25 115.53 615.75 113.53Q616.26 111.54 616.89 110.76Q617.39 110.14 617.98 110.05Q618.21 110.01 618.45 110.06Q619.54 110.29 620.32 110.76Q621.1 111.23 621.57 111.62Q622.12 112.17 622.51 112.71Q622.98 113.57 623.14 116.5Q623.29 119.43 623.6 123.42Q623.21 123.26 621.73 122.99Q620.25 122.71 618.41 122.52Q616.88 122.36 615.35 122.36Q615.04 122.36 614.74 122.36Q612.9 122.4 611.81 122.87Q610.02 123.65 609.03 125.02Q608.64 125.56 608.37 126.19Q607.43 128.42 607.59 131.46Q607.67 132.64 607.82 134Q607.98 135.37 608.18 136.58Q608.37 137.79 608.64 138.73Q608.92 139.67 609.31 140.14Q610.25 141.31 612.12 142.01Q614 142.71 616.22 142.83Q618.45 142.95 620.71 142.52Q622.98 142.09 624.85 141Q625.09 142.87 625.09 143.26Q625.25 143.73 625.87 144.51Q626.5 145.29 627.24 146Q627.98 146.7 628.64 147.13Q629.25 147.52 629.57 147.36Q629.59 147.34 629.62 147.32Q629.7 147.25 629.82 146.23Q629.93 145.21 630.01 143.46Q630.09 141.7 630.17 139.35Q630.25 137.01 630.32 134.28Q630.48 131.23 630.68 127.21Q630.87 123.18 630.87 119.2Q630.87 116.7 630.68 115.14Q630.48 113.57 630.17 112.6Q629.85 111.62 629.46 111.03ZM779.53 111.03Q779.14 110.45 778.67 109.9Q778.12 109.2 776.17 107.95Q774.21 106.7 771.71 105.68Q769.64 104.84 767.49 104.48Q767.05 104.41 766.6 104.35Q764.13 104.06 762.32 105.01Q762.21 105.07 762.11 105.14Q761.17 105.68 760.35 107.79Q759.53 109.9 758.94 112.25Q758.36 114.59 758.04 116.58Q757.73 118.57 757.89 118.89Q758.04 119.12 758.9 119.28Q759.61 119.43 761.05 119.55Q762.5 119.67 765.23 119.59Q765.31 115.53 765.82 113.53Q766.32 111.54 766.95 110.76Q767.46 110.14 768.05 110.05Q768.27 110.01 768.51 110.06Q769.61 110.29 770.39 110.76Q771.17 111.23 771.64 111.62Q772.18 112.17 772.57 112.71Q773.04 113.57 773.2 116.5Q773.36 119.43 773.67 123.42Q773.28 123.26 771.79 122.99Q770.31 122.71 768.47 122.52Q766.94 122.36 765.41 122.36Q765.11 122.36 764.8 122.36Q762.96 122.4 761.87 122.87Q760.08 123.65 759.09 125.02Q758.7 125.56 758.43 126.19Q757.5 128.42 757.65 131.46Q757.73 132.64 757.89 134Q758.04 135.37 758.24 136.58Q758.43 137.79 758.71 138.73Q758.98 139.67 759.37 140.14Q760.31 141.31 762.18 142.01Q764.06 142.71 766.28 142.83Q768.51 142.95 770.78 142.52Q773.04 142.09 774.92 141Q775.15 142.87 775.15 143.26Q775.31 143.73 775.93 144.51Q776.56 145.29 777.3 146Q778.04 146.7 778.71 147.13Q779.32 147.52 779.63 147.36Q779.66 147.34 779.68 147.32Q779.76 147.25 779.88 146.23Q780 145.21 780.07 143.46Q780.15 141.7 780.23 139.35Q780.31 137.01 780.39 134.28Q780.54 131.23 780.74 127.21Q780.93 123.18 780.93 119.2Q780.93 116.7 780.74 115.14Q780.54 113.57 780.23 112.6Q779.92 111.62 779.53 111.03ZM373.57 154.98Q374.35 153.96 374.51 153.5Q374.66 152.79 374.78 150.45Q374.9 148.1 375.02 144.67Q375.13 141.23 375.17 137.09Q375.21 132.95 375.25 128.69Q375.29 124.43 375.25 120.41Q375.21 116.39 375.09 113.22Q374.98 110.06 374.82 108.07Q374.66 106.07 374.43 105.92Q374.41 105.9 374.39 105.89Q373.93 105.62 373.1 105.96Q372.24 106.31 371.42 107.05Q371.26 107.2 371.1 107.35Q370.48 107.98 369.98 108.73Q369.35 109.67 369.27 110.45Q366.07 108.89 363.26 108.34Q360.45 107.79 358.57 108.73Q357.71 109.2 356.85 110.41Q355.99 111.62 355.25 113.26Q354.51 114.9 353.96 116.74Q353.41 118.57 353.34 120.29Q353.18 122.01 353.61 124.9Q354.04 127.79 354.59 130.64Q355.13 133.5 355.68 135.72Q356.23 137.95 356.46 138.42Q356.62 139.51 356.97 140.17Q357.32 140.84 357.63 141.15Q358.41 141.85 359.7 142.28Q359.97 142.37 360.24 142.45Q361.28 142.75 362.36 142.87Q363.73 143.03 364.98 143.03Q366.23 143.03 366.93 142.79Q367.09 142.79 367.2 142.75Q367.32 142.71 367.48 142.71Q367.09 146.39 366.81 148.92Q366.54 151.46 366.23 152.01Q366.18 152.1 366.12 152.17Q365.71 152.57 364.51 152.17Q363.1 151.7 361.5 150.92Q359.9 150.14 358.45 149.39Q357.01 148.65 356.62 148.65Q356.54 148.65 356.47 148.68Q356.2 148.79 356.11 149.32Q355.99 149.98 356.07 150.92Q356.15 151.85 356.34 152.79Q356.54 153.73 356.77 154.28Q357.09 154.82 358.26 155.96Q359.43 157.09 361.03 158.18Q362.63 159.28 364.39 159.94Q365.85 160.49 367.17 160.26Q367.44 160.22 367.71 160.14Q368.41 159.9 369.51 159.04Q370.6 158.18 371.7 157.09Q372.79 156 373.57 154.98ZM461.26 154.98Q462.05 153.96 462.2 153.5Q462.36 152.79 462.48 150.45Q462.59 148.1 462.71 144.67Q462.83 141.23 462.87 137.09Q462.9 132.95 462.94 128.69Q462.98 124.43 462.94 120.41Q462.9 116.39 462.79 113.22Q462.67 110.06 462.51 108.07Q462.36 106.07 462.12 105.92Q462.1 105.9 462.08 105.89Q461.62 105.62 460.8 105.96Q459.94 106.31 459.12 107.05Q458.95 107.2 458.8 107.35Q458.17 107.98 457.67 108.73Q457.05 109.67 456.97 110.45Q453.76 108.89 450.95 108.34Q448.14 107.79 446.26 108.73Q445.4 109.2 444.55 110.41Q443.69 111.62 442.94 113.26Q442.2 114.9 441.65 116.74Q441.11 118.57 441.03 120.29Q440.87 122.01 441.3 124.9Q441.73 127.79 442.28 130.64Q442.83 133.5 443.37 135.72Q443.92 137.95 444.15 138.42Q444.31 139.51 444.66 140.17Q445.01 140.84 445.33 141.15Q446.11 141.85 447.4 142.28Q447.66 142.37 447.94 142.45Q448.97 142.75 450.05 142.87Q451.42 143.03 452.67 143.03Q453.92 143.03 454.62 142.79Q454.78 142.79 454.9 142.75Q455.01 142.71 455.17 142.71Q454.78 146.39 454.51 148.92Q454.23 151.46 453.92 152.01Q453.88 152.1 453.81 152.17Q453.41 152.57 452.2 152.17Q450.8 151.7 449.19 150.92Q447.59 150.14 446.15 149.39Q444.7 148.65 444.31 148.65Q444.23 148.65 444.16 148.68Q443.9 148.79 443.8 149.32Q443.69 149.98 443.76 150.92Q443.84 151.85 444.04 152.79Q444.23 153.73 444.47 154.28Q444.78 154.82 445.95 155.96Q447.12 157.09 448.73 158.18Q450.33 159.28 452.08 159.94Q453.54 160.49 454.87 160.26Q455.14 160.22 455.4 160.14Q456.11 159.9 457.2 159.04Q458.3 158.18 459.39 157.09Q460.48 156 461.26 154.98ZM17.03 130.37Q14.53 130.45 12.03 130.6Q12.89 127.09 13.75 123.1Q14.53 119.67 15.46 115.33Q16.4 111 17.34 106.39Q18.2 111.54 19.06 115.84Q19.92 120.14 20.54 123.34Q21.32 127.09 21.95 130.14Q19.53 130.29 17.03 130.37ZM341.96 109.94Q341.37 108.81 340.75 108.42Q339.5 107.71 338.25 107.6L338.22 107.6Q336.98 107.48 335.71 107.79Q334.42 108.1 333.05 108.77Q331.68 109.43 330.2 110.21Q329.96 109.43 329.73 109.04Q329.42 108.57 328.48 108.03Q327.54 107.48 326.49 107.13Q325.43 106.78 324.53 106.66Q323.64 106.54 323.48 106.78Q323.25 107.01 323.21 108.22Q323.17 109.43 323.21 111.03Q323.25 112.64 323.32 114.43Q323.4 116.23 323.48 117.71Q323.56 118.73 323.71 121.03Q323.87 123.34 324.1 126.23Q324.34 129.12 324.65 132.25Q324.96 135.37 325.24 137.99Q325.51 140.6 325.75 142.4Q325.98 144.2 326.21 144.43Q326.27 144.52 326.35 144.58Q326.61 144.74 327.15 144.47Q327.85 144.12 328.64 143.53Q329.42 142.95 330.04 142.25Q330.67 141.54 330.82 141.15Q330.9 140.92 330.94 139.43Q330.98 137.95 331.02 135.8Q331.06 133.65 331.1 131.15Q331.14 128.65 331.18 126.39Q331.21 124.12 331.25 122.4Q331.29 120.68 331.29 120.14Q331.45 118.42 331.6 117.56Q331.76 116.7 331.92 116.46Q332.31 115.84 332.78 115.29Q333.17 114.82 333.71 114.39Q334.26 113.96 334.96 113.65Q335 113.65 335.03 113.65Q335.7 113.7 336.29 114.75Q336.84 115.68 337.31 117.91Q337.78 120.14 337.93 124.43Q340.43 123.96 341.84 123.57Q343.25 123.18 343.95 122.87Q344.73 122.56 344.89 122.25Q344.96 122.01 344.89 121.03Q344.81 120.06 344.53 118.65Q344.26 117.25 343.91 115.6Q343.56 113.96 343.05 112.52Q342.54 111.07 341.96 109.94ZM905.87 109.94Q905.28 108.81 904.66 108.42Q903.41 107.71 902.16 107.6L902.13 107.6Q900.89 107.48 899.62 107.79Q898.33 108.1 896.96 108.77Q895.59 109.43 894.11 110.21Q893.87 109.43 893.64 109.04Q893.33 108.57 892.39 108.03Q891.45 107.48 890.4 107.13Q889.34 106.78 888.44 106.66Q887.55 106.54 887.39 106.78Q887.16 107.01 887.12 108.22Q887.08 109.43 887.12 111.03Q887.16 112.64 887.23 114.43Q887.31 116.23 887.39 117.71Q887.47 118.73 887.62 121.03Q887.78 123.34 888.01 126.23Q888.25 129.12 888.56 132.25Q888.87 135.37 889.15 137.99Q889.42 140.6 889.66 142.4Q889.89 144.2 890.12 144.43Q890.18 144.52 890.26 144.58Q890.52 144.74 891.06 144.47Q891.76 144.12 892.55 143.53Q893.33 142.95 893.95 142.25Q894.58 141.54 894.73 141.15Q894.81 140.92 894.85 139.43Q894.89 137.95 894.93 135.8Q894.97 133.65 895.01 131.15Q895.05 128.65 895.08 126.39Q895.12 124.12 895.16 122.4Q895.2 120.68 895.2 120.14Q895.36 118.42 895.51 117.56Q895.67 116.7 895.83 116.46Q896.22 115.84 896.69 115.29Q897.08 114.82 897.62 114.39Q898.17 113.96 898.87 113.65Q898.91 113.65 898.94 113.65Q899.61 113.7 900.2 114.75Q900.75 115.68 901.22 117.91Q901.69 120.14 901.84 124.43Q904.34 123.96 905.75 123.57Q907.16 123.18 907.86 122.87Q908.64 122.56 908.8 122.25Q908.87 122.01 908.8 121.03Q908.72 120.06 908.44 118.65Q908.17 117.25 907.82 115.6Q907.47 113.96 906.96 112.52Q906.45 111.07 905.87 109.94ZM156.1 114.16Q155.98 111.15 155.83 109.28Q155.67 107.4 155.44 107.25Q155.4 107.22 155.36 107.2Q154.91 106.96 154.15 107.28Q153.33 107.64 152.55 108.34Q151.76 109.04 151.14 109.94Q150.51 110.84 150.51 111.54Q150.51 112.17 150.4 114.51Q150.28 116.85 150.12 120.21Q149.97 123.57 149.73 127.6Q149.5 131.62 149.26 135.45Q148.8 135.68 148.25 135.92Q147.15 136.31 145.83 136.54Q145.76 136.57 145.69 136.58Q145.36 136.62 144.97 136.23Q144.5 135.76 144.07 134.94Q143.64 134.12 143.37 132.99Q143.09 131.85 143.09 130.6Q143.09 130.29 143.25 128.65Q143.4 127.01 143.6 124.71Q143.8 122.4 143.99 119.78Q144.19 117.17 144.38 114.9Q144.58 112.64 144.62 111Q144.65 109.35 144.58 109.04Q144.42 108.65 143.8 108.34Q143.62 108.25 143.44 108.18Q142.98 107.99 142.47 107.91Q141.76 107.79 141.14 107.83Q140.51 107.87 140.36 108.1Q140.28 108.26 139.93 109.71Q139.58 111.15 139.07 113.26Q138.56 115.37 138.05 117.95Q137.55 120.53 137.08 122.95Q136.61 125.37 136.33 127.4Q136.06 129.43 136.06 130.53Q136.06 132.09 136.45 133.85Q136.84 135.6 137.43 137.13Q138.01 138.65 138.76 139.82Q139.5 141 140.2 141.46Q140.34 141.56 140.49 141.64Q141.89 142.45 143.91 142.21Q146.14 141.93 148.87 141Q148.56 144.98 148.25 147.75Q147.94 150.53 147.62 151.15Q147.59 151.21 147.54 151.26Q147.16 151.64 145.98 151.23Q144.65 150.76 143.09 150.02Q141.53 149.28 140.16 148.57Q138.8 147.87 138.48 147.87Q138.4 147.87 138.33 147.9Q138.07 148.01 137.98 148.53Q137.86 149.2 137.94 150.1Q138.01 151 138.21 151.89Q138.4 152.79 138.64 153.26Q138.87 153.73 140.01 154.86Q141.14 156 142.66 157.01Q143.45 157.54 144.3 157.96Q145.08 158.35 145.9 158.65Q147.53 159.24 148.87 158.86Q148.95 158.83 149.03 158.81Q149.73 158.57 150.79 157.75Q151.84 156.93 152.86 155.92Q153.87 154.9 154.62 153.92Q155.36 152.95 155.51 152.48Q155.67 151.85 155.79 149.59Q155.9 147.32 156.02 144.08Q156.14 140.84 156.18 136.89Q156.22 132.95 156.22 128.89L156.22 121Q156.22 117.17 156.1 114.16ZM661.63 114.16Q661.51 111.15 661.35 109.28Q661.2 107.4 660.96 107.25Q660.93 107.22 660.89 107.2Q660.43 106.96 659.67 107.28Q658.85 107.64 658.07 108.34Q657.29 109.04 656.66 109.94Q656.04 110.84 656.04 111.54Q656.04 112.17 655.92 114.51Q655.81 116.85 655.65 120.21Q655.49 123.57 655.26 127.6Q655.02 131.62 654.79 135.45Q654.32 135.68 653.77 135.92Q652.68 136.31 651.35 136.54Q651.28 136.57 651.22 136.58Q650.88 136.62 650.49 136.23Q650.02 135.76 649.59 134.94Q649.16 134.12 648.89 132.99Q648.62 131.85 648.62 130.6Q648.62 130.29 648.77 128.65Q648.93 127.01 649.13 124.71Q649.32 122.4 649.52 119.78Q649.71 117.17 649.91 114.9Q650.1 112.64 650.14 111Q650.18 109.35 650.1 109.04Q649.95 108.65 649.32 108.34Q649.15 108.25 648.97 108.18Q648.5 107.99 647.99 107.91Q647.29 107.79 646.66 107.83Q646.04 107.87 645.88 108.1Q645.81 108.26 645.45 109.71Q645.1 111.15 644.59 113.26Q644.09 115.37 643.58 117.95Q643.07 120.53 642.6 122.95Q642.13 125.37 641.86 127.4Q641.59 129.43 641.59 130.53Q641.59 132.09 641.98 133.85Q642.37 135.6 642.95 137.13Q643.54 138.65 644.28 139.82Q645.02 141 645.73 141.46Q645.87 141.56 646.01 141.64Q647.42 142.45 649.44 142.21Q651.66 141.93 654.4 141Q654.09 144.98 653.77 147.75Q653.46 150.53 653.15 151.15Q653.11 151.21 653.06 151.26Q652.68 151.64 651.51 151.23Q650.18 150.76 648.62 150.02Q647.06 149.28 645.69 148.57Q644.32 147.87 644.01 147.87Q643.93 147.87 643.86 147.9Q643.59 148.01 643.5 148.53Q643.38 149.2 643.46 150.1Q643.54 151 643.73 151.89Q643.93 152.79 644.16 153.26Q644.4 153.73 645.53 154.86Q646.66 156 648.19 157.01Q648.98 157.54 649.83 157.96Q650.6 158.35 651.43 158.65Q653.05 159.24 654.39 158.86Q654.48 158.83 654.56 158.81Q655.26 158.57 656.31 157.75Q657.37 156.93 658.38 155.92Q659.4 154.9 660.14 153.92Q660.88 152.95 661.04 152.48Q661.2 151.85 661.31 149.59Q661.43 147.32 661.55 144.08Q661.66 140.84 661.7 136.89Q661.74 132.95 661.74 128.89L661.74 121Q661.74 117.17 661.63 114.16ZM873.55 130.29Q875.35 129.82 875.42 129.67Q875.5 129.43 875.5 127.95Q875.5 126.46 875.46 124.78Q875.42 123.1 875.35 121.62Q875.27 120.14 875.27 119.82Q875.11 116.54 874.49 114.24Q873.86 111.93 873.08 111.15Q871.75 109.82 869.06 109.43Q866.36 109.04 863.39 109.59Q862.13 109.82 860.93 110.22Q859.29 110.77 857.77 111.62Q855.36 112.97 854.17 115.02Q854.05 115.23 853.94 115.45Q853.16 117.09 852.73 119.75Q852.3 122.4 852.1 125.53Q851.91 128.65 851.99 131.93Q852.06 135.21 852.26 137.95Q852.46 140.68 852.77 142.6Q853.08 144.51 853.47 144.98Q854.02 145.68 856.21 146.74Q858.39 147.79 861.13 148.53Q862.81 148.99 864.52 149.18Q865.59 149.3 866.67 149.32Q869.23 149.35 871.01 148.2Q871.19 148.08 871.36 147.95Q871.99 147.48 872.53 146.35Q873.08 145.21 873.55 143.77Q874.02 142.32 874.37 140.72Q874.72 139.12 874.99 137.75Q875.27 136.39 875.35 135.45Q875.42 134.51 875.35 134.28Q875.19 134.12 874.41 134.04Q873.78 133.96 872.42 134.04Q871.05 134.12 868.63 134.51Q868.63 138.73 868.12 140.68Q867.61 142.64 866.99 143.42Q866.42 144.05 865.8 144.09Q865.58 144.11 865.35 144.04Q864.17 143.89 863.35 143.53Q862.53 143.18 861.99 142.79Q861.36 142.32 860.97 141.78Q860.58 141.15 860.03 138.69Q859.49 136.23 859.1 133.1Q861.13 132.79 863.94 132.28Q866.75 131.78 869.25 131.27Q871.75 130.76 873.55 130.29ZM367.95 115.76Q368.57 116.07 369.04 116.39Q368.65 120.45 368.41 124.63Q368.18 128.81 367.95 133.96Q367.95 134.67 367.79 134.82Q367.55 136.85 366.54 137.56Q366.3 137.71 365.84 137.95Q365.37 138.18 364.78 138.34Q364.2 138.5 363.61 138.5Q363.07 138.5 362.76 138.23Q362.73 138.21 362.71 138.18Q362.63 138.1 362.48 136.82Q362.32 135.53 362.13 133.65Q361.93 131.78 361.77 129.59Q361.62 127.4 361.46 125.53Q361.3 123.65 361.23 122.32Q361.15 121 361.15 120.84Q361.15 119.95 361.36 119.12Q361.46 118.7 361.62 118.3Q362.09 117.09 362.75 116.23Q363.41 115.37 364.08 114.9Q364.74 114.43 365.13 114.59Q365.99 114.82 366.7 115.14Q367.4 115.45 367.95 115.76ZM455.64 115.76Q456.26 116.07 456.73 116.39Q456.34 120.45 456.11 124.63Q455.87 128.81 455.64 133.96Q455.64 134.67 455.48 134.82Q455.25 136.85 454.23 137.56Q454 137.71 453.53 137.95Q453.06 138.18 452.48 138.34Q451.89 138.5 451.3 138.5Q450.76 138.5 450.45 138.23Q450.43 138.21 450.4 138.18Q450.33 138.1 450.17 136.82Q450.01 135.53 449.82 133.65Q449.62 131.78 449.47 129.59Q449.31 127.4 449.15 125.53Q449 123.65 448.92 122.32Q448.84 121 448.84 120.84Q448.84 119.95 449.05 119.12Q449.15 118.7 449.31 118.3Q449.78 117.09 450.44 116.23Q451.11 115.37 451.77 114.9Q452.44 114.43 452.83 114.59Q453.69 114.82 454.39 115.14Q455.09 115.45 455.64 115.76ZM395.34 119.86Q395.3 117.79 395.15 117.4Q395.09 117.27 395 117.16Q394.62 116.69 393.7 116.66Q392.57 116.62 391.28 117.01Q390.92 117.12 390.58 117.26Q389.68 117.62 388.86 118.18Q387.76 118.94 387.51 119.92Q387.5 119.95 387.49 119.98Q387.33 120.6 387.33 122.79Q387.33 124.98 387.49 127.91Q387.65 130.84 387.88 134.04Q388.11 137.25 388.43 139.98Q388.74 142.71 389.09 144.51Q389.44 146.31 389.75 146.31Q390.38 146.46 391.79 146.19Q392.71 146.01 393.33 145.48Q393.65 145.2 393.9 144.82Q394.13 144.43 394.36 142.36Q394.6 140.29 394.79 137.36Q394.99 134.43 395.15 131.11Q395.3 127.79 395.34 124.86Q395.38 121.93 395.34 119.86ZM861.32 127.36Q859.72 127.95 858.47 128.42Q858.24 126.39 858.16 124.51Q858.08 122.64 858.24 121.39Q858.36 119.93 859.14 119.08Q859.37 118.84 859.64 118.65Q860.07 118.36 860.53 118.13Q861.41 117.69 862.42 117.48Q863.94 117.17 865.38 117.36Q866.83 117.56 867.46 117.79Q867.69 117.95 867.92 118.73Q868.16 119.51 868.31 120.57Q868.47 121.62 868.59 122.75Q868.71 123.89 868.78 124.75Q868.24 124.98 867.06 125.37Q865.89 125.76 864.41 126.27Q862.92 126.78 861.32 127.36ZM118.31 131.66Q118.24 132.32 118.24 132.71Q118.11 134.17 117.32 134.95Q117.13 135.14 116.91 135.29Q116.33 135.68 115.7 135.9Q115.04 136.13 114.33 136.19Q113.41 136.27 112.51 136.18Q112.03 136.13 111.56 136.03Q110.19 135.76 109.64 135.37Q109.41 135.21 109.21 134.67Q109.02 134.12 108.9 133.38Q108.78 132.64 108.7 131.85Q108.63 131.07 108.63 130.37Q108.7 128.89 108.98 128.18Q109.13 127.79 109.39 127.49Q109.6 127.26 109.88 127.09Q110.35 126.78 111.6 126.74Q112.85 126.7 114.25 126.82Q115.66 126.93 116.79 127.25Q117.92 127.56 118.16 128.03Q118.31 128.34 118.35 128.96Q118.39 129.59 118.39 130.29Q118.39 131 118.31 131.66ZM304.56 131.66Q304.48 132.32 304.48 132.71Q304.36 134.17 303.57 134.95Q303.38 135.14 303.15 135.29Q302.58 135.68 301.94 135.9Q301.29 136.13 300.58 136.19Q299.66 136.27 298.76 136.18Q298.28 136.13 297.8 136.03Q296.44 135.76 295.89 135.37Q295.65 135.21 295.46 134.67Q295.26 134.12 295.15 133.38Q295.03 132.64 294.95 131.85Q294.87 131.07 294.87 130.37Q294.95 128.89 295.23 128.18Q295.38 127.79 295.64 127.49Q295.85 127.26 296.12 127.09Q296.59 126.78 297.84 126.74Q299.09 126.7 300.5 126.82Q301.9 126.93 303.04 127.25Q304.17 127.56 304.4 128.03Q304.56 128.34 304.6 128.96Q304.64 129.59 304.64 130.29Q304.64 131 304.56 131.66ZM530.99 131.66Q530.91 132.32 530.91 132.71Q530.78 134.17 530 134.95Q529.81 135.14 529.58 135.29Q529.01 135.68 528.37 135.9Q527.72 136.13 527 136.19Q526.09 136.27 525.18 136.18Q524.71 136.13 524.23 136.03Q522.86 135.76 522.32 135.37Q522.08 135.21 521.89 134.67Q521.69 134.12 521.58 133.38Q521.46 132.64 521.38 131.85Q521.3 131.07 521.3 130.37Q521.38 128.89 521.65 128.18Q521.81 127.79 522.07 127.49Q522.28 127.26 522.55 127.09Q523.02 126.78 524.27 126.74Q525.52 126.7 526.93 126.82Q528.33 126.93 529.46 127.25Q530.6 127.56 530.83 128.03Q530.99 128.34 531.03 128.96Q531.07 129.59 531.07 130.29Q531.07 131 530.99 131.66ZM623.84 131.66Q623.76 132.32 623.76 132.71Q623.64 134.17 622.85 134.95Q622.66 135.14 622.43 135.29Q621.86 135.68 621.22 135.9Q620.57 136.13 619.85 136.19Q618.94 136.27 618.03 136.18Q617.56 136.13 617.08 136.03Q615.71 135.76 615.17 135.37Q614.93 135.21 614.74 134.67Q614.54 134.12 614.43 133.38Q614.31 132.64 614.23 131.85Q614.15 131.07 614.15 130.37Q614.23 128.89 614.5 128.18Q614.66 127.79 614.92 127.49Q615.13 127.26 615.4 127.09Q615.87 126.78 617.12 126.74Q618.37 126.7 619.78 126.82Q621.18 126.93 622.32 127.25Q623.45 127.56 623.68 128.03Q623.84 128.34 623.88 128.96Q623.92 129.59 623.92 130.29Q623.92 131 623.84 131.66ZM773.9 131.66Q773.82 132.32 773.82 132.71Q773.7 134.17 772.91 134.95Q772.72 135.14 772.5 135.29Q771.92 135.68 771.29 135.9Q770.63 136.13 769.92 136.19Q769 136.27 768.1 136.18Q767.62 136.13 767.14 136.03Q765.78 135.76 765.23 135.37Q765 135.21 764.8 134.67Q764.61 134.12 764.49 133.38Q764.37 132.64 764.29 131.85Q764.21 131.07 764.21 130.37Q764.29 128.89 764.57 128.18Q764.72 127.79 764.98 127.49Q765.19 127.26 765.46 127.09Q765.93 126.78 767.18 126.74Q768.43 126.7 769.84 126.82Q771.25 126.93 772.38 127.25Q773.51 127.56 773.75 128.03Q773.9 128.34 773.94 128.96Q773.98 129.59 773.98 130.29Q773.98 131 773.9 131.66ZM481.32 142.75Q481.82 140.6 482.06 138.81Q482.21 138.1 482.29 137.17Q482.37 136.23 482.21 135.84Q482.18 135.74 482.12 135.66Q481.81 135.21 480.89 135.17Q479.79 135.14 478.46 135.53Q478.06 135.64 477.67 135.79Q476.77 136.13 475.93 136.62Q474.71 137.32 474.32 138.26Q474.17 138.65 474.09 139Q474.01 139.35 473.78 140.37Q473.62 141.15 473.54 142.99Q473.46 144.82 473.43 146.74Q473.39 148.65 473.43 150.29Q473.46 151.93 473.7 152.25Q473.88 152.61 474.17 152.84Q474.38 153.01 474.64 153.1Q474.97 153.23 475.32 153.29Q475.62 153.34 475.93 153.34Q476.49 153.34 477 153.17Q477.09 153.14 477.18 153.1Q477.65 152.91 477.95 152.57Q478.01 152.49 478.07 152.4Q478.46 151.85 479.05 150.33Q479.64 148.81 480.22 146.85Q480.81 144.9 481.32 142.75Z" fill="url(#paint_linear_19_155_0)" fill-opacity="1.000000" fill-rule="evenodd"/>
</svg>
