<svg width="349.998260" height="98.491699" viewBox="0 0 349.998 98.4917" fill="none" xmlns="http://www.w3.org/2000/svg" xmlns:xlink="http://www.w3.org/1999/xlink">
	<desc>
			Created with Pixso.
	</desc>
	<defs>
		<filter id="filter_19_86_dd" x="0.000000" y="0.000000" width="349.998260" height="56.281250" filterUnits="userSpaceOnUse" color-interpolation-filters="sRGB">
			<feFlood flood-opacity="0" result="BackgroundImageFix"/>
			<feBlend mode="normal" in="SourceGraphic" in2="BackgroundImageFix" result="shape"/>
			<feGaussianBlur stdDeviation="4.10383" result="effect_layerBlur_1"/>
		</filter>
		<filter id="filter_19_87_dd" x="22.864258" y="17.587646" width="307.787415" height="22.864258" filterUnits="userSpaceOnUse" color-interpolation-filters="sRGB">
			<feFlood flood-opacity="0" result="BackgroundImageFix"/>
			<feBlend mode="normal" in="SourceGraphic" in2="BackgroundImageFix" result="shape"/>
			<feGaussianBlur stdDeviation="2.93131" result="effect_layerBlur_1"/>
		</filter>
		<linearGradient x1="174.119781" y1="98.491791" x2="174.119781" y2="28.140381" id="paint_linear_19_83_0" gradientUnits="userSpaceOnUse">
			<stop stop-color="#FF0845"/>
			<stop offset="1.000000" stop-color="#FF4040"/>
		</linearGradient>
		<linearGradient x1="174.119797" y1="96.733253" x2="174.119797" y2="29.899414" id="paint_linear_19_84_0" gradientUnits="userSpaceOnUse">
			<stop stop-color="#FF0845"/>
			<stop offset="1.000000" stop-color="#FFB099"/>
		</linearGradient>
		<linearGradient x1="176.520554" y1="29.899414" x2="176.520554" y2="96.733253" id="paint_linear_19_84_1" gradientUnits="userSpaceOnUse">
			<stop stop-color="#FFFFFF"/>
			<stop offset="1.000000" stop-color="#FFFFFF" stop-opacity="0.329412"/>
		</linearGradient>
		<linearGradient x1="174.999115" y1="12.311523" x2="174.999115" y2="43.969658" id="paint_linear_19_86_0" gradientUnits="userSpaceOnUse">
			<stop stop-color="#FFFFFF"/>
			<stop offset="1.000000" stop-color="#C4C4C4" stop-opacity="0.000000"/>
			<stop offset="1.000000" stop-color="#FFFFFF" stop-opacity="0.760784"/>
		</linearGradient>
	</defs>
	<g style="mix-blend-mode:normal">
		<path d="M319.32 29.45L334.61 46.23L334.61 80.39L319.32 97.17L28.91 97.17L13.62 80.39L13.62 46.23L28.91 29.45L319.32 29.45ZM319.9 28.14L28.33 28.14L12.31 45.72L12.31 80.9L28.33 98.49L319.9 98.49L335.92 80.9L335.92 45.72L319.9 28.14Z" fill="url(#paint_linear_19_83_0)" fill-opacity="1.000000" fill-rule="evenodd"/>
	</g>
	<g opacity="0.600000" style="mix-blend-mode:soft-light">
		<path d="M29.19 29.89L319.2 29.89L334.16 46.45L334.16 80.02L319.22 96.73L28.47 96.73L14.07 80.02L14.07 46.6L29.19 29.89Z" fill="url(#paint_linear_19_84_0)" fill-opacity="1.000000" fill-rule="nonzero"/>
		<path d="M318.42 31.65L332.41 47.13L332.41 79.35L318.43 94.97L29.28 94.97L15.82 79.37L15.82 47.28L29.97 31.65L318.42 31.65ZM319.2 29.89L29.19 29.89L14.07 46.6L14.07 80.02L28.47 96.73L319.22 96.73L334.16 80.02L334.16 46.45L319.2 29.89Z" fill="url(#paint_linear_19_84_1)" fill-opacity="1.000000" fill-rule="evenodd"/>
	</g>
	<g opacity="0.200000" filter="url(#filter_19_86_dd)">
		<ellipse cx="174.999130" cy="28.140625" rx="162.687637" ry="15.829067" fill="url(#paint_linear_19_86_0)" fill-opacity="1.000000"/>
	</g>
	<g opacity="0.700000" filter="url(#filter_19_87_dd)" style="mix-blend-mode:screen">
		<ellipse cx="176.757965" cy="29.019775" rx="145.099792" ry="2.638178" fill="#FFFFFF" fill-opacity="1.000000"/>
	</g>
	<path d="M134.92 55.52Q133.63 55.11 132.39 55.07Q130.7 55.02 129.42 55.47Q128.14 55.92 127.19 56.72Q126.58 57.24 126.1 57.86Q125.85 58.2 125.63 58.57Q125.02 59.62 124.68 60.74Q124.35 61.86 124.25 62.98Q124.14 64.1 124.26 65.02Q124.3 65.44 124.4 65.85Q124.56 66.52 124.87 67.15Q125.07 67.55 125.3 67.93Q125.66 68.51 126.1 69.03Q126.56 69.56 127.08 70.02Q127.4 70.31 127.76 70.57Q128.67 71.23 129.63 71.66Q130.58 72.09 131.52 72.24Q132.46 72.39 133.24 72.2Q134.53 71.9 135.83 70.97Q135.88 70.93 135.93 70.89Q137.16 69.98 138.11 68.69Q138.38 68.33 138.62 67.95Q139.26 66.92 139.67 65.75Q140.05 64.67 140.1 63.58Q140.13 63.04 140.08 62.51Q139.89 60.5 139.13 59.1Q138.37 57.7 137.28 56.81Q136.42 56.1 135.43 55.7Q135.17 55.6 134.92 55.52ZM241.39 55.52Q240.11 55.11 238.86 55.07Q237.18 55.02 235.9 55.47Q234.61 55.92 233.67 56.72Q233.05 57.24 232.58 57.86Q232.32 58.2 232.11 58.57Q231.5 59.62 231.16 60.74Q230.83 61.86 230.72 62.98Q230.62 64.1 230.73 65.02Q230.78 65.44 230.88 65.85Q231.04 66.52 231.35 67.15Q231.54 67.55 231.78 67.93Q232.13 68.51 232.58 69.03Q233.03 69.56 233.55 70.02Q233.88 70.31 234.23 70.57Q235.14 71.23 236.1 71.66Q237.06 72.09 238 72.24Q238.93 72.39 239.72 72.2Q241.01 71.9 242.3 70.97Q242.36 70.93 242.41 70.89Q243.64 69.98 244.59 68.69Q244.86 68.33 245.1 67.95Q245.74 66.92 246.15 65.75Q246.53 64.67 246.58 63.58Q246.61 63.04 246.55 62.51Q246.37 60.5 245.61 59.1Q244.84 57.7 243.76 56.81Q242.89 56.1 241.9 55.7Q241.65 55.6 241.39 55.52ZM143.72 55.82Q143.12 55.74 142.38 55.62Q142.98 56.08 143.33 56.55Q143.67 57.01 143.86 57.38Q144.09 57.79 144.16 58.21Q144.18 58.44 144.21 59.3Q144.23 60.15 144.25 61.34Q144.27 62.53 144.27 63.89Q144.27 65.25 144.25 66.5Q144.23 67.75 144.19 68.71Q144.16 69.66 144.11 70.03Q144.07 70.26 143.86 70.59Q143.67 70.89 143.33 71.33Q142.98 71.77 142.38 72.39Q143.14 72.37 143.8 72.37L144.94 72.37Q145.52 72.37 145.98 72.39Q146.45 72.41 146.95 72.41Q147.39 72.44 147.94 72.44L149.08 72.44Q148.75 72.2 148.5 71.85Q148.25 71.49 148.09 71.17Q147.88 70.77 147.76 70.36Q147.65 69.94 147.55 69.36Q147.49 68.88 147.44 68.15Q147.39 67.42 147.44 66.43Q147.65 66.39 147.89 66.35Q148.13 66.32 148.34 66.29Q148.59 66.27 148.8 66.25Q149.03 66.22 149.4 66.18Q149.73 66.13 150.17 66.07Q150.63 66.02 151.3 65.9Q151.97 66.62 152.27 67.32Q152.57 68.02 152.64 68.6Q152.73 69.27 152.61 69.9Q152.52 70.24 152.31 70.61Q152.13 70.93 151.8 71.33Q151.48 71.72 150.97 72.11Q152.13 72.09 152.95 72.09L154.3 72.09Q154.92 72.09 155.34 72.11Q155.75 72.14 156.21 72.14L157.15 72.14Q157.69 72.14 158.34 72.11Q157.88 71.79 157.57 71.44Q157.25 71.1 157.02 70.8Q156.77 70.45 156.58 70.13Q156.35 69.71 156.28 69.39Q156.21 69.06 156.18 68.75Q156.14 68.44 156.05 68.09Q155.96 67.75 155.71 67.26Q155.5 66.92 155.08 66.55Q154.74 66.25 154.17 65.9Q153.61 65.55 152.75 65.3Q153.63 65.02 154.29 64.65Q154.94 64.28 155.43 63.87Q155.91 63.45 156.25 63Q156.58 62.55 156.79 62.14Q157.14 61.43 157.25 60.69Q157.29 60.39 157.3 60.08Q157.28 59.36 157.12 58.76Q156.95 58.16 156.57 57.62Q156.19 57.08 155.55 56.59Q154.9 56.11 153.88 55.62Q153.75 55.56 153.61 55.51Q152.71 55.14 151.64 55.17Q150.42 55.21 149.25 55.43Q148.09 55.65 147.12 55.89Q146.14 56.13 145.66 56.06Q145.27 56.02 144.76 55.95Q144.32 55.9 143.72 55.82ZM218.28 56.69Q217.23 56.66 215.84 56.55Q216.42 57.47 216.6 57.96Q216.72 58.26 216.81 58.49Q216.88 58.67 216.94 59.55Q217 60.43 217.04 61.66Q217.09 62.9 217.14 64.31Q217.18 65.72 217.21 66.97Q217.23 68.23 217.23 69.17Q217.23 70.1 217.21 70.38Q217.16 70.7 217.02 71.05Q216.91 71.35 216.65 71.74Q216.4 72.14 216 72.53Q216.67 72.41 217.27 72.32Q217.88 72.23 218.34 72.18Q218.89 72.11 219.35 72.09Q219.79 72.07 220.28 72.09Q220.67 72.11 221.18 72.16Q221.69 72.2 222.15 72.32Q221.55 71.65 221.17 71.06Q220.78 70.47 220.58 70.01Q220.32 69.48 220.21 69.02Q220.12 68.56 220.02 67.86Q219.95 67.26 219.86 66.37Q219.77 65.48 219.72 64.24Q220.18 64.31 220.59 64.39Q220.99 64.47 221.29 64.54Q221.64 64.63 221.94 64.72Q222.22 64.84 222.52 65.05Q222.77 65.23 223.07 65.54Q223.37 65.85 223.65 66.34Q223.76 65.58 223.86 65.07Q223.95 64.56 224.02 64.24Q224.09 63.87 224.13 63.66Q224.16 63.45 224.25 63.06Q224.32 62.74 224.42 62.18Q224.53 61.63 224.66 60.8Q224.41 61.26 224.08 61.58Q223.74 61.9 223.44 62.14Q223.09 62.39 222.75 62.57Q222.52 62.67 222.12 62.76Q221.8 62.83 221.25 62.9Q220.69 62.97 219.88 63.01Q219.91 62.85 219.93 62.4Q219.95 61.95 220.02 61.36Q220.09 60.77 220.28 60.14Q220.4 59.7 220.62 59.3Q220.71 59.13 220.82 58.96Q220.94 58.78 221.07 58.63Q221.36 58.31 221.75 58.07Q222.33 57.72 223.23 57.72Q223.86 57.79 224.55 58.33Q225.15 58.79 225.85 59.76Q226.56 60.73 227.25 62.53Q227.44 61.37 227.56 60.53Q227.69 59.69 227.78 59.13Q227.88 58.49 227.94 58.05Q228.04 57.66 228.15 57.24Q228.27 56.89 228.44 56.47Q228.46 56.42 228.48 56.38Q228.64 56 228.87 55.65Q226.88 55.97 225.5 56.17Q224.11 56.36 223.23 56.48Q222.19 56.59 221.55 56.66Q220.92 56.71 220.07 56.71Q219.33 56.71 218.28 56.69ZM104.1 55.93Q103.55 55.95 102.81 55.92Q103.22 56.2 103.48 56.52Q103.73 56.85 103.85 57.15Q103.98 57.49 104.05 57.84L104.05 58.6Q104.05 59.2 104.04 60.09Q104.03 60.98 104.01 62.08Q103.98 63.17 103.95 64.32Q103.92 65.46 103.88 66.57Q103.85 67.68 103.79 68.58Q103.73 69.48 103.67 70.1Q103.62 70.73 103.55 70.91Q103.43 71.21 103.2 71.51Q103.02 71.77 102.69 72.08Q102.37 72.39 101.86 72.71Q103.04 72.6 103.94 72.55Q104.84 72.51 105.49 72.46Q106.23 72.41 106.78 72.39Q107.31 72.39 107.86 72.37Q108.33 72.34 108.88 72.34L109.94 72.34Q109.23 71.65 108.78 71.08Q108.33 70.52 108.07 70.1Q107.77 69.62 107.63 69.23Q107.54 68.79 107.5 67.82Q107.45 67.01 107.5 65.54Q107.54 64.08 107.77 61.72Q108.23 62.57 108.59 63.27Q108.95 63.96 109.2 64.47Q109.48 65.07 109.71 65.55Q109.92 66.04 110.13 66.66Q110.31 67.19 110.5 67.94Q110.68 68.69 110.87 69.62L111.74 69.57Q112.14 68.46 112.45 67.54Q112.76 66.62 112.99 65.95Q113.25 65.16 113.48 64.51Q113.71 63.89 113.98 63.22Q114.24 62.64 114.57 61.94Q114.91 61.24 115.35 60.52Q115.39 63.66 115.35 65.52Q115.3 67.38 115.21 68.37Q115.12 69.53 114.95 69.96Q114.79 70.29 114.56 70.63Q114.38 70.93 114.1 71.3Q113.82 71.67 113.5 72.04Q114.89 71.97 115.76 71.94Q116.64 71.9 117.17 71.88Q117.77 71.86 118.12 71.86Q118.44 71.86 118.97 71.84Q119.44 71.81 120.14 71.79Q120.84 71.77 121.91 71.72Q121.24 71.21 120.83 70.8Q120.43 70.38 120.17 70.06Q119.9 69.69 119.74 69.41Q119.62 69.18 119.56 68.34Q119.5 67.49 119.48 66.34Q119.46 65.18 119.47 63.89Q119.48 62.6 119.52 61.45Q119.55 60.31 119.59 59.48Q119.62 58.65 119.67 58.42Q119.71 58.14 119.9 57.84Q120.06 57.59 120.35 57.25Q120.64 56.92 121.12 56.57Q119.8 56.64 118.92 56.67Q118.03 56.71 117.5 56.75Q116.87 56.8 116.5 56.8Q116.16 56.82 115.72 56.82Q115.32 56.85 114.79 56.85L113.59 56.85Q113.43 57.79 113.28 58.51Q113.13 59.23 113.02 59.73Q112.88 60.33 112.76 60.75Q112.65 61.17 112.46 61.67Q112.3 62.11 112.08 62.71Q111.86 63.31 111.61 64.03Q111.08 62.92 110.68 62.05Q110.29 61.19 110.01 60.59Q109.69 59.87 109.46 59.36Q109.23 58.86 109 58.28Q108.81 57.79 108.57 57.18Q108.33 56.57 108.14 55.92Q107.54 55.9 107.08 55.9L106.29 55.9Q105.92 55.9 105.67 55.92L105 55.92Q104.65 55.92 104.1 55.93ZM199.13 56.36Q198.46 56.29 197.42 56.11Q197.95 56.57 198.25 56.95Q198.55 57.33 198.73 57.63Q198.94 57.98 199.01 58.28Q199.03 58.46 199.09 59.25Q199.15 60.03 199.2 61.14Q199.24 62.25 199.28 63.54Q199.31 64.84 199.32 66Q199.34 67.17 199.31 68.08Q199.29 68.99 199.22 69.36Q199.13 69.71 198.9 70.17Q198.71 70.57 198.38 71.13Q198.04 71.7 197.49 72.37Q198.67 72.2 199.46 72.11Q200.26 72.02 200.72 71.97Q201.28 71.9 201.6 71.9L202.29 71.9Q202.96 71.9 204.32 71.97Q203.93 70.96 203.67 70.15Q203.4 69.34 203.22 68.74Q203.01 68.05 202.89 67.49Q202.8 66.92 202.73 66.06Q202.68 65.32 202.67 64.2Q202.66 63.08 202.73 61.49Q203.45 62.62 203.97 63.5Q204.49 64.38 204.83 64.98Q205.25 65.69 205.5 66.25Q205.8 66.82 206.24 67.68Q206.63 68.42 207.25 69.56Q207.86 70.7 208.76 72.3L210.81 72.25Q210.88 71.28 210.93 70.32Q210.97 69.36 211.02 68.6Q211.07 67.7 211.07 66.92Q211.11 65.88 211.16 64.63Q211.21 63.38 211.26 62.23Q211.32 61.07 211.38 60.14Q211.44 59.2 211.53 58.79Q211.6 58.46 211.81 58.09Q211.99 57.77 212.29 57.36Q212.59 56.94 213.1 56.48Q212.22 56.55 211.63 56.58Q211.04 56.62 210.65 56.66Q210.21 56.71 209.91 56.71Q209.68 56.73 209.27 56.73L208.3 56.73Q207.7 56.73 206.75 56.71Q207.33 57.49 207.65 58.11Q207.97 58.72 208.16 59.16Q208.37 59.66 208.43 60.06Q208.48 60.38 208.48 61.03Q208.48 61.67 208.47 62.45Q208.46 63.22 208.42 64.04Q208.39 64.86 208.37 65.54Q208.34 66.22 208.32 66.67Q208.3 67.12 208.3 67.15Q208.3 67.15 208.29 67.15Q208.28 67.16 208.09 66.64Q207.88 66.08 207.57 65.23Q207.26 64.38 206.89 63.41Q206.52 62.44 206.19 61.63Q205.92 60.98 205.59 60.17Q205.32 59.5 204.91 58.56Q204.51 57.61 204.02 56.48Q203.17 56.48 202.6 56.49Q202.04 56.5 201.67 56.5L200.97 56.5Q200.7 56.52 200.21 56.48Q199.8 56.43 199.13 56.36ZM189.03 56.7Q188.49 56.66 187.7 56.57Q188.21 57.1 188.52 57.53Q188.83 57.96 189.02 58.28Q189.22 58.65 189.29 58.95Q189.41 59.43 189.49 60.24Q189.57 61.05 189.62 62.04Q189.66 63.04 189.68 64.11Q189.69 65.18 189.66 66.21Q189.64 67.24 189.58 68.13Q189.53 69.02 189.43 69.62Q189.36 70.03 189.16 70.5Q188.97 70.89 188.67 71.42Q188.37 71.95 187.84 72.53Q188.88 72.44 189.62 72.39Q190.36 72.34 190.84 72.3Q191.42 72.25 191.79 72.25L192.62 72.25Q193.43 72.25 194.79 72.32Q194.69 72.27 194.6 72.21Q194.3 72 194.05 71.72Q193.73 71.35 193.5 71Q193.24 70.59 193.01 70.17Q192.85 69.8 192.75 68.97Q192.64 68.14 192.61 67.07Q192.57 65.99 192.57 64.79Q192.57 63.59 192.62 62.46Q192.67 61.33 192.72 60.37Q192.78 59.41 192.87 58.86Q192.92 58.51 193.13 58.12Q193.29 57.79 193.6 57.37Q193.91 56.94 194.44 56.48Q193.27 56.62 192.52 56.69Q191.77 56.75 191.33 56.8Q190.82 56.85 190.56 56.82Q190.33 56.82 189.92 56.78Q189.57 56.73 189.03 56.7ZM162.25 56.77Q161.17 56.75 159.56 56.71Q160.11 57.03 160.48 57.29Q160.85 57.54 161.06 57.72Q161.31 57.96 161.45 58.12Q161.73 58.58 161.94 60.22Q162.14 61.86 162.03 64.51Q162.05 65.58 162.03 66.82Q162.01 67.89 161.95 69.28Q161.89 70.68 161.78 72.25Q163.09 72.09 164.19 72Q165.29 71.9 166.09 71.86Q167.02 71.79 167.78 71.79Q168.52 71.77 169.4 71.74Q170.14 71.72 171.11 71.71Q172.08 71.7 173.16 71.67Q173.32 70.52 173.43 69.77Q173.53 69.02 173.58 68.58Q173.65 68.07 173.65 67.79Q173.67 67.54 173.72 67.05Q173.76 66.64 173.8 65.96Q173.83 65.28 173.92 64.24Q173.37 65.48 172.8 66.36Q172.24 67.24 171.78 67.82Q171.22 68.49 170.74 68.93Q170.53 69.1 170.3 69.24Q169.82 69.53 169.26 69.69Q168.43 69.92 167.63 69.95Q166.83 69.99 166.21 69.86Q165.59 69.73 165.38 69.53Q165.22 69.32 165.1 68.83Q164.99 68.42 164.93 67.64Q164.87 66.87 164.94 65.6Q165.52 65.48 165.9 65.48Q166.28 65.48 166.53 65.51Q166.81 65.55 166.97 65.6Q167.11 65.72 167.3 66.02Q167.46 66.27 167.68 66.77Q167.9 67.26 168.17 68.12Q168.13 66.87 168.12 66.05Q168.1 65.23 168.1 64.75L168.1 63.87Q168.08 63.57 168.08 63.06Q168.06 62.62 168.06 61.92Q168.06 61.21 168.01 60.15Q167.66 61.12 167.42 61.67Q167.18 62.23 167.04 62.55Q166.86 62.92 166.76 63.06Q166.65 63.17 166.39 63.31Q166.16 63.43 165.78 63.59Q165.4 63.75 164.78 63.94Q164.89 62.62 165 61.79Q165.1 60.96 165.22 60.47Q165.33 59.9 165.47 59.62Q165.63 59.3 165.78 59.03Q165.93 58.76 166.23 58.56Q166.53 58.35 167.06 58.23Q167.6 58.12 168.54 58.07Q168.82 58.08 169.08 58.14Q169.51 58.23 169.9 58.44Q170.46 58.74 171 59.39Q171.54 60.03 171.87 61.28Q171.98 60.89 172.03 60.52Q172.08 60.15 172.12 59.83Q172.17 59.46 172.19 59.13Q172.21 58.81 172.21 58.42Q172.21 58.09 172.18 57.67Q172.15 57.24 172.1 56.78L163.99 56.78Q163.32 56.78 162.25 56.77ZM151.5 63.48Q151.34 63.61 151.11 63.75Q150.72 63.96 150.16 64.08Q149.7 64.19 149.03 64.23Q148.36 64.26 147.49 64.12Q147.39 62.39 147.42 61.33Q147.44 60.27 147.51 59.66Q147.6 58.97 147.72 58.67Q147.89 58.32 148.14 58.04Q148.37 57.79 148.66 57.61Q149.23 57.25 149.81 57.22Q149.87 57.22 149.93 57.22Q150.26 57.22 150.68 57.37Q151.11 57.52 151.47 57.9Q151.83 58.28 152.05 58.93Q152.27 59.57 152.17 60.57Q152.06 61.56 151.98 62.14Q151.9 62.71 151.78 63.02Q151.67 63.34 151.5 63.48ZM128.73 68.39Q127.93 66.89 128.25 64.42Q128.41 63.2 128.75 61.93Q129.08 60.66 129.64 59.64Q130.19 58.63 131 57.99Q131.32 57.74 131.67 57.6Q132.23 57.38 132.89 57.42Q132.91 57.43 132.92 57.43Q133.53 57.48 134.11 57.91Q134.7 58.35 135.11 59.14Q135.53 59.94 135.7 61.06Q135.87 62.18 135.67 63.57Q135.46 64.95 135.02 66.22Q134.58 67.49 133.98 68.44Q133.38 69.39 132.65 69.88Q132.18 70.21 131.68 70.25Q131.41 70.28 131.14 70.22Q130.4 70.07 129.83 69.67Q129.16 69.21 128.73 68.39ZM235.2 68.39Q234.41 66.89 234.73 64.42Q234.89 63.2 235.23 61.93Q235.56 60.66 236.11 59.64Q236.67 58.63 237.48 57.99Q237.79 57.74 238.15 57.6Q238.71 57.38 239.37 57.42Q239.38 57.43 239.4 57.43Q240.01 57.48 240.58 57.91Q241.17 58.35 241.59 59.14Q242 59.94 242.18 61.06Q242.35 62.18 242.14 63.57Q241.93 64.95 241.5 66.22Q241.06 67.49 240.46 68.44Q239.86 69.39 239.13 69.88Q238.65 70.21 238.15 70.25Q237.89 70.28 237.62 70.22Q236.87 70.07 236.31 69.67Q235.63 69.21 235.2 68.39Z" fill="#FFE9DF" fill-opacity="1.000000" fill-rule="evenodd"/>
</svg>
