<svg width="133.357605" height="411.884277" viewBox="0 0 133.358 411.884" fill="none" xmlns="http://www.w3.org/2000/svg" xmlns:xlink="http://www.w3.org/1999/xlink">
	<desc>
			Created with Pixso.
	</desc>
	<defs>
		<filter id="filter_19_105_dd" x="0.000000" y="0.000000" width="133.357605" height="411.884277" filterUnits="userSpaceOnUse" color-interpolation-filters="sRGB">
			<feFlood flood-opacity="0" result="BackgroundImageFix"/>
			<feColorMatrix in="SourceAlpha" type="matrix" values="0 0 0 0 0 0 0 0 0 0 0 0 0 0 0 0 0 0 127 0" result="hardAlpha"/>
			<feOffset dx="0" dy="13.9158"/>
			<feGaussianBlur stdDeviation="9.66374"/>
			<feComposite in2="hardAlpha" operator="out" k2="-1" k3="1"/>
			<feColorMatrix type="matrix" values="0 0 0 0 0.18431 0 0 0 0 0.023529 0 0 0 0 0.035294 0 0 0 0.1 0"/>
			<feBlend mode="normal" in2="BackgroundImageFix" result="effect_dropShadow_1"/>
			<feBlend mode="normal" in="SourceGraphic" in2="effect_dropShadow_1" result="shape"/>
		</filter>
	</defs>
	<g filter="url(#filter_19_105_dd)">
		<path id="Rectangle 32" d="M33.78 346.1L33.78 199.38C33.78 198.82 33.58 198.29 33.21 197.87L29.55 193.6C28.8 192.73 28.8 191.45 29.55 190.58L33.21 186.32C33.58 185.89 33.78 185.36 33.78 184.8L33.78 37.95C33.78 37.17 34.16 36.45 34.8 36.02L65.38 15.47C66.16 14.94 67.19 14.94 67.97 15.47L98.55 36.02C99.19 36.45 99.57 37.17 99.57 37.95L99.57 184.8C99.57 185.36 99.77 185.9 100.14 186.32L103.79 190.52C104.55 191.38 104.55 192.67 103.81 193.54L100.13 197.87C99.77 198.29 99.57 198.82 99.57 199.37L99.57 346.1C99.57 346.87 99.19 347.59 98.55 348.02L67.97 368.58C67.19 369.1 66.16 369.1 65.38 368.58L34.8 348.02C34.16 347.59 33.78 346.87 33.78 346.1Z" fill="#FFFFFF" fill-opacity="1.000000" fill-rule="nonzero"/>
	</g>
	<g opacity="0.100000">
		<path id="Rectangle 33" d="M65.32 18.33L37.51 38.3C36.9 38.74 36.54 39.44 36.54 40.19L36.54 186.75C36.54 187.38 36.29 187.98 35.83 188.42L33.77 190.42C32.86 191.31 32.83 192.77 33.71 193.69L35.9 195.98C36.31 196.41 36.54 196.99 36.54 197.58L36.54 343.86C36.54 344.6 36.9 345.31 37.51 345.74L65.32 365.71C66.13 366.29 67.22 366.29 68.03 365.71L95.84 345.74C96.45 345.31 96.81 344.6 96.81 343.86L96.81 197.61C96.81 197 97.05 196.41 97.48 195.97L99.61 193.83C100.51 192.92 100.51 191.47 99.61 190.56L97.48 188.41C97.05 187.98 96.81 187.39 96.81 186.78L96.81 40.19C96.81 39.44 96.45 38.74 95.84 38.3L68.03 18.33C67.22 17.75 66.13 17.75 65.32 18.33ZM38.18 39.24L66 19.27Q66.34 19.03 66.67 19.03Q67.01 19.03 67.35 19.27L95.17 39.24Q95.41 39.42 95.53 39.65Q95.65 39.89 95.65 40.19L95.65 186.78Q95.65 187.5 95.9 188.11Q96.15 188.72 96.66 189.23L98.79 191.38Q99.19 191.79 99.19 192.19Q99.19 192.6 98.79 193.01L96.66 195.16Q96.15 195.67 95.9 196.28Q95.65 196.89 95.65 197.61L95.65 343.86Q95.65 344.15 95.53 344.39Q95.41 344.63 95.17 344.8L67.35 364.77Q67.01 365.01 66.67 365.01Q66.34 365.01 66 364.77L38.18 344.8Q37.94 344.63 37.82 344.39Q37.7 344.15 37.7 343.86L37.7 197.58Q37.7 196.88 37.46 196.28Q37.22 195.68 36.74 195.18L34.55 192.89Q34.15 192.47 34.16 192.06Q34.16 191.65 34.58 191.25L36.64 189.25Q37.17 188.74 37.44 188.12Q37.7 187.49 37.7 186.75L37.7 40.19Q37.7 39.89 37.82 39.65Q37.94 39.42 38.18 39.24Z" fill="#FFFFFF" fill-opacity="1.000000" fill-rule="evenodd"/>
	</g>
</svg>
