<svg width="75.178741" height="82.921143" viewBox="0 0 75.1787 82.9211" fill="none" xmlns="http://www.w3.org/2000/svg" xmlns:xlink="http://www.w3.org/1999/xlink">
	<desc>
			Created with Pixso.
	</desc>
	<defs/>
	<path id="Vector" d="M10.03 16.76C10.55 16.21 10.84 15.48 10.83 14.72C10.82 13.96 10.51 13.24 9.97 12.71C9.43 12.17 8.7 11.87 7.94 11.87C7.18 11.87 6.45 12.17 5.91 12.7L10.03 16.76ZM23.71 9.77L21.65 7.74C21.11 8.28 20.82 9.01 20.82 9.77C20.82 10.53 21.11 11.26 21.65 11.8L23.71 9.77ZM28.39 18.65C28.66 18.93 28.98 19.15 29.33 19.3C29.68 19.45 30.06 19.54 30.44 19.54C30.82 19.55 31.2 19.48 31.56 19.34C31.92 19.19 32.24 18.98 32.51 18.71C32.79 18.44 33 18.12 33.15 17.77C33.3 17.42 33.38 17.04 33.38 16.65C33.38 16.27 33.3 15.89 33.15 15.54C33 15.18 32.79 14.86 32.51 14.59L28.39 18.65ZM32.51 4.95C32.79 4.68 33 4.36 33.15 4C33.3 3.65 33.38 3.27 33.38 2.89C33.38 2.5 33.3 2.12 33.15 1.77C33 1.42 32.79 1.09 32.51 0.83C32.24 0.56 31.92 0.34 31.56 0.2C31.2 0.06 30.82 -0.01 30.44 0C30.06 0 29.68 0.08 29.33 0.24C28.98 0.39 28.66 0.61 28.39 0.89L32.51 4.95ZM75.17 45.33C75.17 44.56 74.87 43.82 74.33 43.28C73.78 42.74 73.05 42.44 72.28 42.44C71.52 42.44 70.78 42.74 70.24 43.28C69.7 43.82 69.39 44.56 69.39 45.33L75.17 45.33ZM69.16 30.07C69.18 30.45 69.28 30.82 69.44 31.16C69.61 31.51 69.84 31.81 70.12 32.06C70.41 32.32 70.74 32.51 71.1 32.64C71.45 32.76 71.83 32.81 72.21 32.79C72.59 32.77 72.96 32.68 73.31 32.51C73.65 32.34 73.95 32.11 74.21 31.83C74.46 31.55 74.65 31.22 74.78 30.86C74.9 30.5 74.96 30.12 74.93 29.74L69.16 30.07ZM37.58 77.13C29.32 77.13 23.42 77.13 18.94 76.52C14.55 75.91 11.94 74.78 10.03 72.84L5.91 76.89C9.07 80.11 13.1 81.56 18.16 82.25C23.12 82.92 29.49 82.92 37.58 82.92L37.58 77.13ZM0 44.8C0 53.02 -0.01 59.48 0.65 64.5C1.33 69.61 2.75 73.69 5.91 76.89L10.03 72.84C8.11 70.89 6.98 68.23 6.39 63.75C5.79 59.18 5.78 53.18 5.78 44.8L0 44.8ZM37.58 82.92C45.68 82.92 52.05 82.92 57.02 82.25C62.07 81.55 66.09 80.11 69.26 76.89L65.14 72.84C63.23 74.78 60.63 75.91 56.23 76.52C51.74 77.13 45.85 77.13 37.58 77.13L37.58 82.92ZM37.58 12.47C45.85 12.47 51.74 12.47 56.23 13.08C60.62 13.69 63.23 14.82 65.14 16.76L69.26 12.7C66.1 9.49 62.07 8.05 57.01 7.36C52.05 6.68 45.68 6.68 37.58 6.68L37.58 12.47ZM5.78 44.8C5.78 36.42 5.79 30.42 6.39 25.85C6.98 21.37 8.11 18.71 10.03 16.76L5.91 12.7C2.75 15.91 1.33 19.99 0.65 25.09C-0.01 30.13 0 36.58 0 44.8L5.78 44.8ZM37.58 6.68C32.13 6.68 27.48 6.68 23.56 6.88L23.85 12.66C27.6 12.47 32.08 12.47 37.58 12.47L37.58 6.68ZM21.65 11.8L28.39 18.65L32.51 14.59L25.77 7.74L21.65 11.8ZM25.76 11.8L32.51 4.95L28.39 0.89L21.65 7.74L25.76 11.8ZM69.39 45.33C69.39 53.53 69.37 59.41 68.76 63.89C68.16 68.28 67.04 70.9 65.14 72.84L69.26 76.89C72.38 73.72 73.81 69.7 74.49 64.67C75.17 59.71 75.17 53.38 75.17 45.33L69.39 45.33ZM74.93 29.74C74.51 22.36 73.31 16.81 69.26 12.7L65.14 16.76C67.61 19.27 68.75 22.93 69.16 30.07L74.93 29.74Z" fill="#FFFFFF" fill-opacity="1.000000" fill-rule="nonzero"/>
	<path id="Vector" d="M24.09 47.26L31.8 54.97L51.08 35.69" stroke="#FFFFFF" stroke-opacity="1.000000" stroke-width="5.782979" stroke-linejoin="round" stroke-linecap="round"/>
</svg>
