<svg width="81.472351" height="81.472412" viewBox="0 0 81.4724 81.4724" fill="none" xmlns="http://www.w3.org/2000/svg" xmlns:xlink="http://www.w3.org/1999/xlink">
	<desc>
			Created with Pixso.
	</desc>
	<defs>
		<clipPath id="clip19_367">
			<rect id="cil:burn" rx="0.000000" width="76.380325" height="76.380325" transform="translate(2.546011 2.546011)" fill="white" fill-opacity="0"/>
		</clipPath>
	</defs>
	<rect id="cil:burn" rx="0.000000" width="76.380325" height="76.380325" transform="translate(2.546011 2.546011)" fill="#FFFFFF" fill-opacity="0"/>
	<g clip-path="url(#clip19_367)">
		<path id="Vector" d="M49.51 40.99C50.38 39.55 51.29 38.06 52.18 36.53C55.17 31.4 55.72 26.24 53.81 21.18C49.96 10.96 37.09 4.74 34.11 3.75L32.02 3.05L28.75 9.59L30.33 10.88C30.35 10.89 32.1 12.43 32.22 14.75C32.32 16.73 31.23 18.87 28.99 21.11C27.43 22.67 25.72 24.17 23.91 25.77C16.3 32.47 7.68 40.07 7.68 54.44C7.68 54.64 7.68 54.83 7.68 55.03C7.74 58.2 8.42 61.33 9.69 64.24C10.96 67.15 12.79 69.78 15.07 71.98C19.67 76.44 25.82 78.94 32.23 78.92L46.89 78.92L45.08 75.25C37.73 60.33 42.93 51.79 49.51 40.99ZM32.23 73.83C21.7 73.83 12.97 65.35 12.77 54.94C12.77 54.77 12.77 54.61 12.77 54.44C12.77 42.37 20.15 35.87 27.28 29.59C29.07 28.01 30.92 26.38 32.59 24.71C35.89 21.41 37.48 17.97 37.3 14.49C37.22 13.01 36.83 11.57 36.15 10.26C40.58 12.68 46.9 17.27 49.05 22.97C50.41 26.58 49.99 30.18 47.78 33.97C46.91 35.46 46.02 36.92 45.16 38.34C38.84 48.71 32.85 58.54 38.88 73.83L32.23 73.83Z" fill="#FFFFFF" fill-opacity="1.000000" fill-rule="nonzero"/>
		<path id="Vector" d="M74.5 54.28C74.46 54.11 74.42 53.94 74.37 53.77C72.53 47.03 62.36 38.37 61.21 37.41L58.89 35.47L57.38 38.08C53.91 44.03 50.94 49.46 49.65 55.62C48.17 62.64 49.17 69.78 52.69 77.44L53.37 78.92L55.1 78.92C58.15 78.93 61.16 78.24 63.9 76.9C66.64 75.56 69.03 73.61 70.9 71.2C72.76 68.85 74.05 66.09 74.67 63.16C75.3 60.23 75.24 57.19 74.5 54.28ZM66.89 68.07C65.65 69.66 64.11 70.99 62.34 71.97C60.58 72.94 58.64 73.55 56.63 73.75C51.61 61.67 54.57 53.44 60.23 43.34C63.99 46.84 68.58 51.88 69.46 55.11C69.5 55.25 69.53 55.38 69.57 55.52C70.11 57.67 70.15 59.93 69.69 62.11C69.22 64.28 68.26 66.32 66.89 68.07Z" fill="#FFFFFF" fill-opacity="1.000000" fill-rule="nonzero"/>
	</g>
</svg>
