<svg width="82.889359" height="82.889893" viewBox="0 0 82.8894 82.8899" fill="none" xmlns="http://www.w3.org/2000/svg" xmlns:xlink="http://www.w3.org/1999/xlink">
	<desc>
			Created with Pixso.
	</desc>
	<defs/>
	<path id="Vector" d="M41.44 77.1C40.67 77.1 39.94 77.41 39.4 77.95C38.85 78.49 38.55 79.23 38.55 79.99C38.55 80.76 38.85 81.5 39.4 82.04C39.94 82.58 40.67 82.88 41.44 82.88L41.44 77.1ZM25.84 82.63C26.22 82.65 26.6 82.6 26.96 82.48C27.32 82.35 27.65 82.16 27.94 81.91C28.22 81.65 28.45 81.35 28.62 81.01C28.79 80.67 28.88 80.3 28.91 79.92C28.93 79.54 28.88 79.16 28.75 78.8C28.63 78.44 28.43 78.11 28.18 77.82C27.93 77.54 27.63 77.31 27.28 77.14C26.94 76.97 26.57 76.88 26.19 76.85L25.84 82.63ZM3.85 41.44C3.85 48.66 3.85 56.21 4.5 62.51C4.83 65.67 5.33 68.64 6.13 71.16C6.91 73.65 8.07 76.01 9.9 77.64L13.74 73.32C13.04 72.69 12.29 71.47 11.64 69.43C11.01 67.42 10.56 64.89 10.25 61.92C9.64 55.97 9.63 48.75 9.63 41.44L3.85 41.44ZM41.44 82.88C49.54 82.88 55.88 82.89 60.82 82.3C65.81 81.7 69.8 80.46 72.98 77.64L69.14 73.32C67.23 75.01 64.59 76.03 60.13 76.55C55.62 77.09 49.69 77.1 41.44 77.1L41.44 82.88ZM26.19 76.85C19.58 76.46 16.12 75.42 13.74 73.32L9.9 77.64C13.82 81.12 19.01 82.22 25.84 82.63L26.19 76.85ZM73.25 42.93C73.25 49.99 73.2 56.87 72.56 62.52C72.24 65.34 71.79 67.73 71.17 69.63C70.54 71.56 69.81 72.71 69.14 73.32L72.98 77.64C74.75 76.06 75.89 73.81 76.67 71.43C77.46 69.01 77.97 66.18 78.31 63.16C78.99 57.14 79.03 49.93 79.03 42.94L73.25 42.93Z" fill="#FFFFFF" fill-opacity="1.000000" fill-rule="nonzero"/>
	<path id="Vector" d="M51.69 49.93L63.28 46.46M31.18 49.93L8.02 42.98C5.73 42.29 4.58 41.95 3.85 41.12C3.71 40.96 3.58 40.79 3.46 40.61C2.89 39.67 2.89 38.48 2.89 36.08C2.89 26.63 2.89 21.91 5.48 18.72C5.98 18.1 6.54 17.55 7.15 17.05C10.34 14.45 15.07 14.45 24.51 14.45L58.37 14.45C67.81 14.45 72.54 14.45 75.73 17.05C76.34 17.55 76.9 18.11 77.4 18.72C79.99 21.91 79.99 26.63 79.99 36.08C79.99 38.48 79.99 39.67 79.41 40.61C79.3 40.79 79.17 40.96 79.03 41.12C78.45 41.78 77.61 42.13 76.14 42.59" stroke="#FFFFFF" stroke-opacity="1.000000" stroke-width="5.782979" stroke-linecap="round"/>
	<path id="Vector" d="M20.24 14.45C23.41 14.38 26.64 12.35 27.71 9.36L27.85 8.97L27.95 8.67C28.11 8.18 28.19 7.94 28.28 7.72C28.82 6.37 29.74 5.2 30.92 4.34C32.11 3.49 33.51 2.99 34.97 2.9C35.19 2.89 35.46 2.89 35.97 2.89L46.91 2.89C47.42 2.89 47.68 2.89 47.91 2.9C49.37 2.99 50.77 3.49 51.95 4.34C53.14 5.2 54.05 6.37 54.6 7.72C54.69 7.94 54.77 8.18 54.93 8.67L55.03 8.97C55.1 9.17 55.13 9.27 55.16 9.36C56.24 12.35 59.47 14.38 62.64 14.45" stroke="#FFFFFF" stroke-opacity="1.000000" stroke-width="5.782979"/>
	<path id="Vector" d="M33.73 43.37C33.22 43.37 32.73 43.57 32.37 43.93C32 44.29 31.8 44.78 31.8 45.3L31.8 53.63C31.8 54.02 31.92 54.39 32.13 54.71C32.35 55.03 32.65 55.28 33.01 55.42L35.71 56.5C39.39 57.97 43.49 57.97 47.17 56.5L49.87 55.42C50.22 55.28 50.53 55.03 50.75 54.71C50.96 54.39 51.08 54.02 51.08 53.63L51.08 45.3C51.08 44.78 50.87 44.29 50.51 43.93C50.15 43.57 49.66 43.37 49.15 43.37L33.73 43.37Z" stroke="#FFFFFF" stroke-opacity="1.000000" stroke-width="5.782979"/>
</svg>
