<svg width="61.685120" height="77.106445" viewBox="0 0 61.6851 77.1064" fill="none" xmlns="http://www.w3.org/2000/svg" xmlns:xlink="http://www.w3.org/1999/xlink">
	<desc>
			Created with Pixso.
	</desc>
	<defs/>
	<path id="Vector" d="M19.27 46.26L42.4 23.13" stroke="#FFFFFF" stroke-opacity="1.000000" stroke-width="7.710639" stroke-linejoin="round" stroke-linecap="round"/>
	<path id="Vector" d="M21.2 26.98C22.26 26.98 23.13 26.12 23.13 25.05C23.13 23.99 22.26 23.13 21.2 23.13C20.13 23.13 19.27 23.99 19.27 25.05C19.27 26.12 20.13 26.98 21.2 26.98Z" fill="#FFFFFF" fill-opacity="1.000000" fill-rule="nonzero"/>
	<path id="Vector" d="M21.2 26.98C20.13 26.98 19.27 26.12 19.27 25.05C19.27 23.99 20.13 23.13 21.2 23.13C22.26 23.13 23.13 23.99 23.13 25.05C23.13 26.12 22.26 26.98 21.2 26.98Z" stroke="#FFFFFF" stroke-opacity="1.000000" stroke-width="7.710639" stroke-linejoin="round"/>
	<path id="Vector" d="M40.48 46.26C41.54 46.26 42.4 45.4 42.4 44.33C42.4 43.27 41.54 42.4 40.48 42.4C39.41 42.4 38.55 43.27 38.55 44.33C38.55 45.4 39.41 46.26 40.48 46.26Z" fill="#FFFFFF" fill-opacity="1.000000" fill-rule="nonzero"/>
	<path id="Vector" d="M40.48 46.26C39.41 46.26 38.55 45.4 38.55 44.33C38.55 43.27 39.41 42.4 40.48 42.4C41.54 42.4 42.4 43.27 42.4 44.33C42.4 45.4 41.54 46.26 40.48 46.26Z" stroke="#FFFFFF" stroke-opacity="1.000000" stroke-width="7.710639" stroke-linejoin="round"/>
	<path id="Vector" d="M3.85 11.56C3.85 9.52 4.66 7.55 6.11 6.11C7.55 4.66 9.52 3.85 11.56 3.85L50.11 3.85C52.16 3.85 54.12 4.66 55.57 6.11C57.01 7.55 57.82 9.52 57.82 11.56L57.82 73.25L46.26 65.54L38.55 73.25L30.84 65.54L23.13 73.25L15.42 65.54L3.85 73.25L3.85 11.56Z" stroke="#FFFFFF" stroke-opacity="1.000000" stroke-width="7.710639" stroke-linejoin="round"/>
</svg>
