<svg width="63.278259" height="50.044815" viewBox="0 0 63.2783 50.0448" fill="none" xmlns="http://www.w3.org/2000/svg" xmlns:xlink="http://www.w3.org/1999/xlink">
	<desc>
			Created with Pixso.
	</desc>
	<defs/>
	<path id=",," d="M9.69 35.17Q11.23 35.74 12.99 35.74Q14.6 35.61 16.26 35.06Q17.56 34.62 18.86 33.57Q20.15 32.52 20.96 30.61Q21.28 31.08 21.45 31.6Q21.71 32.37 21.64 33.26Q21.51 34.75 21.14 36.11Q20.84 37.65 20.16 39.32Q19.66 40.31 19.23 41.48Q18.8 42.65 18.15 44.11Q17.5 45.56 16.7 47.47L23.37 45.86Q25.1 44.26 26.21 42.34Q27.32 40.43 28 38.76Q28.8 36.84 29.3 35.24Q29.79 33.01 29.42 30.05Q29.04 27.08 28.18 24.18Q27.31 21.28 25.98 18.84Q24.65 16.4 23.23 15.23Q23.11 15.11 22.98 15.01Q20.36 12.81 16 12.7Q15.73 12.69 15.45 12.7Q11.17 12.87 7.05 17.34Q4.34 20.3 3.66 23.51Q3.08 26.25 3.74 28.65Q3.85 29.07 4 29.47Q4.43 30.64 5.12 31.63Q6.05 32.97 7.46 33.98Q8.51 34.74 9.69 35.17ZM38.73 25.47Q40.28 26.04 42.04 26.04Q43.64 25.91 45.31 25.36Q46.61 24.92 47.91 23.87Q49.2 22.82 50 20.91Q50.32 21.38 50.5 21.9Q50.76 22.67 50.68 23.56Q50.56 25.05 50.19 26.41Q49.88 27.95 49.21 29.62Q48.71 30.61 48.28 31.78Q47.85 32.95 47.2 34.41Q46.55 35.86 45.75 37.77L52.42 36.16Q54.15 34.56 55.26 32.64Q56.37 30.73 57.05 29.06Q57.85 27.14 58.34 25.54Q58.84 23.31 58.46 20.35Q58.09 17.38 57.23 14.48Q56.36 11.58 55.03 9.14Q53.7 6.7 52.28 5.53Q52.16 5.41 52.03 5.31Q49.41 3.11 45.05 3Q44.78 2.99 44.5 3Q40.22 3.17 36.1 7.64Q33.38 10.6 32.71 13.81Q32.13 16.55 32.78 18.95Q32.9 19.37 33.05 19.77Q33.48 20.94 34.17 21.93Q35.1 23.27 36.51 24.28Q37.56 25.04 38.73 25.47Z" fill="#FFFFFF" fill-opacity="1.000000" fill-rule="evenodd"/>
</svg>
