<svg width="32.000000" height="32.000000" viewBox="0 0 32 32" fill="none" xmlns="http://www.w3.org/2000/svg" xmlns:xlink="http://www.w3.org/1999/xlink">
	<desc>
			Created with Pixso.
	</desc>
	<defs>
		<clipPath id="clip1033_5664">
			<rect id="Frame 2445" rx="0.000000" width="31.000000" height="31.000000" transform="translate(0.500000 0.500000)" fill="white" fill-opacity="0"/>
		</clipPath>
	</defs>
	<g clip-path="url(#clip1033_5664)">
		<path id="Union" d="" fill="#252E35" fill-opacity="1.000000" fill-rule="nonzero"/>
		<path id="Rectangle 2259" d="M3.5 7L28.5 7C28.77 7 29 7.22 29 7.5C29 7.77 28.77 8 28.5 8L3.5 8C3.22 8 3 7.77 3 7.5C3 7.22 3.22 7 3.5 7Z" fill="#fff" fill-opacity="1.000000" fill-rule="nonzero"/>
		<path id="Rectangle 2260" d="M3.5 16L28.5 16C28.77 16 29 16.22 29 16.5C29 16.77 28.77 17 28.5 17L3.5 17C3.22 17 3 16.77 3 16.5C3 16.22 3.22 16 3.5 16Z" fill="#fff" fill-opacity="1.000000" fill-rule="nonzero"/>
		<path id="Rectangle 2261" d="M3.5 25L28.5 25C28.77 25 29 25.22 29 25.5C29 25.77 28.77 26 28.5 26L3.5 26C3.22 26 3 25.77 3 25.5C3 25.22 3.22 25 3.5 25Z" fill="#fff" fill-opacity="1.000000" fill-rule="nonzero"/>
	</g>
</svg>
