<svg width="133.357605" height="661.000000" viewBox="0 0 133.358 661" fill="none" xmlns="http://www.w3.org/2000/svg" xmlns:xlink="http://www.w3.org/1999/xlink">
	<desc>
			Created with Pixso.
	</desc>
	<defs>
		<radialGradient gradientTransform="translate(73.8501 325.27) rotate(-95.6667) scale(311.315 7561.29)" cx="0.000000" cy="0.000000" r="1.000000" id="paint_radial_19_102_0" gradientUnits="userSpaceOnUse">
			<stop stop-color="#E63B34"/>
			<stop offset="1.000000" stop-color="#E63B34" stop-opacity="0.000000"/>
		</radialGradient>
		<radialGradient gradientTransform="translate(76.9951 325.27) rotate(-95.6667) scale(311.315 7561.29)" cx="0.000000" cy="0.000000" r="1.000000" id="paint_radial_19_103_0" gradientUnits="userSpaceOnUse">
			<stop stop-color="#956D4F"/>
			<stop offset="0.828125" stop-color="#956D4F" stop-opacity="0.000000"/>
		</radialGradient>
		<filter id="filter_19_105_dd" x="0.000000" y="136.721924" width="133.357605" height="411.884277" filterUnits="userSpaceOnUse" color-interpolation-filters="sRGB">
			<feFlood flood-opacity="0" result="BackgroundImageFix"/>
			<feColorMatrix in="SourceAlpha" type="matrix" values="0 0 0 0 0 0 0 0 0 0 0 0 0 0 0 0 0 0 127 0" result="hardAlpha"/>
			<feOffset dx="0" dy="13.9158"/>
			<feGaussianBlur stdDeviation="9.66374"/>
			<feComposite in2="hardAlpha" operator="out" k2="-1" k3="1"/>
			<feColorMatrix type="matrix" values="0 0 0 0 0.18431 0 0 0 0 0.023529 0 0 0 0 0.035294 0 0 0 0.1 0"/>
			<feBlend mode="normal" in2="BackgroundImageFix" result="effect_dropShadow_1"/>
			<feBlend mode="normal" in="SourceGraphic" in2="effect_dropShadow_1" result="shape"/>
		</filter>
	</defs>
	<path id="Vector 3" d="M49.92 661C49.92 661 74.71 505.98 74.71 330.5C74.71 155.02 49.92 0 49.92 0C49.92 0 73 166.82 73 330.5C73 494.17 49.92 661 49.92 661Z" fill="url(#paint_radial_19_102_0)" fill-opacity="1.000000" fill-rule="evenodd"/>
	<g opacity="0.400000">
		<path id="Vector 4" d="M76.67 334.23C76.13 499.86 54.25 661 54.25 661C54.25 661 76.6 510.78 77.06 333.64L76.67 334.23ZM54.25 0C54.25 0 76.08 161.52 76.67 326.95L77.06 327.54C76.55 150.65 54.25 0 54.25 0Z" fill="url(#paint_radial_19_103_0)" fill-opacity="1.000000" fill-rule="evenodd"/>
	</g>
	<g filter="url(#filter_19_105_dd)">
		<path id="Rectangle 32" d="M33.78 482.82L33.78 336.1C33.78 335.55 33.58 335.01 33.21 334.59L29.55 330.33C28.8 329.46 28.8 328.17 29.55 327.3L33.21 323.04C33.58 322.62 33.78 322.08 33.78 321.53L33.78 174.67C33.78 173.9 34.16 173.18 34.8 172.74L65.38 152.19C66.16 151.66 67.19 151.66 67.97 152.19L98.55 172.74C99.19 173.18 99.57 173.9 99.57 174.67L99.57 321.52C99.57 322.08 99.77 322.62 100.14 323.04L103.79 327.24C104.55 328.1 104.55 329.39 103.81 330.26L100.13 334.59C99.77 335.01 99.57 335.54 99.57 336.09L99.57 482.82C99.57 483.59 99.19 484.31 98.55 484.74L67.97 505.3C67.19 505.83 66.16 505.83 65.38 505.3L34.8 484.74C34.16 484.31 33.78 483.59 33.78 482.82Z" fill="#FFFFFF" fill-opacity="1.000000" fill-rule="nonzero"/>
	</g>
	<g opacity="0.100000">
		<path id="Rectangle 33" d="M65.32 155.05L37.51 175.02C36.9 175.46 36.54 176.16 36.54 176.91L36.54 323.48C36.54 324.1 36.29 324.71 35.83 325.14L33.77 327.14C32.86 328.03 32.83 329.49 33.71 330.41L35.9 332.7C36.31 333.13 36.54 333.71 36.54 334.3L36.54 480.58C36.54 481.33 36.9 482.03 37.51 482.46L65.32 502.43C66.13 503.01 67.22 503.01 68.03 502.43L95.84 482.46C96.45 482.03 96.81 481.33 96.81 480.58L96.81 334.33C96.81 333.72 97.05 333.13 97.48 332.7L99.61 330.55C100.51 329.65 100.51 328.19 99.61 327.28L97.48 325.14C97.05 324.7 96.81 324.12 96.81 323.5L96.81 176.91C96.81 176.16 96.45 175.46 95.84 175.02L68.03 155.05C67.22 154.47 66.13 154.47 65.32 155.05ZM38.18 175.97L66 156Q66.34 155.75 66.67 155.75Q67.01 155.75 67.35 156L95.17 175.97Q95.41 176.14 95.53 176.38Q95.65 176.61 95.65 176.91L95.65 323.5Q95.65 324.22 95.9 324.83Q96.15 325.45 96.66 325.95L98.79 328.1Q99.19 328.51 99.19 328.92Q99.19 329.33 98.79 329.73L96.66 331.88Q96.15 332.39 95.9 333Q95.65 333.61 95.65 334.33L95.65 480.58Q95.65 480.88 95.53 481.11Q95.41 481.35 95.17 481.52L67.35 501.49Q67.01 501.74 66.67 501.74Q66.34 501.74 66 501.49L38.18 481.52Q37.94 481.35 37.82 481.11Q37.7 480.88 37.7 480.58L37.7 334.3Q37.7 333.61 37.46 333.01Q37.22 332.41 36.74 331.9L34.55 329.61Q34.15 329.19 34.16 328.78Q34.16 328.37 34.58 327.97L36.64 325.98Q37.17 325.46 37.44 324.84Q37.7 324.21 37.7 323.48L37.7 176.91Q37.7 176.61 37.82 176.38Q37.94 176.14 38.18 175.97Z" fill="#FFFFFF" fill-opacity="1.000000" fill-rule="evenodd"/>
	</g>
</svg>
